<svg xmlns="http://www.w3.org/2000/svg" xmlns:xlink="http://www.w3.org/1999/xlink" width="45" height="45" viewBox="0 0 45 45" fill="none">
<path d="M17.8439 27.1381L22.0621 27.1381L22.0621 22.9193L17.8439 22.9193L17.8439 27.1381ZM23.4685 32.763L27.6873 32.763L27.6873 28.5445L23.4685 28.5445L23.4685 32.763ZM17.8439 32.763L22.0621 32.763L22.0621 28.5445L17.8439 28.5445L17.8439 32.763ZM12.2188 27.1381L16.4375 27.1381L16.4375 22.9193L12.2188 22.9193L12.2188 27.1381ZM12.2188 32.763L16.4375 32.763L16.4375 28.5445L12.2188 28.5445L12.2188 32.763ZM23.4685 27.1381L27.6873 27.1381L27.6873 22.9193L23.4685 22.9193L23.4685 27.1381ZM29.0937 21.5131L33.3124 21.5131L33.3124 17.2945L29.0937 17.2945L29.0937 21.5131ZM36.1248 8.85693L9.40599 8.85693C8.6293 8.85693 8 9.48649 8 10.2633L8 35.5757C8 36.3524 8.6293 36.982 9.40599 36.982L36.1248 36.982C36.9015 36.982 37.5312 36.3524 37.5312 35.5757L37.5312 10.2634C37.5312 9.48654 36.9015 8.85693 36.1248 8.85693ZM36.125 34.1694C36.125 34.9461 35.4954 35.5756 34.7187 35.5756L10.8124 35.5756C10.0357 35.5756 9.40612 34.9461 9.40612 34.1694L9.40612 15.8881C9.40612 15.1114 10.0357 14.4818 10.8124 14.4818L34.7187 14.4818C35.4954 14.4818 36.1249 15.1114 36.1249 15.8881L36.1249 34.1694L36.125 34.1694ZM29.0937 27.1381L33.3124 27.1381L33.3124 22.9193L29.0937 22.9193L29.0937 27.1381ZM23.4685 21.5131L27.6873 21.5131L27.6873 17.2945L23.4685 17.2945L23.4685 21.5131Z"   fill="#393E46" >
</path>
</svg>
