<svg xmlns="http://www.w3.org/2000/svg" xmlns:xlink="http://www.w3.org/1999/xlink" width="40" height="40" viewBox="0 0 40 40" fill="none">
<path d="M34.148 36.2232C33.9418 36.4294 33.7106 36.5696 33.5509 36.6513L32.0272 36.6513C32.303 35.5436 32.6311 33.9629 33.0193 31.6831L33.0197 31.6812C33.129 31.191 33.1954 30.7786 33.2282 30.3864L29.906 29.9841C29.9052 29.9884 29.8388 30.4063 29.7334 31.0313C29.2143 33.2693 27.6907 35.5611 26.8927 36.6516L25.8807 36.6516C25.9503 36.3685 26.0229 36.056 26.0991 35.7104C26.4096 34.3015 26.6888 32.7514 26.8709 31.6835L26.8712 31.6816C26.9806 31.191 27.047 30.7786 27.0798 30.3868L23.7576 29.9845C23.7568 29.9888 23.6904 30.4067 23.5849 31.0317C23.0659 33.2689 21.5422 35.5611 20.7443 36.652L19.7503 36.652C19.8194 36.3693 19.892 36.0568 19.9682 35.7108C20.2771 34.3097 20.5576 32.7541 20.7408 31.6812C20.8497 31.1883 20.9157 30.7762 20.9486 30.3872L17.6255 29.9908C17.6248 29.995 17.5603 30.4102 17.4548 31.0309C16.9381 33.263 15.4129 35.5592 14.6142 36.652L14.4802 36.652C14.5494 36.3693 14.622 36.0568 14.6982 35.7108C15.0071 34.3097 15.2875 32.7541 15.4707 31.6812C15.5797 31.1879 15.6457 30.7754 15.6785 30.3872L12.3555 29.9908C12.3547 29.995 12.2903 30.4102 12.1848 31.0309C11.6681 33.2626 10.1429 35.5592 9.34418 36.652L6.02738 36.652C5.53527 36.3404 5.2146 35.9134 5.16812 35.4893C5.10093 34.8781 5.56964 34.1465 6.48828 33.4286C7.81664 32.3897 8.6923 30.5306 9.09144 27.9035C9.28324 26.6412 9.34066 25.3824 9.34223 24.3415L33.2036 24.3415C33.5387 26.0202 33.7668 28.0418 34.0055 30.1564C34.1762 31.6691 34.3527 33.2333 34.5785 34.7499C34.6722 35.3772 34.5394 35.8318 34.148 36.2232ZM10.0757 15.2383C10.1808 15.0356 10.712 14.6993 11.0924 14.6993L19.023 14.6993L19.023 3.36837C19.0425 3.36056 19.0703 3.35353 19.1054 3.35353L22.6187 3.35353C22.6538 3.35353 22.6815 3.36056 22.7011 3.36837L22.7011 14.699L30.4157 14.699C30.7965 14.699 31.3285 15.036 31.4335 15.2383L34.3605 20.8927L7.14797 20.8927L10.0757 15.2383ZM37.3332 29.7802C37.1019 27.7305 36.8797 25.764 36.554 24.0279C37.0965 23.8174 37.5402 23.4568 37.8347 22.9721C38.3061 22.1965 38.3124 21.2419 37.8519 20.3537L34.4066 13.6979C34.0621 13.0332 33.4602 12.4297 32.7119 11.9985C31.987 11.5806 31.1715 11.3506 30.4157 11.3506L26.0498 11.3506L26.0498 3.27542C26.0498 1.47213 24.5106 0.00512695 22.6186 0.00512695L19.1054 0.00512695C17.2135 0.00512695 15.6746 1.47213 15.6746 3.27542L15.6746 11.3506L11.0924 11.3506C10.3362 11.3506 9.5207 11.5806 8.79578 11.9985C8.04707 12.4301 7.44558 13.034 7.10148 13.6987L3.6566 20.3525C3.19572 21.2415 3.20158 22.1961 3.6734 22.9717C4.14015 23.7396 4.98105 24.1954 5.99617 24.238C6.00746 27.4282 5.40597 30.0232 4.42605 30.7895C1.90839 32.7572 1.72482 34.8066 1.83965 35.8533C2.02322 37.5265 3.16057 39.0158 4.88222 39.8368L5.22398 40L34.159 40L34.4121 39.9176C34.5863 39.861 35.4983 39.5375 36.363 38.7385C37.6074 37.589 38.1499 35.9974 37.8909 34.2563C37.6738 32.7982 37.5007 31.264 37.3332 29.7802Z"   fill="#FFFFFF" >
</path>
</svg>
