<svg xmlns="http://www.w3.org/2000/svg" xmlns:xlink="http://www.w3.org/1999/xlink" width="45" height="45" viewBox="0 0 45 45" fill="none">
<path d="M12.2129 44.8465C10.4342 44.8465 8.71975 44.4668 7.1172 43.7184L5.29874 42.8691L10.957 37.2105L7.72931 33.9834L2.08068 39.6319L1.23987 37.7879C0.522114 36.2138 0.158203 34.5327 0.158203 32.7912C0.158203 29.5714 1.41214 26.5445 3.68898 24.2678C5.96583 21.9912 8.993 20.7375 12.213 20.7375C13.6196 20.7375 14.987 20.9749 16.2903 21.4445L21.4043 16.3307C20.9332 15.0233 20.695 13.6517 20.695 12.2407C20.695 9.01101 21.9529 5.97448 24.2367 3.69051C26.5207 1.40637 29.5574 0.148438 32.7873 0.148438C34.5324 0.148438 36.2174 0.513009 37.7952 1.23191L39.64 2.07254L34.0429 7.66941L37.2707 10.8974L42.8805 5.28705L43.7326 7.09737C44.4932 8.71381 44.8791 10.4442 44.8791 12.2406C44.8791 15.4709 43.6214 18.5076 41.3374 20.7916C39.0536 23.0754 36.0171 24.3332 32.7873 24.3332C31.3291 24.3332 29.9146 24.0791 28.5692 23.5767L23.5259 28.6201C24.0185 29.9515 24.2677 31.3503 24.2677 32.7912C24.2677 36.0115 23.0138 39.0388 20.737 41.3156C18.4603 43.5924 15.433 44.8465 12.2129 44.8465ZM10.3071 41.8381C10.9284 41.9683 11.5649 42.0338 12.2129 42.0338C14.6818 42.0338 17.0027 41.0725 18.7483 39.3269C20.4938 37.5813 21.4552 35.2602 21.4552 32.7912C21.4552 31.4272 21.1646 30.1135 20.5916 28.8866L20.1747 27.9939L27.9472 20.2213L28.8415 20.6421C30.0804 21.2251 31.408 21.5207 32.7873 21.5207C35.2659 21.5207 37.5961 20.5555 39.3488 18.8029C41.1015 17.0501 42.0668 14.7196 42.0668 12.2406C42.0668 11.5751 41.9979 10.9215 41.8611 10.2842L37.2708 14.8749L30.0655 7.66927L34.5984 3.13654C34.007 3.01969 33.4021 2.96085 32.7873 2.96085C27.6704 2.96085 23.5076 7.12374 23.5076 12.2406C23.5076 13.5808 23.7869 14.8736 24.3377 16.0828L24.742 16.9704L16.9298 24.7825L16.042 24.3778C14.8369 23.8285 13.5487 23.5499 12.213 23.5499C7.11676 23.5499 2.97074 27.6955 2.97074 32.7912C2.97074 33.402 3.02897 34.0029 3.14472 34.5905L7.72918 30.0062L14.9346 37.2102L10.3071 41.8381Z"   fill="#464D57" fill-opacity="0.87">
</path>
</svg>
