<svg xmlns="http://www.w3.org/2000/svg" xmlns:xlink="http://www.w3.org/1999/xlink" width="45" height="45" viewBox="0 0 45 45" fill="none">
<path d="M20.3718 9.71045C19.4244 9.71045 18.5918 10.5431 18.5918 11.4904L18.5918 22.0305C18.5918 22.9778 19.4244 23.8005 20.3718 23.8005C21.3192 23.8005 22.1418 22.9778 22.1418 22.0305L22.1418 11.4904C22.1418 10.5431 21.4376 9.71045 20.3718 9.71045Z"   fill="#FFFFFF" >
</path>
<path d="M42.0409 37.7781L40.9709 37.7781L40.9709 24.2781C40.9709 22.9755 40.3867 21.6687 39.3209 20.9581L35.2909 17.8781L35.2909 14.7981C35.2909 13.4955 34.6967 12.1987 33.6309 11.4881L29.7209 8.28811L29.7209 4.73812C29.7209 3.79077 28.8983 2.95812 27.9509 2.95812C27.0036 2.95812 26.1709 3.79077 26.1709 4.73812L26.1709 5.44812L23.3309 3.19812C21.9099 2.13233 19.892 2.01075 18.4709 2.95812L5.45094 11.3681C4.26671 12.1971 3.43094 13.4971 3.43094 14.9181L3.43094 37.7781L2.49094 37.7781C1.54357 37.7781 0.710938 38.6007 0.710938 39.5481C0.710938 40.4955 1.54357 41.3281 2.49094 41.3281L42.0409 41.3281C42.9883 41.3281 43.8209 40.4955 43.8209 39.5481C43.8209 38.6007 42.9883 37.7781 42.0409 37.7781ZM7.10094 14.9181C7.10094 14.6813 7.22412 14.4465 7.46094 14.3281L20.3709 6.15812C20.6078 6.03973 20.9641 6.03973 21.2009 6.15812L26.5309 10.2981C26.7678 10.6534 26.9973 10.8997 27.4709 11.0181L31.6209 14.2081C31.7394 14.3265 31.8509 14.5613 31.8509 14.7981L31.8509 37.7781L7.10094 37.7781L7.10094 14.9181ZM35.2909 22.3781L37.0709 23.7981C37.1893 23.9165 37.3009 24.1612 37.3009 24.3981L37.3009 37.8981L35.1709 37.8981L35.1709 22.3781L35.2909 22.3781Z"   fill="#FFFFFF" >
</path>
</svg>
