<svg xmlns="http://www.w3.org/2000/svg" xmlns:xlink="http://www.w3.org/1999/xlink" width="35" height="35" viewBox="0 0 35 35" fill="none">
<path d="M13.6564 24.2187L16.9372 24.2187L16.9372 20.9374L13.6564 20.9374L13.6564 24.2187ZM18.0311 28.5936L21.3123 28.5936L21.3123 25.3125L18.0311 25.3125L18.0311 28.5936ZM13.6564 28.5936L16.9372 28.5936L16.9372 25.3125L13.6564 25.3125L13.6564 28.5936ZM9.28128 24.2187L12.5625 24.2187L12.5625 20.9374L9.28128 20.9374L9.28128 24.2187ZM9.28128 28.5936L12.5625 28.5936L12.5625 25.3125L9.28128 25.3125L9.28128 28.5936ZM18.0311 24.2187L21.3123 24.2187L21.3123 20.9374L18.0311 20.9374L18.0311 24.2187ZM22.4062 19.8437L25.6874 19.8437L25.6874 16.5625L22.4062 16.5625L22.4062 19.8437ZM27.8748 10L7.09354 10C6.48945 10 6 10.4897 6 11.0939L6 30.7813C6 31.3854 6.48945 31.875 7.09354 31.875L27.8748 31.875C28.4789 31.875 28.9687 31.3854 28.9687 30.7813L28.9687 11.0939C28.9687 10.4897 28.4789 10 27.8748 10ZM27.875 29.6875C27.875 30.2916 27.3853 30.7812 26.7812 30.7812L8.1874 30.7812C7.58331 30.7812 7.09365 30.2916 7.09365 29.6875L7.09365 15.4687C7.09365 14.8646 7.58331 14.3749 8.1874 14.3749L26.7812 14.3749C27.3853 14.3749 27.8749 14.8646 27.8749 15.4687L27.8749 29.6875L27.875 29.6875ZM22.4062 24.2187L25.6874 24.2187L25.6874 20.9374L22.4062 20.9374L22.4062 24.2187ZM18.0311 19.8437L21.3123 19.8437L21.3123 16.5625L18.0311 16.5625L18.0311 19.8437Z"   fill="#FFFFFF" >
</path>
</svg>
