<svg xmlns="http://www.w3.org/2000/svg" xmlns:xlink="http://www.w3.org/1999/xlink" width="382.000732421875" height="32.00146484375" viewBox="0 0 382.000732421875 32.00146484375" fill="none">
<path d="M300.93 8.50073C299.091 8.46863 297.567 7.19952 297.13 5.50073L200.39 5.50073L190.53 14.5007L373.63 14.5007C374.081 12.7488 375.682 11.4678 377.57 11.5007C379.779 11.5393 381.539 13.3619 381.5 15.5707C381.462 17.7795 379.639 19.5393 377.43 19.5007C375.591 19.4686 374.067 18.1995 373.63 16.5007L162.93 16.5007L175.84 26.5007L336.63 26.5007C337.081 24.7488 338.682 23.4678 340.57 23.5007C342.779 23.5393 344.539 25.3619 344.5 27.5707C344.462 29.7795 342.639 31.5393 340.43 31.5007C338.591 31.4686 337.067 30.1995 336.63 28.5007L175.16 28.5007L174.89 28.2907L159.66 16.5007L0.5 16.5007L0.5 14.5007L188.04 14.5007L187.83 14.2607L199.33 3.76073L199.61 3.50073L297.13 3.50073C297.581 1.74883 299.182 0.46778 301.07 0.500732C303.279 0.539288 305.039 2.36193 305 4.57073C304.962 6.77954 303.139 8.53929 300.93 8.50073ZM300.96 6.50073C300.232 6.48803 299.609 6.08792 299.27 5.50073C299.094 5.19675 299 4.84744 299 4.47073C299 4.11897 299.105 3.78511 299.27 3.50073C299.621 2.89226 300.287 2.48759 301.04 2.50073C302.144 2.52 303.019 3.42633 303 4.53073C302.98 5.63513 302.064 6.52001 300.96 6.50073ZM375.77 16.5007C376.109 17.0879 376.742 17.488 377.47 17.5007C378.575 17.52 379.48 16.6351 379.5 15.5307C379.519 14.4263 378.644 13.52 377.54 13.5007C376.787 13.4876 376.122 13.8922 375.77 14.5007C375.605 14.7851 375.5 15.1189 375.5 15.4707C375.5 15.8474 375.594 16.1967 375.77 16.5007ZM338.77 26.5007C338.605 26.7851 338.5 27.1189 338.5 27.4707C338.5 27.8474 338.594 28.1967 338.77 28.5007C339.109 29.0879 339.742 29.488 340.47 29.5007C341.575 29.52 342.48 28.6351 342.5 27.5307C342.519 26.4263 341.644 25.52 340.54 25.5007C339.787 25.4876 339.122 25.8922 338.77 26.5007Z" stroke="rgba(0, 173, 181, 1)" stroke-width="1"    fill-rule="evenodd"  fill="#00ADB5" >
</path>
</svg>
