<svg xmlns="http://www.w3.org/2000/svg" xmlns:xlink="http://www.w3.org/1999/xlink" width="30" height="30" viewBox="0 0 30 30" fill="none">
<path d="M25.611 27.1674C25.4564 27.3221 25.2829 27.4273 25.1631 27.4885L24.0204 27.4885C24.2272 26.6577 24.4733 25.4723 24.7645 23.7624L24.7648 23.7609C24.8468 23.3933 24.8966 23.084 24.9212 22.7899L22.4295 22.4882C22.4289 22.4914 22.3791 22.8048 22.3 23.2735C21.9107 24.952 20.768 26.6709 20.1695 27.4888L19.4106 27.4888C19.4627 27.2764 19.5172 27.0421 19.5743 26.7828C19.8072 25.7262 20.0166 24.5636 20.1531 23.7627L20.1534 23.7612C20.2354 23.3933 20.2852 23.084 20.3099 22.7902L17.8182 22.4884C17.8176 22.4917 17.7678 22.8051 17.6887 23.2738C17.2994 24.9517 16.1567 26.6709 15.5582 27.4891L14.8127 27.4891C14.8646 27.277 14.919 27.0427 14.9762 26.7831C15.2079 25.7324 15.4182 24.5656 15.5556 23.7609C15.6373 23.3913 15.6868 23.0822 15.7114 22.7905L13.2192 22.4931C13.2186 22.4963 13.1702 22.8077 13.0911 23.2732C12.7036 24.9473 11.5597 26.6695 10.9606 27.4891L10.8602 27.4891C10.912 27.277 10.9665 27.0427 11.0236 26.7831C11.2553 25.7324 11.4657 24.5656 11.6031 23.7609C11.6848 23.391 11.7343 23.0816 11.7589 22.7905L9.26663 22.4931C9.26604 22.4963 9.2177 22.8077 9.1386 23.2732C8.75106 24.947 7.60717 26.6695 7.00813 27.4891L4.52054 27.4891C4.15145 27.2553 3.91095 26.9351 3.87609 26.617C3.8257 26.1586 4.17723 25.6099 4.86621 25.0715C5.86248 24.2923 6.51923 22.898 6.81858 20.9277C6.96243 19.9809 7.0055 19.0368 7.00667 18.2562L24.9027 18.2562C25.1541 19.5152 25.3251 21.0314 25.5041 22.6173C25.6321 23.7519 25.7645 24.9251 25.9339 26.0625C26.0041 26.533 25.9046 26.8739 25.611 27.1674ZM7.55678 11.4288C7.63558 11.2768 8.03396 11.0246 8.31929 11.0246L14.2673 11.0246L14.2673 2.52634C14.2819 2.52048 14.3027 2.51521 14.3291 2.51521L16.964 2.51521C16.9903 2.51521 17.0111 2.52048 17.0258 2.52634L17.0258 11.0243L22.8118 11.0243C23.0974 11.0243 23.4964 11.2771 23.5752 11.4288L25.7704 15.6696L5.36098 15.6696L7.55678 11.4288ZM27.9999 22.3352C27.8265 20.7979 27.6598 19.323 27.4155 18.021C27.8224 17.8631 28.1551 17.5927 28.376 17.2291C28.7296 16.6474 28.7343 15.9315 28.3889 15.2654L25.8049 10.2735C25.5466 9.77494 25.0952 9.32236 24.5339 8.99895C23.9902 8.68551 23.3786 8.51298 22.8118 8.51298L19.5374 8.51298L19.5374 2.45662C19.5374 1.10416 18.3829 0.00390625 16.964 0.00390625L14.3291 0.00390625C12.9101 0.00390625 11.756 1.10416 11.756 2.45662L11.756 8.51298L8.31929 8.51298C7.75216 8.51298 7.14053 8.68551 6.59684 8.99895C6.0353 9.32266 5.58419 9.77553 5.32611 10.2741L2.74245 15.2645C2.39679 15.9312 2.40119 16.6471 2.75505 17.2289C3.10511 17.8048 3.73579 18.1466 4.49713 18.1785C4.5056 20.5712 4.05448 22.5174 3.31954 23.0922C1.43129 24.568 1.29361 26.105 1.37973 26.8901C1.51741 28.145 2.37043 29.2619 3.66167 29.8776L3.91798 30.0001L25.6192 30.0001L25.809 29.9383C25.9397 29.8958 26.6237 29.6532 27.2723 29.0539C28.2055 28.1918 28.6124 26.9981 28.4182 25.6923C28.2553 24.5987 28.1256 23.4481 27.9999 22.3352Z"   fill="#FFFFFF" >
</path>
</svg>
