<svg xmlns="http://www.w3.org/2000/svg" xmlns:xlink="http://www.w3.org/1999/xlink" width="35.5556640625" height="35.5556640625" viewBox="0 0 35.5556640625 35.5556640625" fill="none">
<path d="M28.1481 7.40729L25.1851 7.40729L25.1851 5.18507C25.1851 4.74062 24.8888 4.44434 24.4443 4.44434C23.9999 4.44434 23.7036 4.74062 23.7036 5.18507L23.7036 7.40729L11.8517 7.40729L11.8517 5.18507C11.8517 4.74062 11.5554 4.44434 11.111 4.44434C10.6666 4.44434 10.3703 4.74062 10.3703 5.18507L10.3703 7.40729L7.40729 7.40729C5.77767 7.40729 4.44434 8.74062 4.44434 10.3703L4.44434 28.1481C4.44434 29.7777 5.77767 31.111 7.40729 31.111L28.1481 31.111C29.7777 31.111 31.111 29.7777 31.111 28.1481L31.111 10.3703C31.111 8.74062 29.7777 7.40729 28.1481 7.40729ZM29.6295 28.1481C29.6295 29.0369 29.0369 29.6295 28.1481 29.6295L7.40729 29.6295C6.5184 29.6295 5.92583 29.0369 5.92583 28.1481L5.92583 11.8517L29.6295 11.8517L29.6295 28.1481ZM22.2221 17.7777C22.2221 15.2592 20.2962 13.3332 17.7777 13.3332C15.2592 13.3332 13.3332 15.2592 13.3332 17.7777C13.3332 20.2962 15.2592 22.2221 17.7777 22.2221C20.2962 22.2221 22.2221 20.2962 22.2221 17.7777ZM17.7777 20.7406C16.1481 20.7406 14.8147 19.4073 14.8147 17.7777C14.8147 16.1481 16.1481 14.8147 17.7777 14.8147C19.4073 14.8147 20.7406 16.1481 20.7406 17.7777C20.7406 19.4073 19.4073 20.7406 17.7777 20.7406ZM8.88878 27.4073C8.88878 26.2221 11.5554 22.2221 17.7777 22.2221C23.9999 22.2221 26.6666 26.2221 26.6666 27.4073C26.6666 27.8517 26.3703 28.1481 25.9258 28.1481C25.4814 28.1481 25.1851 27.8517 25.1851 27.4073C25.0369 26.9628 23.2592 23.7036 17.7777 23.7036C12.2962 23.7036 10.5184 26.9628 10.3703 27.4073C10.3703 27.8517 10.074 28.1481 9.62951 28.1481C9.18507 28.1481 8.88878 27.8517 8.88878 27.4073Z" stroke="rgba(255, 255, 255, 1)" stroke-width="1"      fill="#FFFFFF" >
</path>
</svg>
