<svg xmlns="http://www.w3.org/2000/svg" xmlns:xlink="http://www.w3.org/1999/xlink" width="30" height="30" viewBox="0 0 30 30" fill="none">
<g  clip-path="url(#clip-path-7zj2xl51LCmNb8VH6TE-G)">
<path d="M5.6106 6.14082C5.30679 6.0207 4.97573 5.95478 4.62915 5.95478C4.28257 5.95478 3.95151 6.0207 3.64771 6.14082L3.64771 1.47266C3.64771 0.930664 4.08716 0.491211 4.62915 0.491211C5.17144 0.491211 5.6106 0.930664 5.6106 1.47266L5.6106 6.14082ZM5.6106 11.0949L5.6106 28.4958C5.6106 29.0378 5.17144 29.4772 4.62915 29.4772C4.08716 29.4772 3.64771 29.0378 3.64771 28.4958L3.64771 11.0949C3.95151 11.215 4.28257 11.281 4.62915 11.281C4.97573 11.281 5.30708 11.215 5.6106 11.0949ZM15.8542 18.8032C15.5496 18.6819 15.217 18.6154 14.8693 18.6154C14.5242 18.6154 14.194 18.6811 13.8914 18.8006L13.8914 1.47266C13.8914 0.930664 14.3308 0.491211 14.8728 0.491211C15.4148 0.491211 15.8542 0.930664 15.8542 1.47266L15.8542 18.8032ZM15.8542 23.7603L15.8542 28.4955C15.8542 29.0375 15.4148 29.4769 14.8728 29.4769C14.3308 29.4769 13.8914 29.0375 13.8914 28.4955L13.8914 23.7629C14.194 23.8824 14.5242 23.948 14.8693 23.948C14.9534 23.9482 15.0374 23.9443 15.1211 23.9365C15.2049 23.9286 15.2881 23.9168 15.3707 23.9011C15.4534 23.8853 15.5351 23.8657 15.6158 23.8422C15.6966 23.8186 15.7761 23.7913 15.8542 23.7603ZM26.3721 9.8457C26.063 9.7206 25.7249 9.65146 25.3707 9.65146C25.0318 9.65146 24.7075 9.71474 24.4092 9.82988L24.4092 1.47266C24.4092 0.930664 24.8487 0.491211 25.3907 0.491211C25.9327 0.491211 26.3721 0.930664 26.3721 1.47266L26.3721 9.8457ZM26.3721 14.7837L26.3721 28.4958C26.3721 29.0378 25.9327 29.4772 25.3907 29.4772C24.8487 29.4772 24.4092 29.0378 24.4092 28.4958L24.4092 14.7995C24.7075 14.9146 25.0318 14.9779 25.3707 14.9779C25.7249 14.9779 26.063 14.9088 26.3721 14.7837Z"   fill="#FFFFFF" >
</path>
<path d="M4.6292 13.2439C2.07305 13.2439 0 11.1732 0 8.61792C0 6.06235 2.07305 3.99194 4.6292 3.99194C7.18535 3.99194 9.2584 6.06235 9.2584 8.61792C9.2584 11.1732 7.18535 13.2439 4.6292 13.2439ZM14.8693 25.9113C12.3126 25.9113 10.2398 23.8385 10.2398 21.2818C10.2398 18.7253 12.3126 16.6526 14.8693 16.6526C17.4258 16.6526 19.4985 18.7253 19.4985 21.2818C19.4985 23.8385 17.4258 25.9113 14.8693 25.9113ZM25.3708 16.9409C22.8149 16.9409 20.7416 14.8702 20.7416 12.3146C20.7416 9.75903 22.8146 7.68862 25.3708 7.68862C27.927 7.68862 30.0003 9.75933 30.0003 12.3146C30.0003 14.8699 27.927 16.9409 25.3708 16.9409ZM4.6292 11.281C6.10166 11.281 7.29551 10.0886 7.29551 8.61792C7.29551 7.14722 6.10166 5.95483 4.6292 5.95483C3.15674 5.95483 1.96289 7.14722 1.96289 8.61792C1.96289 10.0886 3.15674 11.281 4.6292 11.281ZM14.8693 23.9484C16.3418 23.9484 17.5356 22.7545 17.5356 21.2818C17.5356 19.8093 16.3418 18.6155 14.8693 18.6155C13.3966 18.6155 12.2027 19.8093 12.2027 21.2818C12.2027 22.7545 13.3966 23.9484 14.8693 23.9484ZM25.3708 14.978C26.8436 14.978 28.0374 13.7856 28.0374 12.3149C28.0374 10.8442 26.8436 9.65181 25.3708 9.65181C23.8983 9.65181 22.7045 10.8442 22.7045 12.3149C22.7045 13.7856 23.8983 14.978 25.3708 14.978Z"   fill="#FFFFFF" >
</path>
</g>
<defs>
<clipPath id="clip-path-7zj2xl51LCmNb8VH6TE-G">
<path d="M0 30L30 30L30 0L0 0L0 30Z" fill="white"/>
</clipPath>
</defs>
</svg>
