<svg xmlns="http://www.w3.org/2000/svg" xmlns:xlink="http://www.w3.org/1999/xlink" width="35" height="35" viewBox="0 0 35 35" fill="none">
<path d="M28.4316 2.18555L6.56055 2.18555C4.14431 2.18555 2.18555 4.14431 2.18555 6.56055L2.18555 28.4316C2.18555 30.8478 4.14431 32.8066 6.56055 32.8066L28.4316 32.8066C30.8478 32.8066 32.8066 30.8478 32.8066 28.4316L32.8066 6.56055C32.8066 4.14431 30.8478 2.18555 28.4316 2.18555ZM30.6212 28.4376C30.6212 28.4733 30.6203 28.5091 30.6186 28.5448C30.6169 28.5805 30.6143 28.6162 30.6108 28.6518C30.6073 28.6874 30.6029 28.7229 30.5977 28.7583C30.5925 28.7937 30.5864 28.829 30.5794 28.8641C30.5725 28.8991 30.5646 28.934 30.556 28.9687C30.5473 29.0034 30.5377 29.0379 30.5274 29.0721C30.517 29.1064 30.5057 29.1403 30.4937 29.174C30.4817 29.2077 30.4688 29.2411 30.4551 29.2741C30.4414 29.3072 30.4269 29.3399 30.4116 29.3722C30.3963 29.4046 30.3803 29.4365 30.3634 29.4681C30.3465 29.4996 30.3289 29.5307 30.3105 29.5614C30.2921 29.5921 30.2729 29.6223 30.2531 29.652C30.2332 29.6818 30.2126 29.711 30.1913 29.7397C30.1699 29.7684 30.1479 29.7966 30.1252 29.8243C30.1025 29.8519 30.0791 29.879 30.0551 29.9055C30.0311 29.932 30.0063 29.9579 29.981 29.9832C29.9557 30.0084 29.9298 30.0331 29.9033 30.0571C29.8768 30.0811 29.8497 30.1044 29.822 30.1271C29.7943 30.1498 29.7661 30.1717 29.7373 30.193C29.7086 30.2143 29.6793 30.2349 29.6496 30.2547C29.6198 30.2746 29.5896 30.2937 29.5589 30.312C29.5282 30.3304 29.497 30.348 29.4654 30.3648C29.4339 30.3816 29.4019 30.3977 29.3695 30.4129C29.3372 30.4282 29.3045 30.4426 29.2714 30.4562C29.2383 30.4699 29.2049 30.4827 29.1712 30.4947C29.1375 30.5067 29.1036 30.5179 29.0693 30.5282C29.0351 30.5386 29.0006 30.548 28.9659 30.5567C28.9312 30.5653 28.8962 30.5731 28.8612 30.58C28.826 30.5869 28.7908 30.593 28.7554 30.5982C28.72 30.6033 28.6845 30.6076 28.6489 30.6111C28.6133 30.6145 28.5776 30.6171 28.5418 30.6187C28.5061 30.6204 28.4703 30.6212 28.4346 30.6212L6.56561 30.6212C5.98072 30.6212 5.42841 30.3964 5.0148 29.9828C4.60116 29.5692 4.37099 29.0224 4.37099 28.4376L4.37099 6.56263C4.37106 6.52674 4.372 6.49089 4.37383 6.45507C4.37565 6.41921 4.37835 6.38343 4.38193 6.34774C4.38551 6.31206 4.38996 6.27644 4.39529 6.24097C4.4006 6.20549 4.40679 6.17015 4.41385 6.13498C4.42089 6.09977 4.4288 6.0648 4.43757 6.03001C4.44635 5.99521 4.45596 5.96066 4.46642 5.92634C4.47688 5.89203 4.48818 5.85798 4.50033 5.82421C4.51245 5.79044 4.52539 5.75698 4.53915 5.72386C4.55294 5.69071 4.56752 5.65793 4.5829 5.62553C4.59828 5.59312 4.61444 5.5611 4.63137 5.52948C4.64832 5.49785 4.66604 5.46665 4.68452 5.43589C4.703 5.40513 4.72222 5.37485 4.74218 5.34504C4.76214 5.31521 4.78282 5.2859 4.80422 5.2571C4.82564 5.22832 4.84774 5.20006 4.87053 5.17233C4.89329 5.14462 4.91674 5.11748 4.94087 5.09092C4.96497 5.06435 4.98972 5.03838 5.01511 5.01302C5.04051 4.98766 5.06651 4.96295 5.0931 4.93888C5.11969 4.9148 5.14687 4.89139 5.17462 4.86865C5.20238 4.84588 5.23067 4.82383 5.25949 4.80247C5.28831 4.7811 5.31765 4.76046 5.3475 4.74054C5.37735 4.72062 5.40766 4.70145 5.43842 4.68302C5.46921 4.66458 5.50042 4.64691 5.53207 4.63C5.56372 4.61309 5.59577 4.59697 5.62823 4.58164C5.66063 4.5663 5.69344 4.55177 5.7266 4.53802C5.75975 4.52431 5.79321 4.5114 5.82702 4.4993C5.86079 4.48722 5.89483 4.47598 5.92918 4.46556C5.9635 4.45515 5.99809 4.44558 6.03288 4.43685C6.06768 4.42813 6.10268 4.42027 6.13788 4.41327C6.17309 4.40625 6.20843 4.40011 6.24391 4.39485C6.27938 4.38956 6.315 4.38516 6.35072 4.38165C6.3864 4.37812 6.42219 4.37547 6.45801 4.37369C6.49383 4.37191 6.52972 4.37101 6.56561 4.37099L28.4346 4.37099C28.4704 4.37103 28.5062 4.37196 28.542 4.37376C28.5778 4.37554 28.6135 4.3782 28.6492 4.38176C28.6848 4.38531 28.7203 4.38973 28.7558 4.39502C28.7912 4.40033 28.8265 4.40649 28.8616 4.41351C28.8968 4.42053 28.9317 4.42841 28.9665 4.43716C29.0012 4.44591 29.0357 4.45551 29.07 4.46594C29.1042 4.47638 29.1382 4.48764 29.172 4.49974C29.2057 4.51184 29.2391 4.52477 29.2722 4.53854C29.3053 4.55228 29.338 4.56683 29.3704 4.58219C29.4027 4.59752 29.4347 4.61365 29.4663 4.63058C29.4978 4.64751 29.529 4.66521 29.5597 4.68366C29.5904 4.70212 29.6207 4.72132 29.6504 4.74126C29.6802 4.76119 29.7095 4.78185 29.7382 4.80323C29.7669 4.8246 29.7952 4.84666 29.8229 4.8694C29.8505 4.89216 29.8776 4.9156 29.9041 4.9397C29.9306 4.96379 29.9565 4.98851 29.9819 5.01388C30.0072 5.03924 30.0318 5.0652 30.0559 5.09177C30.0799 5.11834 30.1033 5.14549 30.126 5.17322C30.1487 5.20095 30.1706 5.22922 30.192 5.25802C30.2133 5.28682 30.2338 5.31613 30.2537 5.34593C30.2736 5.37574 30.2927 5.40602 30.3111 5.43678C30.3295 5.46754 30.3471 5.49872 30.364 5.53033C30.3808 5.56196 30.3969 5.59397 30.4122 5.62638C30.4274 5.65878 30.4419 5.69153 30.4556 5.72465C30.4692 5.75777 30.4821 5.7912 30.4941 5.82497C30.5061 5.8587 30.5173 5.89271 30.5277 5.92703C30.538 5.96131 30.5476 5.99583 30.5562 6.03062C30.5649 6.06539 30.5727 6.10035 30.5796 6.13549C30.5866 6.17062 30.5927 6.20593 30.5979 6.24138C30.6031 6.27682 30.6074 6.31237 30.6109 6.34805C30.6144 6.3837 30.617 6.41942 30.6187 6.4552C30.6204 6.49099 30.6212 6.52681 30.6212 6.56263L30.6212 28.4376Z"   fill="#393E46" >
</path>
<path d="M27.0696 12.0263L18.3196 12.0263C18.3017 12.0263 18.2838 12.0267 18.266 12.0276C18.2481 12.0284 18.2303 12.0298 18.2125 12.0315C18.1947 12.0333 18.177 12.0354 18.1593 12.0381C18.1416 12.0407 18.124 12.0438 18.1064 12.0472C18.0889 12.0507 18.0714 12.0546 18.0541 12.059C18.0368 12.0633 18.0195 12.0681 18.0024 12.0733C17.9853 12.0785 17.9683 12.0841 17.9515 12.0901C17.9346 12.0961 17.9179 12.1026 17.9014 12.1094C17.8849 12.1163 17.8686 12.1235 17.8524 12.1312C17.8362 12.1388 17.8203 12.1469 17.8045 12.1553C17.7887 12.1637 17.7732 12.1725 17.7578 12.1817C17.7425 12.1909 17.7274 12.2004 17.7125 12.2104C17.6977 12.2203 17.683 12.2306 17.6687 12.2413C17.6543 12.2519 17.6402 12.2629 17.6264 12.2743C17.6126 12.2856 17.599 12.2973 17.5858 12.3093C17.5725 12.3213 17.5596 12.3336 17.5469 12.3463C17.5343 12.3589 17.5219 12.3719 17.5099 12.3851C17.4979 12.3984 17.4863 12.4119 17.4749 12.4258C17.4636 12.4396 17.4526 12.4537 17.4419 12.468C17.4313 12.4824 17.421 12.497 17.411 12.5119C17.4011 12.5268 17.3915 12.5419 17.3824 12.5572C17.3732 12.5725 17.3643 12.5881 17.3559 12.6039C17.3475 12.6196 17.3394 12.6356 17.3318 12.6518C17.3241 12.6679 17.3169 12.6843 17.3101 12.7008C17.3032 12.7173 17.2968 12.734 17.2908 12.7508C17.2847 12.7677 17.2791 12.7846 17.2739 12.8018C17.2687 12.8189 17.264 12.8361 17.2596 12.8535C17.2553 12.8708 17.2514 12.8883 17.2479 12.9058C17.2444 12.9233 17.2413 12.9409 17.2387 12.9586C17.2361 12.9763 17.2339 12.9941 17.2321 13.0119C17.2304 13.0297 17.2291 13.0475 17.2282 13.0654C17.2273 13.0832 17.2269 13.1011 17.2269 13.119C17.2269 13.1368 17.2273 13.1547 17.2282 13.1726C17.2291 13.1904 17.2304 13.2083 17.2321 13.2261C17.2339 13.2439 17.2361 13.2616 17.2387 13.2793C17.2413 13.297 17.2444 13.3146 17.2479 13.3322C17.2514 13.3497 17.2553 13.3671 17.2596 13.3845C17.264 13.4018 17.2687 13.4191 17.2739 13.4362C17.2791 13.4533 17.2847 13.4703 17.2908 13.4871C17.2968 13.5039 17.3032 13.5206 17.3101 13.5371C17.3169 13.5537 17.3241 13.57 17.3318 13.5862C17.3394 13.6023 17.3475 13.6183 17.3559 13.6341C17.3643 13.6499 17.3732 13.6654 17.3824 13.6808C17.3915 13.6961 17.4011 13.7112 17.411 13.726C17.421 13.7409 17.4313 13.7555 17.4419 13.7699C17.4526 13.7843 17.4636 13.7984 17.4749 13.8122C17.4863 13.826 17.4979 13.8396 17.5099 13.8528C17.5219 13.866 17.5343 13.879 17.5469 13.8916C17.5596 13.9043 17.5725 13.9166 17.5858 13.9286C17.599 13.9407 17.6126 13.9523 17.6264 13.9637C17.6402 13.975 17.6543 13.986 17.6687 13.9966C17.683 14.0073 17.6977 14.0176 17.7125 14.0275C17.7274 14.0375 17.7425 14.0471 17.7578 14.0562C17.7732 14.0654 17.7887 14.0743 17.8045 14.0827C17.8203 14.0911 17.8362 14.0991 17.8524 14.1068C17.8686 14.1144 17.8849 14.1217 17.9014 14.1285C17.9179 14.1354 17.9346 14.1418 17.9515 14.1478C17.9683 14.1538 17.9853 14.1594 18.0024 14.1646C18.0195 14.1698 18.0368 14.1746 18.0541 14.179C18.0714 14.1833 18.0889 14.1872 18.1064 14.1907C18.124 14.1942 18.1416 14.1973 18.1593 14.1999C18.177 14.2025 18.1947 14.2047 18.2125 14.2064C18.2303 14.2082 18.2481 14.2095 18.266 14.2104C18.2838 14.2113 18.3017 14.2117 18.3196 14.2117L27.0696 14.2117C27.0874 14.2117 27.1053 14.2113 27.1232 14.2104C27.1411 14.2095 27.1589 14.2082 27.1767 14.2064C27.1945 14.2047 27.2122 14.2025 27.2299 14.1999C27.2476 14.1973 27.2652 14.1942 27.2827 14.1907C27.3003 14.1872 27.3177 14.1833 27.3351 14.179C27.3524 14.1746 27.3697 14.1698 27.3868 14.1646C27.4039 14.1594 27.4209 14.1538 27.4377 14.1478C27.4546 14.1418 27.4712 14.1353 27.4878 14.1285C27.5043 14.1217 27.5206 14.1144 27.5368 14.1068C27.5529 14.0991 27.5689 14.0911 27.5847 14.0827C27.6004 14.0743 27.616 14.0654 27.6313 14.0562C27.6467 14.0471 27.6618 14.0375 27.6767 14.0275C27.6915 14.0176 27.7061 14.0073 27.7205 13.9966C27.7349 13.986 27.749 13.975 27.7628 13.9637C27.7766 13.9523 27.7902 13.9407 27.8034 13.9286C27.8167 13.9166 27.8296 13.9043 27.8423 13.8916C27.8549 13.879 27.8672 13.866 27.8792 13.8528C27.8912 13.8396 27.9029 13.826 27.9143 13.8122C27.9256 13.7984 27.9366 13.7843 27.9473 13.7699C27.9579 13.7555 27.9682 13.7409 27.9781 13.726C27.9881 13.7112 27.9976 13.6961 28.0068 13.6808C28.016 13.6654 28.0248 13.6499 28.0333 13.6341C28.0417 13.6183 28.0497 13.6023 28.0574 13.5862C28.065 13.57 28.0723 13.5537 28.0791 13.5371C28.086 13.5206 28.0924 13.5039 28.0984 13.4871C28.1045 13.4703 28.1101 13.4533 28.1153 13.4362C28.1205 13.4191 28.1252 13.4018 28.1295 13.3845C28.1339 13.3671 28.1378 13.3497 28.1413 13.3322C28.1448 13.3146 28.1478 13.297 28.1505 13.2793C28.1531 13.2616 28.1553 13.2439 28.157 13.2261C28.1588 13.2083 28.1601 13.1904 28.161 13.1726C28.1618 13.1547 28.1623 13.1368 28.1623 13.119C28.1623 13.1011 28.1618 13.0832 28.161 13.0654C28.1601 13.0475 28.1588 13.0297 28.1571 13.0119C28.1553 12.9941 28.1531 12.9763 28.1505 12.9586C28.1478 12.9409 28.1448 12.9233 28.1413 12.9058C28.1378 12.8883 28.1339 12.8708 28.1295 12.8535C28.1252 12.8361 28.1205 12.8189 28.1153 12.8018C28.1101 12.7846 28.1045 12.7677 28.0984 12.7508C28.0924 12.734 28.086 12.7173 28.0791 12.7008C28.0723 12.6843 28.065 12.6679 28.0574 12.6518C28.0497 12.6356 28.0417 12.6196 28.0333 12.6039C28.0248 12.5881 28.016 12.5725 28.0068 12.5572C27.9976 12.5419 27.9881 12.5268 27.9781 12.5119C27.9682 12.497 27.9579 12.4824 27.9473 12.468C27.9366 12.4537 27.9256 12.4396 27.9143 12.4258C27.9029 12.4119 27.8912 12.3984 27.8792 12.3851C27.8672 12.3719 27.8549 12.3589 27.8423 12.3463C27.8296 12.3336 27.8167 12.3213 27.8034 12.3093C27.7902 12.2973 27.7766 12.2856 27.7628 12.2743C27.749 12.2629 27.7349 12.2519 27.7205 12.2413C27.7061 12.2306 27.6915 12.2204 27.6767 12.2104C27.6618 12.2005 27.6467 12.1909 27.6313 12.1817C27.616 12.1725 27.6004 12.1637 27.5847 12.1553C27.5689 12.1469 27.5529 12.1388 27.5368 12.1312C27.5206 12.1235 27.5043 12.1163 27.4878 12.1094C27.4712 12.1026 27.4546 12.0961 27.4377 12.0901C27.4209 12.0841 27.4039 12.0785 27.3868 12.0733C27.3697 12.0681 27.3524 12.0633 27.3351 12.059C27.3177 12.0546 27.3003 12.0507 27.2827 12.0472C27.2652 12.0438 27.2476 12.0407 27.2299 12.0381C27.2122 12.0354 27.1945 12.0333 27.1767 12.0315C27.1589 12.0298 27.1411 12.0284 27.1232 12.0276C27.1053 12.0267 27.0874 12.0263 27.0696 12.0263ZM27.0696 20.7804L18.3196 20.7804C18.3017 20.7804 18.2838 20.7809 18.266 20.7817C18.2481 20.7826 18.2303 20.7839 18.2125 20.7856C18.1947 20.7874 18.177 20.7896 18.1593 20.7922C18.1416 20.7949 18.124 20.7979 18.1064 20.8014C18.0889 20.8049 18.0714 20.8088 18.0541 20.8132C18.0368 20.8175 18.0195 20.8223 18.0024 20.8274C17.9853 20.8326 17.9683 20.8383 17.9515 20.8443C17.9346 20.8503 17.9179 20.8567 17.9014 20.8636C17.8849 20.8704 17.8686 20.8777 17.8524 20.8853C17.8362 20.893 17.8203 20.901 17.8045 20.9094C17.7887 20.9179 17.7732 20.9267 17.7578 20.9359C17.7425 20.9451 17.7274 20.9546 17.7125 20.9645C17.6977 20.9745 17.683 20.9848 17.6687 20.9954C17.6543 21.0061 17.6402 21.0171 17.6264 21.0284C17.6126 21.0398 17.599 21.0515 17.5858 21.0635C17.5725 21.0755 17.5596 21.0878 17.5469 21.1004C17.5343 21.1131 17.5219 21.126 17.5099 21.1393C17.4979 21.1526 17.4863 21.1661 17.4749 21.1799C17.4636 21.1938 17.4526 21.2078 17.4419 21.2222C17.4313 21.2365 17.421 21.2512 17.411 21.266C17.4011 21.2809 17.3915 21.296 17.3824 21.3114C17.3732 21.3267 17.3643 21.3423 17.3559 21.358C17.3475 21.3738 17.3394 21.3898 17.3318 21.4059C17.3241 21.4221 17.3169 21.4384 17.3101 21.455C17.3032 21.4715 17.2968 21.4882 17.2908 21.505C17.2847 21.5218 17.2791 21.5388 17.2739 21.5559C17.2687 21.573 17.264 21.5903 17.2596 21.6076C17.2553 21.625 17.2514 21.6424 17.2479 21.6599C17.2444 21.6775 17.2413 21.6951 17.2387 21.7128C17.2361 21.7305 17.2339 21.7483 17.2321 21.766C17.2304 21.7838 17.2291 21.8017 17.2282 21.8195C17.2273 21.8374 17.2269 21.8553 17.2269 21.8731C17.2269 21.891 17.2273 21.9089 17.2282 21.9267C17.2291 21.9446 17.2304 21.9625 17.2321 21.9802C17.2339 21.998 17.2361 22.0158 17.2387 22.0335C17.2413 22.0512 17.2444 22.0688 17.2479 22.0863C17.2514 22.1039 17.2553 22.1213 17.2596 22.1387C17.264 22.156 17.2687 22.1732 17.2739 22.1903C17.2791 22.2075 17.2847 22.2244 17.2908 22.2413C17.2968 22.2581 17.3032 22.2748 17.3101 22.2913C17.3169 22.3078 17.3241 22.3242 17.3318 22.3403C17.3394 22.3565 17.3475 22.3725 17.3559 22.3882C17.3643 22.404 17.3732 22.4196 17.3824 22.4349C17.3915 22.4503 17.4011 22.4654 17.411 22.4802C17.421 22.4951 17.4313 22.5097 17.4419 22.5241C17.4526 22.5384 17.4636 22.5525 17.4749 22.5663C17.4863 22.5802 17.4979 22.5937 17.5099 22.6069C17.5219 22.6202 17.5343 22.6332 17.5469 22.6458C17.5596 22.6585 17.5725 22.6708 17.5858 22.6828C17.599 22.6948 17.6126 22.7065 17.6264 22.7178C17.6402 22.7292 17.6543 22.7402 17.6687 22.7508C17.683 22.7615 17.6977 22.7718 17.7125 22.7817C17.7274 22.7917 17.7425 22.8012 17.7578 22.8104C17.7732 22.8196 17.7887 22.8284 17.8045 22.8368C17.8203 22.8453 17.8362 22.8533 17.8524 22.8609C17.8686 22.8686 17.8849 22.8758 17.9014 22.8827C17.9179 22.8895 17.9346 22.896 17.9515 22.902C17.9683 22.908 17.9853 22.9136 18.0024 22.9188C18.0195 22.924 18.0368 22.9288 18.0541 22.9331C18.0714 22.9375 18.0889 22.9414 18.1064 22.9448C18.124 22.9483 18.1416 22.9514 18.1593 22.954C18.177 22.9567 18.1947 22.9589 18.2125 22.9606C18.2303 22.9624 18.2481 22.9637 18.266 22.9645C18.2838 22.9654 18.3017 22.9659 18.3196 22.9659L27.0696 22.9659C27.0874 22.9659 27.1053 22.9654 27.1232 22.9645C27.1411 22.9637 27.1589 22.9624 27.1767 22.9606C27.1945 22.9589 27.2122 22.9567 27.2299 22.954C27.2476 22.9514 27.2652 22.9483 27.2827 22.9448C27.3003 22.9414 27.3177 22.9375 27.3351 22.9331C27.3524 22.9288 27.3697 22.924 27.3868 22.9188C27.4039 22.9136 27.4209 22.908 27.4377 22.902C27.4546 22.896 27.4712 22.8895 27.4878 22.8827C27.5043 22.8758 27.5206 22.8686 27.5368 22.8609C27.5529 22.8533 27.5689 22.8453 27.5847 22.8368C27.6004 22.8284 27.616 22.8196 27.6313 22.8104C27.6467 22.8012 27.6618 22.7917 27.6767 22.7817C27.6915 22.7718 27.7061 22.7615 27.7205 22.7508C27.7349 22.7402 27.749 22.7292 27.7628 22.7178C27.7766 22.7065 27.7902 22.6948 27.8034 22.6828C27.8167 22.6708 27.8296 22.6585 27.8423 22.6458C27.8549 22.6332 27.8672 22.6202 27.8792 22.6069C27.8912 22.5937 27.9029 22.5802 27.9143 22.5663C27.9256 22.5525 27.9366 22.5384 27.9473 22.5241C27.9579 22.5097 27.9682 22.4951 27.9781 22.4802C27.9881 22.4654 27.9976 22.4503 28.0068 22.4349C28.016 22.4196 28.0248 22.404 28.0333 22.3882C28.0417 22.3725 28.0497 22.3565 28.0574 22.3403C28.065 22.3242 28.0723 22.3078 28.0791 22.2913C28.086 22.2748 28.0924 22.2581 28.0984 22.2413C28.1045 22.2244 28.1101 22.2075 28.1153 22.1903C28.1205 22.1732 28.1252 22.156 28.1295 22.1387C28.1339 22.1213 28.1378 22.1039 28.1413 22.0863C28.1448 22.0688 28.1478 22.0512 28.1505 22.0334C28.1531 22.0158 28.1553 21.998 28.157 21.9802C28.1588 21.9625 28.1601 21.9446 28.161 21.9267C28.1618 21.9089 28.1623 21.891 28.1623 21.8731C28.1623 21.8553 28.1618 21.8374 28.161 21.8195C28.1601 21.8017 28.1588 21.7838 28.1571 21.766C28.1553 21.7483 28.1531 21.7305 28.1505 21.7128C28.1478 21.6951 28.1448 21.6775 28.1413 21.6599C28.1378 21.6424 28.1339 21.625 28.1295 21.6076C28.1252 21.5903 28.1205 21.573 28.1153 21.5559C28.1101 21.5388 28.1045 21.5218 28.0984 21.505C28.0924 21.4882 28.086 21.4715 28.0791 21.455C28.0723 21.4384 28.065 21.4221 28.0574 21.4059C28.0497 21.3898 28.0417 21.3738 28.0333 21.358C28.0248 21.3423 28.016 21.3267 28.0068 21.3114C27.9976 21.296 27.9881 21.2809 27.9781 21.266C27.9682 21.2512 27.9579 21.2365 27.9473 21.2222C27.9366 21.2078 27.9256 21.1938 27.9143 21.1799C27.9029 21.1661 27.8912 21.1526 27.8792 21.1393C27.8672 21.126 27.8549 21.1131 27.8423 21.1004C27.8296 21.0878 27.8167 21.0755 27.8034 21.0635C27.7902 21.0515 27.7766 21.0398 27.7628 21.0284C27.749 21.0171 27.7349 21.0061 27.7205 20.9954C27.7061 20.9848 27.6915 20.9745 27.6767 20.9645C27.6618 20.9546 27.6467 20.9451 27.6313 20.9359C27.616 20.9267 27.6004 20.9179 27.5847 20.9094C27.5689 20.901 27.5529 20.893 27.5368 20.8853C27.5206 20.8777 27.5043 20.8704 27.4878 20.8636C27.4712 20.8567 27.4546 20.8503 27.4377 20.8443C27.4209 20.8383 27.4039 20.8326 27.3868 20.8274C27.3697 20.8223 27.3524 20.8175 27.3351 20.8132C27.3177 20.8088 27.3003 20.8049 27.2827 20.8014C27.2652 20.7979 27.2476 20.7949 27.2299 20.7922C27.2122 20.7896 27.1945 20.7874 27.1767 20.7856C27.1589 20.7839 27.1411 20.7826 27.1232 20.7817C27.1053 20.7809 27.0874 20.7804 27.0696 20.7804ZM11.7572 18.0469C9.64298 18.0469 7.92955 19.7608 7.92955 21.8745C7.92955 23.9882 9.64346 25.7021 11.7572 25.7021C13.8709 25.7021 15.5848 23.9882 15.5848 21.8745C15.5848 19.7608 13.8714 18.0469 11.7572 18.0469ZM12.9187 23.0365C12.8965 23.0587 12.8737 23.0802 12.8503 23.101C12.8269 23.1219 12.8029 23.142 12.7783 23.1615C12.7537 23.181 12.7287 23.1998 12.703 23.2178C12.6773 23.2359 12.6512 23.2531 12.6246 23.2697C12.5979 23.2862 12.5708 23.302 12.5433 23.317C12.5158 23.332 12.4878 23.3462 12.4595 23.3596C12.4312 23.3729 12.4024 23.3855 12.3734 23.3973C12.3443 23.409 12.3149 23.4199 12.2852 23.43C12.2555 23.4401 12.2256 23.4493 12.1953 23.4576C12.1651 23.466 12.1347 23.4735 12.104 23.48C12.0734 23.4867 12.0426 23.4924 12.0116 23.4972C11.9806 23.5021 11.9495 23.506 11.9183 23.5091C11.8871 23.5122 11.8558 23.5143 11.8245 23.5156C11.7932 23.5168 11.7618 23.5172 11.7305 23.5167C11.6991 23.5162 11.6678 23.5147 11.6365 23.5124C11.6053 23.5101 11.5741 23.5069 11.543 23.5028C11.5119 23.4987 11.481 23.4937 11.4502 23.4878C11.4194 23.4819 11.3888 23.4752 11.3584 23.4675C11.328 23.4599 11.2978 23.4514 11.2678 23.442C11.2379 23.4327 11.2083 23.4225 11.1789 23.4114C11.1496 23.4004 11.1206 23.3885 11.092 23.3758C11.0633 23.363 11.035 23.3495 11.0071 23.3352C10.9793 23.3208 10.9518 23.3057 10.9248 23.2898C10.8977 23.2739 10.8712 23.2572 10.8451 23.2398C10.8191 23.2224 10.7936 23.2042 10.7685 23.1853C10.7435 23.1664 10.719 23.1468 10.6951 23.1265C10.6712 23.1062 10.6479 23.0853 10.6252 23.0636C10.6025 23.042 10.5805 23.0197 10.5591 22.9968C10.5376 22.974 10.5169 22.9505 10.4968 22.9264C10.4767 22.9023 10.4573 22.8777 10.4387 22.8525C10.42 22.8273 10.4021 22.8016 10.3849 22.7754C10.3677 22.7492 10.3512 22.7225 10.3356 22.6953C10.3199 22.6682 10.305 22.6405 10.291 22.6125C10.2769 22.5845 10.2636 22.5561 10.2511 22.5273C10.2387 22.4986 10.227 22.4695 10.2162 22.44C10.2054 22.4106 10.1955 22.3809 10.1864 22.3509C10.1773 22.3209 10.1691 22.2906 10.1617 22.2601C10.1544 22.2297 10.1479 22.199 10.1423 22.1681C10.1367 22.1373 10.132 22.1063 10.1282 22.0752C10.1243 22.0441 10.1214 22.0129 10.1193 21.9816C10.1173 21.9503 10.1162 21.919 10.1159 21.8876C10.1157 21.8563 10.1163 21.8249 10.1179 21.7936C10.1194 21.7623 10.1219 21.731 10.1252 21.6999C10.1285 21.6687 10.1328 21.6376 10.1379 21.6067C10.143 21.5758 10.149 21.545 10.1559 21.5144C10.1628 21.4838 10.1705 21.4535 10.1792 21.4233C10.1878 21.3932 10.1972 21.3633 10.2076 21.3337C10.2179 21.3041 10.2291 21.2748 10.2411 21.2458C10.2531 21.2169 10.2659 21.1883 10.2795 21.16C10.2932 21.1318 10.3076 21.104 10.3229 21.0766C10.3381 21.0492 10.3541 21.0222 10.3709 20.9958C10.3877 20.9693 10.4052 20.9433 10.4235 20.9178C10.4418 20.8923 10.4608 20.8674 10.4804 20.843C10.5002 20.8186 10.5205 20.7948 10.5416 20.7715C10.5627 20.7483 10.5844 20.7257 10.6067 20.7037C10.6291 20.6818 10.6521 20.6604 10.6756 20.6398C10.6992 20.6191 10.7234 20.5991 10.7481 20.5798C10.7728 20.5605 10.7981 20.542 10.8239 20.5241C10.8497 20.5063 10.8759 20.4892 10.9027 20.4729C10.9295 20.4566 10.9567 20.441 10.9843 20.4263C11.012 20.4115 11.04 20.3975 11.0685 20.3843C11.097 20.3712 11.1258 20.3588 11.155 20.3473C11.1841 20.3358 11.2136 20.3251 11.2433 20.3153C11.2731 20.3055 11.3032 20.2965 11.3334 20.2884C11.3637 20.2803 11.3942 20.2731 11.4249 20.2667C11.4556 20.2603 11.4865 20.2549 11.5175 20.2503C11.5485 20.2457 11.5797 20.242 11.6109 20.2391C11.6421 20.2363 11.6734 20.2344 11.7047 20.2334C11.7361 20.2324 11.7674 20.2323 11.7988 20.2331C11.8301 20.2339 11.8614 20.2355 11.8927 20.2381C11.9239 20.2407 11.955 20.2441 11.9861 20.2485C12.0172 20.2529 12.0481 20.2581 12.0788 20.2642C12.1096 20.2703 12.1401 20.2773 12.1705 20.2852C12.2008 20.2931 12.2309 20.3018 12.2608 20.3114C12.2906 20.321 12.3202 20.3314 12.3494 20.3427C12.3787 20.354 12.4076 20.3662 12.4361 20.3791C12.4647 20.392 12.4928 20.4058 12.5206 20.4203C12.5484 20.4349 12.5757 20.4502 12.6026 20.4664C12.6295 20.4825 12.6559 20.4994 12.6818 20.517C12.7078 20.5347 12.7332 20.553 12.758 20.5721C12.7829 20.5912 12.8072 20.611 12.8309 20.6315C12.8547 20.652 12.8778 20.6731 12.9003 20.6949C12.9229 20.7167 12.9447 20.7392 12.966 20.7622C12.9872 20.7853 13.0078 20.809 13.0277 20.8332C13.0475 20.8575 13.0667 20.8822 13.0852 20.9076C13.1037 20.9329 13.1214 20.9588 13.1384 20.9851C13.1554 21.0115 13.1716 21.0383 13.187 21.0656C13.2025 21.0929 13.2171 21.1206 13.231 21.1487C13.2449 21.1768 13.2579 21.2053 13.2702 21.2342C13.2824 21.2631 13.2938 21.2923 13.3043 21.3218C13.3149 21.3513 13.3246 21.3811 13.3334 21.4112C13.3423 21.4412 13.3503 21.4716 13.3574 21.5021C13.3645 21.5326 13.3707 21.5633 13.3761 21.5942C13.3815 21.6251 13.3859 21.6562 13.3895 21.6873C13.3931 21.7185 13.3958 21.7497 13.3975 21.781C13.3994 21.8123 13.4002 21.8436 13.4002 21.875C13.4003 21.9019 13.3997 21.9288 13.3984 21.9556C13.3972 21.9825 13.3953 22.0093 13.3927 22.0361C13.3901 22.0629 13.3869 22.0896 13.3829 22.1162C13.379 22.1428 13.3745 22.1693 13.3692 22.1957C13.364 22.222 13.3582 22.2483 13.3516 22.2744C13.3451 22.3005 13.338 22.3264 13.3302 22.3522C13.3224 22.3779 13.3139 22.4035 13.3049 22.4288C13.2958 22.4541 13.2861 22.4792 13.2758 22.504C13.2655 22.5289 13.2546 22.5535 13.2431 22.5778C13.2316 22.6021 13.2195 22.6261 13.2068 22.6498C13.1941 22.6735 13.1808 22.6969 13.1669 22.7199C13.1531 22.743 13.1387 22.7657 13.1237 22.788C13.1087 22.8104 13.0932 22.8324 13.0771 22.8539C13.0611 22.8755 13.0445 22.8967 13.0273 22.9174C13.0102 22.9381 12.9926 22.9585 12.9745 22.9783C12.9564 22.9982 12.9378 23.0177 12.9187 23.0366L12.9187 23.0365ZM14.2658 10.1649L10.6633 13.7672L9.24861 12.3523C9.23597 12.3397 9.22301 12.3273 9.20975 12.3153C9.19651 12.3033 9.18298 12.2916 9.16915 12.2802C9.15534 12.2689 9.14124 12.2579 9.12687 12.2472C9.11251 12.2366 9.09789 12.2263 9.08301 12.2163C9.06816 12.2064 9.05306 12.1968 9.03772 12.1876C9.02237 12.1784 9.00681 12.1696 8.99104 12.1611C8.97527 12.1527 8.9593 12.1447 8.94312 12.137C8.92696 12.1293 8.91062 12.1221 8.8941 12.1152C8.87756 12.1084 8.86087 12.1019 8.84403 12.0959C8.82719 12.0899 8.81021 12.0843 8.7931 12.0791C8.77599 12.0739 8.75875 12.0691 8.74139 12.0647C8.72405 12.0604 8.70661 12.0565 8.68906 12.053C8.67151 12.0495 8.65389 12.0464 8.63618 12.0438C8.6185 12.0411 8.60076 12.039 8.58296 12.0372C8.56515 12.0354 8.5473 12.0341 8.52944 12.0332C8.51158 12.0323 8.4937 12.0319 8.47581 12.0319C8.45792 12.0319 8.44005 12.0323 8.42218 12.0332C8.40432 12.0341 8.38648 12.0354 8.36866 12.0371C8.35086 12.0389 8.33311 12.0411 8.3154 12.0437C8.29772 12.0463 8.28011 12.0494 8.26256 12.0529C8.24502 12.0563 8.22756 12.0603 8.2102 12.0646C8.19284 12.0689 8.1756 12.0737 8.15849 12.0789C8.14138 12.0841 8.1244 12.0897 8.10756 12.0957C8.0907 12.1017 8.07401 12.1082 8.05749 12.115C8.04097 12.1219 8.02462 12.1291 8.00844 12.1368C7.99226 12.1444 7.97629 12.1525 7.96052 12.1609C7.94473 12.1693 7.92916 12.1781 7.91383 12.1873C7.8985 12.1965 7.88339 12.2061 7.86851 12.216C7.85363 12.226 7.839 12.2363 7.82462 12.2469C7.81026 12.2576 7.79617 12.2686 7.78234 12.2799C7.76851 12.2913 7.75496 12.3029 7.7417 12.315C7.72846 12.327 7.71551 12.3393 7.70284 12.352C7.69019 12.3646 7.67786 12.3776 7.66586 12.3908C7.65385 12.4041 7.64217 12.4176 7.63082 12.4314C7.61947 12.4453 7.60847 12.4594 7.5978 12.4737C7.58716 12.4881 7.57686 12.5027 7.56691 12.5176C7.55697 12.5325 7.54741 12.5476 7.53823 12.5629C7.52902 12.5783 7.5202 12.5938 7.51177 12.6096C7.50334 12.6254 7.49531 12.6414 7.48768 12.6575C7.48002 12.6737 7.47277 12.6901 7.46594 12.7066C7.45908 12.7231 7.45264 12.7398 7.44663 12.7566C7.44059 12.7735 7.43498 12.7905 7.42981 12.8076C7.42461 12.8247 7.41984 12.842 7.41549 12.8593C7.41116 12.8767 7.40725 12.8941 7.40377 12.9117C7.40028 12.9292 7.39723 12.9468 7.39461 12.9645C7.39198 12.9822 7.3898 13 7.38804 13.0178C7.38629 13.0356 7.38498 13.0534 7.38411 13.0713C7.38322 13.0891 7.38279 13.107 7.38281 13.1249C7.38281 13.1428 7.38325 13.1607 7.38411 13.1786C7.385 13.1964 7.38632 13.2143 7.38808 13.2321C7.38983 13.2498 7.39203 13.2676 7.39467 13.2853C7.39729 13.303 7.40036 13.3206 7.40387 13.3381C7.40735 13.3557 7.41127 13.3731 7.41563 13.3905C7.41998 13.4079 7.42475 13.4251 7.42995 13.4422C7.43514 13.4593 7.44076 13.4763 7.4468 13.4931C7.45284 13.51 7.45929 13.5267 7.46614 13.5432C7.47298 13.5597 7.48023 13.5761 7.48788 13.5922C7.49554 13.6084 7.50359 13.6244 7.51205 13.6401C7.52048 13.6559 7.5293 13.6715 7.5385 13.6868C7.54771 13.7021 7.55728 13.7173 7.56721 13.7321C7.57717 13.747 7.58747 13.7616 7.59811 13.776C7.60878 13.7903 7.61979 13.8044 7.63116 13.8183C7.64251 13.8321 7.6542 13.8456 7.66623 13.8589C7.67824 13.8721 7.69058 13.885 7.70325 13.8977L9.89065 16.0853C9.90329 16.0979 9.91625 16.1102 9.92951 16.1222C9.94275 16.1343 9.95628 16.1459 9.97011 16.1573C9.98394 16.1686 9.99804 16.1796 10.0124 16.1903C10.0268 16.2009 10.0414 16.2112 10.0562 16.2212C10.0711 16.2311 10.0862 16.2407 10.1016 16.2499C10.1169 16.2591 10.1325 16.2679 10.1482 16.2763C10.164 16.2847 10.18 16.2928 10.1961 16.3004C10.2123 16.3081 10.2286 16.3153 10.2452 16.3221C10.2617 16.329 10.2784 16.3354 10.2952 16.3414C10.312 16.3475 10.329 16.3531 10.3462 16.3583C10.3633 16.3634 10.3805 16.3682 10.3978 16.3726C10.4152 16.3769 10.4326 16.3808 10.4502 16.3843C10.4677 16.3878 10.4853 16.3909 10.503 16.3935C10.5207 16.3961 10.5384 16.3983 10.5562 16.4001C10.574 16.4018 10.5919 16.4031 10.6097 16.404C10.6276 16.4049 10.6455 16.4053 10.6633 16.4053C10.6812 16.4053 10.6991 16.4049 10.717 16.404C10.7348 16.4031 10.7527 16.4018 10.7705 16.4001C10.7883 16.3983 10.806 16.3961 10.8237 16.3935C10.8414 16.3909 10.859 16.3878 10.8765 16.3843C10.8941 16.3808 10.9115 16.3769 10.9289 16.3726C10.9462 16.3682 10.9634 16.3634 10.9806 16.3583C10.9977 16.3531 11.0146 16.3475 11.0315 16.3414C11.0483 16.3354 11.065 16.329 11.0815 16.3221C11.098 16.3153 11.1144 16.3081 11.1305 16.3004C11.1467 16.2928 11.1627 16.2847 11.1785 16.2763C11.1942 16.2679 11.2098 16.2591 11.2251 16.2499C11.2405 16.2407 11.2556 16.2311 11.2704 16.2212C11.2853 16.2112 11.2999 16.2009 11.3143 16.1903C11.3287 16.1796 11.3427 16.1686 11.3566 16.1573C11.3704 16.1459 11.384 16.1343 11.3972 16.1222C11.4104 16.1102 11.4234 16.0979 11.436 16.0853L15.811 11.7103C15.8235 11.6976 15.8357 11.6846 15.8476 11.6714C15.8594 11.6581 15.871 11.6445 15.8822 11.6307C15.8934 11.6169 15.9043 11.6028 15.9148 11.5884C15.9253 11.574 15.9355 11.5594 15.9453 11.5446C15.9551 11.5297 15.9645 11.5146 15.9736 11.4993C15.9827 11.4839 15.9913 11.4684 15.9996 11.4527C16.008 11.4369 16.0159 11.421 16.0234 11.4048C16.031 11.3887 16.0381 11.3724 16.0448 11.3559C16.0515 11.3394 16.0579 11.3228 16.0638 11.306C16.0697 11.2892 16.0752 11.2723 16.0803 11.2552C16.0854 11.2381 16.0901 11.2209 16.0943 11.2037C16.0986 11.1864 16.1024 11.169 16.1058 11.1515C16.1092 11.134 16.1122 11.1165 16.1147 11.0989C16.1173 11.0812 16.1193 11.0635 16.121 11.0458C16.1227 11.0281 16.124 11.0103 16.1248 10.9926C16.1256 10.9748 16.1259 10.957 16.1259 10.9392C16.1258 10.9214 16.1253 10.9036 16.1244 10.8858C16.1235 10.868 16.1221 10.8502 16.1203 10.8325C16.1185 10.8148 16.1163 10.7972 16.1136 10.7796C16.111 10.7619 16.1079 10.7444 16.1044 10.727C16.1009 10.7095 16.0969 10.6921 16.0925 10.6749C16.0882 10.6576 16.0834 10.6405 16.0782 10.6235C16.073 10.6064 16.0674 10.5895 16.0613 10.5728C16.0553 10.556 16.0489 10.5394 16.042 10.523C16.0352 10.5065 16.028 10.4903 16.0203 10.4742C16.0127 10.4581 16.0046 10.4422 15.9962 10.4265C15.9878 10.4108 15.979 10.3954 15.9699 10.3801C15.9607 10.3648 15.9511 10.3498 15.9412 10.335C15.9314 10.3202 15.9211 10.3057 15.9105 10.2914C15.8998 10.2771 15.8889 10.263 15.8776 10.2493C15.8663 10.2355 15.8547 10.2221 15.8427 10.2089C15.8307 10.1957 15.8185 10.1828 15.8059 10.1702C15.7933 10.1576 15.7804 10.1453 15.7672 10.1334C15.754 10.1214 15.7406 10.1098 15.7268 10.0985C15.713 10.0872 15.699 10.0762 15.6847 10.0656C15.6704 10.055 15.6559 10.0447 15.6411 10.0348C15.6263 10.0249 15.6112 10.0153 15.596 10.0062C15.5807 9.99699 15.5652 9.98819 15.5495 9.97978C15.5338 9.97138 15.518 9.96336 15.5019 9.95572C15.4858 9.94806 15.4695 9.94082 15.4531 9.93398C15.4366 9.92715 15.4201 9.92071 15.4033 9.91467C15.3865 9.90863 15.3696 9.90302 15.3526 9.89782C15.3356 9.89263 15.3184 9.88784 15.3012 9.88347C15.2839 9.87909 15.2666 9.87515 15.2491 9.87164C15.2316 9.86811 15.2141 9.86502 15.1965 9.86238C15.1789 9.85971 15.1613 9.85748 15.1436 9.85568C15.1258 9.85388 15.1081 9.85251 15.0903 9.85158C15.0725 9.85064 15.0547 9.85015 15.0369 9.85011C15.0191 9.85004 15.0013 9.8504 14.9835 9.8512C14.9657 9.85202 14.948 9.85327 14.9302 9.85496C14.9125 9.85662 14.8948 9.85873 14.8772 9.86128C14.8596 9.86381 14.842 9.86677 14.8246 9.87017C14.8071 9.87359 14.7897 9.87742 14.7724 9.88165C14.7551 9.88589 14.7379 9.89056 14.7209 9.89567C14.7038 9.90075 14.6869 9.90625 14.6701 9.91218C14.6533 9.91808 14.6367 9.9244 14.6202 9.93115C14.6037 9.93787 14.5874 9.945 14.5712 9.95254C14.5551 9.96006 14.5392 9.96797 14.5234 9.97626C14.5076 9.98458 14.4921 9.99327 14.4768 10.0023C14.4615 10.0114 14.4464 10.0208 14.4315 10.0306C14.4167 10.0404 14.402 10.0506 14.3877 10.0611C14.3733 10.0717 14.3592 10.0825 14.3454 10.0937C14.3315 10.1049 14.318 10.1165 14.3047 10.1283C14.2914 10.1402 14.2785 10.1524 14.2658 10.1649Z"   fill="#393E46" >
</path>
</svg>
