<svg xmlns="http://www.w3.org/2000/svg" xmlns:xlink="http://www.w3.org/1999/xlink" width="40" height="40" viewBox="0 0 40 40" fill="none">
<path d="M23.72 35C23.7405 35 23.7609 35.0005 23.7813 35.0015C23.8018 35.0025 23.8222 35.004 23.8425 35.006C23.8629 35.008 23.8832 35.0105 23.9034 35.0135C23.9236 35.0165 23.9438 35.02 23.9639 35.024C23.9839 35.028 24.0039 35.0325 24.0237 35.0375C24.0436 35.0424 24.0633 35.0479 24.0829 35.0538C24.1024 35.0598 24.1218 35.0662 24.1411 35.0731C24.1604 35.08 24.1795 35.0873 24.1984 35.0952C24.2173 35.103 24.236 35.1113 24.2545 35.12C24.2729 35.1287 24.2912 35.138 24.3093 35.1476C24.3273 35.1573 24.3451 35.1673 24.3626 35.1779C24.3802 35.1884 24.3975 35.1993 24.4145 35.2107C24.4314 35.222 24.4482 35.2338 24.4646 35.246C24.4811 35.2582 24.4972 35.2707 24.513 35.2837C24.5288 35.2967 24.5443 35.3101 24.5595 35.3238C24.5746 35.3375 24.5894 35.3516 24.6039 35.3661C24.6184 35.3806 24.6325 35.3954 24.6462 35.4105C24.6599 35.4257 24.6733 35.4412 24.6863 35.457C24.6993 35.4728 24.7118 35.4889 24.724 35.5054C24.7362 35.5218 24.748 35.5386 24.7593 35.5555C24.7707 35.5725 24.7816 35.5898 24.7921 35.6074C24.8027 35.6249 24.8127 35.6427 24.8224 35.6607C24.832 35.6788 24.8412 35.6971 24.85 35.7155C24.8587 35.734 24.867 35.7527 24.8748 35.7716C24.8827 35.7905 24.89 35.8096 24.8969 35.8289C24.9038 35.8481 24.9102 35.8676 24.9162 35.8871C24.9221 35.9067 24.9276 35.9264 24.9325 35.9463C24.9375 35.9661 24.942 35.9861 24.946 36.0061C24.95 36.0262 24.9535 36.0464 24.9565 36.0666C24.9595 36.0868 24.962 36.1071 24.964 36.1275C24.966 36.1479 24.9675 36.1682 24.9685 36.1887C24.9695 36.2091 24.97 36.2295 24.97 36.25C24.97 36.2705 24.9695 36.2909 24.9685 36.3113C24.9675 36.3318 24.966 36.3522 24.964 36.3725C24.962 36.3929 24.9595 36.4132 24.9565 36.4334C24.9535 36.4536 24.95 36.4738 24.946 36.4939C24.942 36.5139 24.9375 36.5339 24.9325 36.5537C24.9276 36.5736 24.9221 36.5933 24.9162 36.6129C24.9102 36.6324 24.9038 36.6518 24.8969 36.6711C24.89 36.6904 24.8827 36.7095 24.8748 36.7284C24.867 36.7473 24.8587 36.766 24.85 36.7845C24.8412 36.8029 24.832 36.8212 24.8224 36.8393C24.8127 36.8573 24.8027 36.8751 24.7921 36.8926C24.7816 36.9102 24.7707 36.9275 24.7593 36.9445C24.748 36.9614 24.7362 36.9782 24.724 36.9946C24.7118 37.0111 24.6993 37.0271 24.6863 37.043C24.6733 37.0588 24.6599 37.0743 24.6462 37.0895C24.6325 37.1046 24.6184 37.1194 24.6039 37.1339C24.5894 37.1484 24.5746 37.1625 24.5595 37.1762C24.5443 37.1899 24.5288 37.2033 24.513 37.2163C24.4972 37.2293 24.4811 37.2418 24.4646 37.254C24.4482 37.2662 24.4314 37.278 24.4145 37.2893C24.3975 37.3007 24.3802 37.3116 24.3626 37.3221C24.3451 37.3327 24.3273 37.3427 24.3093 37.3524C24.2912 37.362 24.2729 37.3713 24.2545 37.38C24.236 37.3887 24.2173 37.397 24.1984 37.4048C24.1795 37.4127 24.1604 37.42 24.1411 37.4269C24.1218 37.4338 24.1024 37.4402 24.0829 37.4462C24.0633 37.4521 24.0436 37.4576 24.0237 37.4625C24.0039 37.4675 23.9839 37.472 23.9639 37.476C23.9438 37.48 23.9236 37.4835 23.9034 37.4865C23.8832 37.4895 23.8629 37.492 23.8425 37.494C23.8222 37.496 23.8018 37.4975 23.7813 37.4985C23.7609 37.4995 23.7405 37.5 23.72 37.5L7.5 37.5C7.43862 37.5 7.37729 37.4985 7.31602 37.4955C7.25471 37.4925 7.19352 37.488 7.13242 37.482C7.07136 37.4759 7.01047 37.4684 6.94977 37.4594C6.88906 37.4504 6.82861 37.4399 6.7684 37.4279C6.70821 37.4159 6.64836 37.4025 6.58883 37.3876C6.5293 37.3727 6.47017 37.3563 6.41145 37.3385C6.3527 37.3207 6.29444 37.3014 6.23668 37.2808C6.17889 37.2601 6.12164 37.238 6.06492 37.2145C6.00823 37.1911 5.95215 37.1662 5.89668 37.14C5.84118 37.1137 5.78638 37.0861 5.73227 37.0572C5.67815 37.0282 5.62477 36.998 5.57211 36.9665C5.51948 36.9349 5.46764 36.9021 5.4166 36.868C5.36559 36.8339 5.31543 36.7986 5.26613 36.762C5.21684 36.7255 5.16846 36.6877 5.12102 36.6488C5.07359 36.6098 5.02714 36.5698 4.98164 36.5286C4.93617 36.4873 4.89175 36.445 4.84836 36.4016C4.80495 36.3582 4.76264 36.3138 4.72145 36.2684C4.68022 36.2229 4.64014 36.1764 4.60121 36.129C4.56228 36.0815 4.52453 36.0332 4.48797 35.9839C4.45141 35.9346 4.41608 35.8844 4.38199 35.8334C4.3479 35.7823 4.31508 35.7305 4.28352 35.6779C4.25195 35.6252 4.22172 35.5718 4.19281 35.5177C4.16388 35.4636 4.13629 35.4088 4.11004 35.3533C4.08379 35.2979 4.05893 35.2418 4.03547 35.185C4.01198 35.1284 3.9899 35.0711 3.96922 35.0133C3.94854 34.9555 3.9293 34.8973 3.91148 34.8386C3.89366 34.7798 3.87729 34.7207 3.86238 34.6612C3.84747 34.6016 3.83403 34.5418 3.82205 34.4816C3.81008 34.4214 3.79959 34.3609 3.79059 34.3002C3.78158 34.2395 3.77407 34.1786 3.76806 34.1176C3.76204 34.0565 3.75753 33.9953 3.75452 33.934C3.75151 33.8727 3.75 33.8114 3.75 33.75L3.75 6.25C3.75 6.18862 3.75151 6.12729 3.75452 6.06602C3.75753 6.00471 3.76204 5.94352 3.76806 5.88242C3.77407 5.82136 3.78158 5.76047 3.79059 5.69977C3.79959 5.63906 3.81008 5.57861 3.82205 5.5184C3.83403 5.45821 3.84747 5.39836 3.86238 5.33883C3.87729 5.2793 3.89366 5.22017 3.91148 5.16145C3.9293 5.1027 3.94854 5.04444 3.96922 4.98668C3.9899 4.92889 4.01198 4.87164 4.03547 4.81492C4.05893 4.75823 4.08379 4.70215 4.11004 4.64668C4.13629 4.59118 4.16388 4.53638 4.19281 4.48227C4.22172 4.42815 4.25195 4.37477 4.28352 4.32211C4.31508 4.26948 4.3479 4.21764 4.38199 4.1666C4.41608 4.11559 4.45141 4.06543 4.48797 4.01613C4.52453 3.96684 4.56228 3.91847 4.60121 3.87103C4.64014 3.82359 4.68022 3.77712 4.72145 3.73165C4.76264 3.68618 4.80495 3.64175 4.84836 3.59835C4.89175 3.55495 4.93617 3.51265 4.98164 3.47143C5.02714 3.43022 5.07359 3.39014 5.12102 3.35121C5.16846 3.31228 5.21684 3.27453 5.26613 3.23797C5.31543 3.20141 5.36559 3.16609 5.4166 3.13199C5.46764 3.09789 5.51948 3.06507 5.57211 3.03352C5.62477 3.00196 5.67815 2.97173 5.73227 2.9428C5.78638 2.91386 5.84118 2.88628 5.89668 2.86004C5.95215 2.8338 6.00823 2.80894 6.06492 2.78545C6.12164 2.76197 6.17889 2.73989 6.23668 2.71921C6.29444 2.69853 6.3527 2.67929 6.41145 2.66147C6.47017 2.64366 6.5293 2.62729 6.58883 2.61238C6.64836 2.59747 6.70821 2.58403 6.7684 2.57205C6.82861 2.56008 6.88906 2.54959 6.94977 2.54059C7.01047 2.53158 7.07136 2.52407 7.13242 2.51806C7.19352 2.51204 7.25471 2.50753 7.31602 2.50452C7.37729 2.50151 7.43862 2.5 7.5 2.5L28.75 2.5C28.8114 2.5 28.8727 2.50151 28.934 2.50452C28.9953 2.50753 29.0565 2.51204 29.1176 2.51806C29.1786 2.52407 29.2395 2.53158 29.3002 2.54059C29.3609 2.54959 29.4214 2.56008 29.4816 2.57205C29.5418 2.58403 29.6016 2.59747 29.6612 2.61238C29.7207 2.62729 29.7798 2.64366 29.8386 2.66147C29.8973 2.67929 29.9555 2.69853 30.0133 2.71921C30.0711 2.73989 30.1284 2.76197 30.1851 2.78545C30.2418 2.80894 30.2979 2.8338 30.3533 2.86004C30.4088 2.88628 30.4636 2.91386 30.5177 2.94279C30.5718 2.97173 30.6252 3.00196 30.6779 3.03352C30.7305 3.06507 30.7823 3.09789 30.8334 3.13199C30.8844 3.16609 30.9346 3.20141 30.9839 3.23797C31.0332 3.27453 31.0815 3.31228 31.129 3.35121C31.1764 3.39014 31.2229 3.43022 31.2684 3.47143C31.3138 3.51265 31.3582 3.55495 31.4016 3.59835C31.445 3.64175 31.4873 3.68618 31.5286 3.73165C31.5698 3.77712 31.6098 3.82358 31.6488 3.87102C31.6877 3.91846 31.7255 3.96684 31.762 4.01613C31.7986 4.06543 31.8339 4.11559 31.868 4.1666C31.9021 4.21764 31.9349 4.26948 31.9665 4.32211C31.998 4.37477 32.0282 4.42815 32.0572 4.48227C32.0861 4.53638 32.1137 4.59118 32.14 4.64668C32.1662 4.70215 32.1911 4.75823 32.2145 4.81492C32.238 4.87164 32.2601 4.92889 32.2808 4.98668C32.3014 5.04444 32.3207 5.1027 32.3385 5.16145C32.3563 5.22017 32.3727 5.2793 32.3876 5.33883C32.4025 5.39836 32.416 5.45821 32.4279 5.5184C32.4399 5.57861 32.4504 5.63906 32.4594 5.69977C32.4684 5.76047 32.4759 5.82136 32.482 5.88242C32.488 5.94352 32.4925 6.00471 32.4955 6.06602C32.4985 6.12729 32.5 6.18862 32.5 6.25C32.5 6.27047 32.4995 6.29091 32.4985 6.31133C32.4975 6.33177 32.496 6.35218 32.494 6.37254C32.492 6.39288 32.4895 6.41316 32.4865 6.4334C32.4835 6.45363 32.48 6.47379 32.476 6.49387C32.472 6.51391 32.4675 6.53387 32.4625 6.55371C32.4576 6.57355 32.4521 6.59328 32.4462 6.61285C32.4402 6.63242 32.4338 6.65184 32.4269 6.67109C32.42 6.69035 32.4127 6.70945 32.4048 6.72836C32.397 6.74727 32.3887 6.76598 32.38 6.78445C32.3713 6.80293 32.362 6.82121 32.3524 6.83926C32.3427 6.85727 32.3327 6.87508 32.3222 6.89262C32.3116 6.91016 32.3007 6.92746 32.2893 6.94445C32.278 6.96145 32.2662 6.97816 32.254 6.99461C32.2418 7.01105 32.2293 7.02719 32.2162 7.04301C32.2033 7.05883 32.1899 7.0743 32.1762 7.08945C32.1625 7.10461 32.1484 7.11941 32.1339 7.13387C32.1194 7.14836 32.1046 7.16246 32.0895 7.17617C32.0743 7.18992 32.0588 7.20328 32.043 7.21625C32.0272 7.22926 32.0111 7.24184 31.9946 7.25402C31.9782 7.26621 31.9614 7.27797 31.9445 7.28934C31.9275 7.3007 31.9102 7.31164 31.8926 7.32215C31.8751 7.33266 31.8573 7.34273 31.8393 7.35238C31.8212 7.36203 31.8029 7.37125 31.7845 7.38C31.766 7.38875 31.7473 7.39703 31.7284 7.40484C31.7095 7.4127 31.6904 7.42004 31.6711 7.42691C31.6518 7.43383 31.6324 7.44023 31.6129 7.44617C31.5933 7.45211 31.5736 7.45758 31.5537 7.46254C31.5339 7.4675 31.5139 7.47199 31.4939 7.47598C31.4738 7.47996 31.4536 7.48348 31.4334 7.48648C31.4132 7.48949 31.3929 7.49199 31.3725 7.49398C31.3522 7.49598 31.3318 7.4975 31.3113 7.49848C31.2909 7.49949 31.2705 7.5 31.25 7.5C31.2295 7.5 31.2091 7.49949 31.1887 7.49848C31.1682 7.4975 31.1479 7.49598 31.1275 7.49398C31.1071 7.49199 31.0868 7.48949 31.0666 7.48648C31.0464 7.48348 31.0262 7.47996 31.0061 7.47598C30.9861 7.47199 30.9661 7.4675 30.9463 7.46254C30.9264 7.45758 30.9067 7.45211 30.8871 7.44617C30.8676 7.44023 30.8481 7.43383 30.8289 7.42691C30.8096 7.42004 30.7905 7.4127 30.7716 7.40484C30.7527 7.39703 30.734 7.38875 30.7155 7.38C30.6971 7.37125 30.6788 7.36203 30.6607 7.35238C30.6427 7.34273 30.6249 7.33266 30.6074 7.32215C30.5898 7.31164 30.5725 7.3007 30.5555 7.28934C30.5386 7.27797 30.5218 7.26621 30.5054 7.25402C30.4889 7.24184 30.4728 7.22926 30.457 7.21625C30.4412 7.20328 30.4257 7.18992 30.4105 7.17617C30.3954 7.16246 30.3806 7.14836 30.3661 7.13387C30.3516 7.11941 30.3375 7.10461 30.3238 7.08945C30.3101 7.0743 30.2967 7.05883 30.2838 7.04301C30.2707 7.02719 30.2582 7.01105 30.246 6.99461C30.2338 6.97816 30.222 6.96145 30.2107 6.94445C30.1993 6.92746 30.1884 6.91016 30.1779 6.89262C30.1673 6.87508 30.1573 6.85727 30.1476 6.83926C30.138 6.82121 30.1287 6.80293 30.12 6.78445C30.1112 6.76598 30.103 6.74727 30.0952 6.72836C30.0873 6.70945 30.08 6.69035 30.0731 6.67109C30.0662 6.65184 30.0598 6.63242 30.0538 6.61285C30.0479 6.59328 30.0424 6.57355 30.0375 6.55371C30.0325 6.53387 30.028 6.51391 30.024 6.49387C30.02 6.47379 30.0165 6.45363 30.0135 6.4334C30.0105 6.41316 30.008 6.39288 30.006 6.37254C30.004 6.35218 30.0025 6.33177 30.0015 6.31133C30.0005 6.29091 30 6.27047 30 6.25C30 6.22953 29.9995 6.20909 29.9985 6.18867C29.9975 6.16823 29.996 6.14782 29.994 6.12746C29.992 6.10712 29.9895 6.08684 29.9865 6.0666C29.9835 6.04637 29.98 6.02621 29.976 6.00613C29.972 5.98608 29.9675 5.96613 29.9625 5.94629C29.9576 5.92645 29.9521 5.90673 29.9462 5.88715C29.9402 5.86757 29.9338 5.84815 29.9269 5.82891C29.92 5.80964 29.9127 5.79055 29.9048 5.77164C29.897 5.75273 29.8887 5.73404 29.88 5.71555C29.8713 5.69706 29.862 5.67879 29.8524 5.66074C29.8427 5.64272 29.8327 5.62493 29.8221 5.60738C29.8116 5.58983 29.8007 5.57255 29.7893 5.55555C29.778 5.53854 29.7662 5.52182 29.754 5.50539C29.7418 5.48896 29.7293 5.47282 29.7162 5.45699C29.7033 5.44118 29.6899 5.4257 29.6762 5.41055C29.6625 5.39539 29.6484 5.38059 29.6339 5.36613C29.6194 5.35165 29.6046 5.33755 29.5895 5.32383C29.5743 5.31008 29.5588 5.29672 29.543 5.28375C29.5272 5.27075 29.5111 5.25816 29.4946 5.24598C29.4782 5.23379 29.4614 5.22202 29.4445 5.21066C29.4275 5.19931 29.4102 5.18837 29.3926 5.17785C29.3751 5.16733 29.3573 5.15725 29.3393 5.14762C29.3212 5.13796 29.3029 5.12875 29.2845 5.12C29.266 5.11125 29.2473 5.10297 29.2284 5.09516C29.2095 5.08732 29.1904 5.07996 29.1711 5.07309C29.1518 5.06618 29.1324 5.05977 29.1129 5.05383C29.0933 5.04789 29.0736 5.04243 29.0537 5.03746C29.0339 5.03249 29.0139 5.02801 28.9939 5.02402C28.9738 5.02004 28.9536 5.01653 28.9334 5.01352C28.9132 5.01052 28.8929 5.00802 28.8725 5.00602C28.8522 5.00401 28.8318 5.00251 28.8113 5.00152C28.7909 5.00051 28.7705 5 28.75 5L7.5 5C7.47953 5 7.45909 5.00051 7.43867 5.00152C7.41823 5.00251 7.39782 5.00401 7.37746 5.00602C7.35712 5.00802 7.33684 5.01052 7.3166 5.01352C7.29637 5.01653 7.27621 5.02004 7.25613 5.02402C7.23608 5.02801 7.21613 5.03249 7.19629 5.03746C7.17645 5.04243 7.15673 5.04789 7.13715 5.05383C7.11757 5.05977 7.09815 5.06618 7.07891 5.07309C7.05964 5.07996 7.04055 5.08732 7.02164 5.09516C7.00273 5.10297 6.98404 5.11125 6.96555 5.12C6.94706 5.12875 6.92879 5.13796 6.91074 5.14762C6.89272 5.15725 6.87493 5.16733 6.85738 5.17785C6.83983 5.18837 6.82255 5.19931 6.80555 5.21066C6.78854 5.22202 6.77182 5.23379 6.75539 5.24598C6.73896 5.25816 6.72282 5.27075 6.70699 5.28375C6.69118 5.29672 6.6757 5.31008 6.66055 5.32383C6.64539 5.33755 6.63059 5.35165 6.61613 5.36613C6.60165 5.38059 6.58755 5.39539 6.57383 5.41055C6.56008 5.4257 6.54672 5.44118 6.53375 5.45699C6.52075 5.47282 6.50816 5.48896 6.49598 5.50539C6.48379 5.52182 6.47202 5.53854 6.46066 5.55555C6.44931 5.57255 6.43837 5.58983 6.42785 5.60738C6.41733 5.62493 6.40725 5.64272 6.39762 5.66074C6.38796 5.67879 6.37875 5.69706 6.37 5.71555C6.36125 5.73404 6.35297 5.75273 6.34516 5.77164C6.33732 5.79055 6.32996 5.80964 6.32309 5.82891C6.31618 5.84815 6.30977 5.86757 6.30383 5.88715C6.29789 5.90673 6.29243 5.92645 6.28746 5.94629C6.28249 5.96613 6.27801 5.98608 6.27402 6.00613C6.27004 6.02621 6.26653 6.04637 6.26352 6.0666C6.26052 6.08684 6.25802 6.10712 6.25602 6.12746C6.25401 6.14782 6.25251 6.16823 6.25152 6.18867C6.25051 6.20909 6.25 6.22953 6.25 6.25L6.25 33.75C6.25 33.7705 6.25051 33.7909 6.25152 33.8113C6.25251 33.8318 6.25401 33.8522 6.25602 33.8725C6.25802 33.8929 6.26052 33.9132 6.26352 33.9334C6.26653 33.9536 6.27004 33.9738 6.27402 33.9939C6.27801 34.0139 6.28249 34.0339 6.28746 34.0537C6.29243 34.0736 6.29789 34.0933 6.30383 34.1129C6.30977 34.1324 6.31618 34.1518 6.32309 34.1711C6.32996 34.1904 6.33732 34.2095 6.34516 34.2284C6.35297 34.2473 6.36125 34.266 6.37 34.2845C6.37875 34.3029 6.38796 34.3212 6.39762 34.3393C6.40725 34.3573 6.41733 34.3751 6.42785 34.3926C6.43837 34.4102 6.44931 34.4275 6.46066 34.4445C6.47202 34.4614 6.48379 34.4782 6.49598 34.4946C6.50816 34.5111 6.52075 34.5272 6.53375 34.543C6.54672 34.5588 6.56008 34.5743 6.57383 34.5895C6.58755 34.6046 6.60165 34.6194 6.61613 34.6339C6.63059 34.6484 6.64539 34.6625 6.66055 34.6762C6.6757 34.6899 6.69118 34.7033 6.70699 34.7163C6.72282 34.7293 6.73896 34.7418 6.75539 34.754C6.77182 34.7662 6.78854 34.778 6.80555 34.7893C6.82255 34.8007 6.83983 34.8116 6.85738 34.8221C6.87493 34.8327 6.89272 34.8427 6.91074 34.8524C6.92879 34.862 6.94706 34.8713 6.96555 34.88C6.98404 34.8887 7.00273 34.897 7.02164 34.9048C7.04055 34.9127 7.05964 34.92 7.07891 34.9269C7.09815 34.9338 7.11757 34.9402 7.13715 34.9462C7.15673 34.9521 7.17645 34.9576 7.19629 34.9625C7.21613 34.9675 7.23608 34.972 7.25613 34.976C7.27621 34.98 7.29637 34.9835 7.3166 34.9865C7.33684 34.9895 7.35712 34.992 7.37746 34.994C7.39782 34.996 7.41823 34.9975 7.43867 34.9985C7.45909 34.9995 7.47953 35 7.5 35L23.72 35ZM32.5 22.8813L32.5 28.61C32.5 30.2763 30 30.2763 30 28.61L30 22.8813C30 21.2138 32.5 21.2138 32.5 22.8813Z"   fill="#FFFFFF" >
</path>
<path d="M11.25 12.5C11.2295 12.5 11.2091 12.4995 11.1887 12.4985C11.1682 12.4975 11.1478 12.496 11.1275 12.494C11.1071 12.492 11.0868 12.4895 11.0666 12.4865C11.0464 12.4835 11.0262 12.48 11.0061 12.476C10.9861 12.472 10.9661 12.4675 10.9463 12.4625C10.9264 12.4576 10.9067 12.4521 10.8871 12.4462C10.8676 12.4402 10.8481 12.4338 10.8289 12.4269C10.8096 12.42 10.7905 12.4127 10.7716 12.4048C10.7527 12.397 10.734 12.3887 10.7155 12.38C10.6971 12.3713 10.6788 12.362 10.6607 12.3524C10.6427 12.3427 10.6249 12.3327 10.6074 12.3221C10.5898 12.3116 10.5726 12.3007 10.5555 12.2893C10.5385 12.278 10.5218 12.2662 10.5054 12.254C10.489 12.2418 10.4728 12.2292 10.457 12.2162C10.4412 12.2033 10.4257 12.1899 10.4105 12.1762C10.3954 12.1624 10.3806 12.1483 10.3661 12.1339C10.3517 12.1194 10.3376 12.1046 10.3238 12.0895C10.3101 12.0743 10.2967 12.0588 10.2838 12.043C10.2708 12.0272 10.2582 12.011 10.246 11.9946C10.2338 11.9782 10.222 11.9615 10.2107 11.9445C10.1993 11.9274 10.1883 11.9102 10.1779 11.8926C10.1673 11.8751 10.1573 11.8573 10.1476 11.8393C10.138 11.8212 10.1287 11.8029 10.12 11.7845C10.1112 11.766 10.103 11.7473 10.0952 11.7284C10.0873 11.7095 10.08 11.6904 10.0731 11.6711C10.0662 11.6518 10.0598 11.6324 10.0538 11.6129C10.0479 11.5933 10.0424 11.5736 10.0375 11.5537C10.0325 11.5339 10.028 11.5139 10.024 11.4939C10.02 11.4738 10.0165 11.4536 10.0135 11.4334C10.0105 11.4132 10.008 11.3929 10.006 11.3725C10.004 11.3522 10.0025 11.3318 10.0015 11.3113C10.0005 11.2909 10 11.2705 10 11.25C10 11.2295 10.0005 11.2091 10.0015 11.1887C10.0025 11.1682 10.004 11.1478 10.006 11.1275C10.008 11.1071 10.0105 11.0868 10.0135 11.0666C10.0165 11.0464 10.02 11.0262 10.024 11.0061C10.028 10.9861 10.0325 10.9661 10.0375 10.9463C10.0424 10.9264 10.0479 10.9067 10.0538 10.8871C10.0598 10.8676 10.0662 10.8481 10.0731 10.8289C10.08 10.8096 10.0873 10.7905 10.0952 10.7716C10.103 10.7527 10.1112 10.734 10.12 10.7155C10.1287 10.6971 10.138 10.6788 10.1476 10.6607C10.1573 10.6427 10.1673 10.6249 10.1779 10.6074C10.1883 10.5898 10.1993 10.5726 10.2107 10.5555C10.222 10.5385 10.2338 10.5218 10.246 10.5054C10.2582 10.489 10.2708 10.4728 10.2838 10.457C10.2967 10.4412 10.3101 10.4257 10.3238 10.4105C10.3376 10.3954 10.3517 10.3806 10.3661 10.3661C10.3806 10.3517 10.3954 10.3376 10.4105 10.3238C10.4257 10.3101 10.4412 10.2967 10.457 10.2838C10.4728 10.2708 10.489 10.2582 10.5054 10.246C10.5218 10.2338 10.5385 10.222 10.5555 10.2107C10.5726 10.1993 10.5898 10.1884 10.6074 10.1779C10.6249 10.1673 10.6427 10.1573 10.6607 10.1476C10.6788 10.138 10.6971 10.1287 10.7155 10.12C10.734 10.1112 10.7527 10.103 10.7716 10.0952C10.7905 10.0873 10.8096 10.08 10.8289 10.0731C10.8481 10.0662 10.8676 10.0598 10.8871 10.0538C10.9067 10.0479 10.9264 10.0424 10.9463 10.0375C10.9661 10.0325 10.9861 10.028 11.0061 10.024C11.0262 10.02 11.0464 10.0165 11.0666 10.0135C11.0868 10.0105 11.1071 10.008 11.1275 10.006C11.1478 10.004 11.1682 10.0025 11.1887 10.0015C11.2091 10.0005 11.2295 10 11.25 10L20 10C20.0205 10 20.0409 10.0005 20.0613 10.0015C20.0818 10.0025 20.1022 10.004 20.1225 10.006C20.1429 10.008 20.1632 10.0105 20.1834 10.0135C20.2036 10.0165 20.2238 10.02 20.2439 10.024C20.2639 10.028 20.2839 10.0325 20.3037 10.0375C20.3236 10.0424 20.3433 10.0479 20.3629 10.0538C20.3824 10.0598 20.4018 10.0662 20.4211 10.0731C20.4404 10.08 20.4595 10.0873 20.4784 10.0952C20.4973 10.103 20.516 10.1112 20.5345 10.12C20.5529 10.1287 20.5712 10.138 20.5893 10.1476C20.6073 10.1573 20.6251 10.1673 20.6426 10.1779C20.6602 10.1884 20.6775 10.1993 20.6945 10.2107C20.7114 10.222 20.7282 10.2338 20.7446 10.246C20.7611 10.2582 20.7772 10.2708 20.793 10.2838C20.8088 10.2967 20.8243 10.3101 20.8395 10.3238C20.8546 10.3376 20.8694 10.3517 20.8839 10.3661C20.8984 10.3806 20.9125 10.3954 20.9262 10.4105C20.9399 10.4257 20.9533 10.4412 20.9662 10.457C20.9793 10.4728 20.9918 10.489 21.004 10.5054C21.0162 10.5218 21.028 10.5385 21.0393 10.5555C21.0507 10.5726 21.0616 10.5898 21.0721 10.6074C21.0827 10.6249 21.0927 10.6427 21.1024 10.6607C21.112 10.6788 21.1213 10.6971 21.13 10.7155C21.1387 10.734 21.147 10.7527 21.1548 10.7716C21.1627 10.7905 21.17 10.8096 21.1769 10.8289C21.1838 10.8481 21.1902 10.8676 21.1962 10.8871C21.2021 10.9067 21.2076 10.9264 21.2125 10.9463C21.2175 10.9661 21.222 10.9861 21.226 11.0061C21.23 11.0262 21.2335 11.0464 21.2365 11.0666C21.2395 11.0868 21.242 11.1071 21.244 11.1275C21.246 11.1478 21.2475 11.1682 21.2485 11.1887C21.2495 11.2091 21.25 11.2295 21.25 11.25C21.25 11.2705 21.2495 11.2909 21.2485 11.3113C21.2475 11.3318 21.246 11.3522 21.244 11.3725C21.242 11.3929 21.2395 11.4132 21.2365 11.4334C21.2335 11.4536 21.23 11.4738 21.226 11.4939C21.222 11.5139 21.2175 11.5339 21.2125 11.5537C21.2076 11.5736 21.2021 11.5933 21.1962 11.6129C21.1902 11.6324 21.1838 11.6518 21.1769 11.6711C21.17 11.6904 21.1627 11.7095 21.1548 11.7284C21.147 11.7473 21.1387 11.766 21.13 11.7845C21.1213 11.8029 21.112 11.8212 21.1024 11.8393C21.0927 11.8573 21.0827 11.8751 21.0721 11.8926C21.0616 11.9102 21.0507 11.9274 21.0393 11.9445C21.028 11.9615 21.0162 11.9782 21.004 11.9946C20.9918 12.011 20.9793 12.0272 20.9662 12.043C20.9533 12.0588 20.9399 12.0743 20.9262 12.0895C20.9125 12.1046 20.8984 12.1194 20.8839 12.1339C20.8694 12.1483 20.8546 12.1624 20.8395 12.1762C20.8243 12.1899 20.8088 12.2033 20.793 12.2162C20.7772 12.2292 20.7611 12.2418 20.7446 12.254C20.7282 12.2662 20.7114 12.278 20.6945 12.2893C20.6775 12.3007 20.6602 12.3116 20.6426 12.3221C20.6251 12.3327 20.6073 12.3427 20.5893 12.3524C20.5712 12.362 20.5529 12.3713 20.5345 12.38C20.516 12.3887 20.4973 12.397 20.4784 12.4048C20.4595 12.4127 20.4404 12.42 20.4211 12.4269C20.4018 12.4338 20.3824 12.4402 20.3629 12.4462C20.3433 12.4521 20.3236 12.4576 20.3037 12.4625C20.2839 12.4675 20.2639 12.472 20.2439 12.476C20.2238 12.48 20.2036 12.4835 20.1834 12.4865C20.1632 12.4895 20.1429 12.492 20.1225 12.494C20.1022 12.496 20.0818 12.4975 20.0613 12.4985C20.0409 12.4995 20.0205 12.5 20 12.5L11.25 12.5ZM11.25 18.75C11.2295 18.75 11.2091 18.7495 11.1887 18.7485C11.1682 18.7475 11.1478 18.746 11.1275 18.744C11.1071 18.742 11.0868 18.7395 11.0666 18.7365C11.0464 18.7335 11.0262 18.73 11.0061 18.726C10.9861 18.722 10.9661 18.7175 10.9463 18.7125C10.9264 18.7076 10.9067 18.7021 10.8871 18.6962C10.8676 18.6902 10.8481 18.6838 10.8289 18.6769C10.8096 18.67 10.7905 18.6627 10.7716 18.6548C10.7527 18.647 10.734 18.6387 10.7155 18.63C10.6971 18.6213 10.6788 18.612 10.6607 18.6024C10.6427 18.5927 10.6249 18.5827 10.6074 18.5721C10.5898 18.5616 10.5726 18.5507 10.5555 18.5393C10.5385 18.528 10.5218 18.5162 10.5054 18.504C10.489 18.4918 10.4728 18.4793 10.457 18.4662C10.4412 18.4533 10.4257 18.4399 10.4105 18.4262C10.3954 18.4125 10.3806 18.3984 10.3661 18.3839C10.3517 18.3694 10.3376 18.3546 10.3238 18.3395C10.3101 18.3243 10.2967 18.3088 10.2838 18.293C10.2708 18.2772 10.2582 18.2611 10.246 18.2446C10.2338 18.2282 10.222 18.2114 10.2107 18.1945C10.1993 18.1775 10.1883 18.1602 10.1779 18.1426C10.1673 18.1251 10.1573 18.1073 10.1476 18.0893C10.138 18.0712 10.1287 18.0529 10.12 18.0345C10.1112 18.016 10.103 17.9973 10.0952 17.9784C10.0873 17.9595 10.08 17.9404 10.0731 17.9211C10.0662 17.9018 10.0598 17.8824 10.0538 17.8629C10.0479 17.8433 10.0424 17.8236 10.0375 17.8037C10.0325 17.7839 10.028 17.7639 10.024 17.7439C10.02 17.7238 10.0165 17.7036 10.0135 17.6834C10.0105 17.6632 10.008 17.6429 10.006 17.6225C10.004 17.6022 10.0025 17.5818 10.0015 17.5613C10.0005 17.5409 10 17.5205 10 17.5C10 17.4795 10.0005 17.4591 10.0015 17.4387C10.0025 17.4182 10.004 17.3978 10.006 17.3775C10.008 17.3571 10.0105 17.3368 10.0135 17.3166C10.0165 17.2964 10.02 17.2762 10.024 17.2561C10.028 17.2361 10.0325 17.2161 10.0375 17.1963C10.0424 17.1764 10.0479 17.1567 10.0538 17.1371C10.0598 17.1176 10.0662 17.0981 10.0731 17.0789C10.08 17.0596 10.0873 17.0405 10.0952 17.0216C10.103 17.0027 10.1112 16.984 10.12 16.9655C10.1287 16.9471 10.138 16.9288 10.1476 16.9107C10.1573 16.8927 10.1673 16.8749 10.1779 16.8574C10.1883 16.8398 10.1993 16.8225 10.2107 16.8055C10.222 16.7886 10.2338 16.7718 10.246 16.7554C10.2582 16.7389 10.2708 16.7228 10.2838 16.707C10.2967 16.6912 10.3101 16.6757 10.3238 16.6605C10.3376 16.6454 10.3517 16.6306 10.3661 16.6161C10.3806 16.6016 10.3954 16.5875 10.4105 16.5738C10.4257 16.5601 10.4412 16.5467 10.457 16.5338C10.4728 16.5207 10.489 16.5082 10.5054 16.496C10.5218 16.4838 10.5385 16.472 10.5555 16.4607C10.5726 16.4493 10.5898 16.4384 10.6074 16.4279C10.6249 16.4173 10.6427 16.4073 10.6607 16.3976C10.6788 16.388 10.6971 16.3787 10.7155 16.37C10.734 16.3612 10.7527 16.353 10.7716 16.3452C10.7905 16.3373 10.8096 16.33 10.8289 16.3231C10.8481 16.3162 10.8676 16.3098 10.8871 16.3038C10.9067 16.2979 10.9264 16.2924 10.9463 16.2875C10.9661 16.2825 10.9861 16.278 11.0061 16.274C11.0262 16.27 11.0464 16.2665 11.0666 16.2635C11.0868 16.2605 11.1071 16.258 11.1275 16.256C11.1478 16.254 11.1682 16.2525 11.1887 16.2515C11.2091 16.2505 11.2295 16.25 11.25 16.25L16.25 16.25C16.2705 16.25 16.2909 16.2505 16.3113 16.2515C16.3318 16.2525 16.3522 16.254 16.3725 16.256C16.3929 16.258 16.4132 16.2605 16.4334 16.2635C16.4536 16.2665 16.4738 16.27 16.4939 16.274C16.5139 16.278 16.5339 16.2825 16.5537 16.2875C16.5736 16.2924 16.5933 16.2979 16.6129 16.3038C16.6324 16.3098 16.6518 16.3162 16.6711 16.3231C16.6904 16.33 16.7095 16.3373 16.7284 16.3452C16.7473 16.353 16.766 16.3612 16.7845 16.37C16.8029 16.3787 16.8212 16.388 16.8393 16.3976C16.8573 16.4073 16.8751 16.4173 16.8926 16.4279C16.9102 16.4384 16.9275 16.4493 16.9445 16.4607C16.9614 16.472 16.9782 16.4838 16.9946 16.496C17.0111 16.5082 17.0272 16.5207 17.043 16.5338C17.0588 16.5467 17.0743 16.5601 17.0895 16.5738C17.1046 16.5875 17.1194 16.6016 17.1339 16.6161C17.1484 16.6306 17.1625 16.6454 17.1762 16.6605C17.1899 16.6757 17.2033 16.6912 17.2163 16.707C17.2293 16.7228 17.2418 16.7389 17.254 16.7554C17.2662 16.7718 17.278 16.7886 17.2893 16.8055C17.3007 16.8225 17.3116 16.8398 17.3221 16.8574C17.3327 16.8749 17.3427 16.8927 17.3524 16.9107C17.362 16.9288 17.3713 16.9471 17.38 16.9655C17.3887 16.984 17.397 17.0027 17.4048 17.0216C17.4127 17.0405 17.42 17.0596 17.4269 17.0789C17.4338 17.0981 17.4402 17.1176 17.4462 17.1371C17.4521 17.1567 17.4576 17.1764 17.4625 17.1963C17.4675 17.2161 17.472 17.2361 17.476 17.2561C17.48 17.2762 17.4835 17.2964 17.4865 17.3166C17.4895 17.3368 17.492 17.3571 17.494 17.3775C17.496 17.3978 17.4975 17.4182 17.4985 17.4387C17.4995 17.4591 17.5 17.4795 17.5 17.5C17.5 17.5205 17.4995 17.5409 17.4985 17.5613C17.4975 17.5818 17.496 17.6022 17.494 17.6225C17.492 17.6429 17.4895 17.6632 17.4865 17.6834C17.4835 17.7036 17.48 17.7238 17.476 17.7439C17.472 17.7639 17.4675 17.7839 17.4625 17.8037C17.4576 17.8236 17.4521 17.8433 17.4462 17.8629C17.4402 17.8824 17.4338 17.9018 17.4269 17.9211C17.42 17.9404 17.4127 17.9595 17.4048 17.9784C17.397 17.9973 17.3887 18.016 17.38 18.0345C17.3713 18.0529 17.362 18.0712 17.3524 18.0893C17.3427 18.1073 17.3327 18.1251 17.3221 18.1426C17.3116 18.1602 17.3007 18.1775 17.2893 18.1945C17.278 18.2114 17.2662 18.2282 17.254 18.2446C17.2418 18.2611 17.2293 18.2772 17.2163 18.293C17.2033 18.3088 17.1899 18.3243 17.1762 18.3395C17.1625 18.3546 17.1484 18.3694 17.1339 18.3839C17.1194 18.3984 17.1046 18.4125 17.0895 18.4262C17.0743 18.4399 17.0588 18.4533 17.043 18.4662C17.0272 18.4793 17.0111 18.4918 16.9946 18.504C16.9782 18.5162 16.9614 18.528 16.9445 18.5393C16.9275 18.5507 16.9102 18.5616 16.8926 18.5721C16.8751 18.5827 16.8573 18.5927 16.8393 18.6024C16.8212 18.612 16.8029 18.6213 16.7845 18.63C16.766 18.6387 16.7473 18.647 16.7284 18.6548C16.7095 18.6627 16.6904 18.67 16.6711 18.6769C16.6518 18.6838 16.6324 18.6902 16.6129 18.6962C16.5933 18.7021 16.5736 18.7076 16.5537 18.7125C16.5339 18.7175 16.5139 18.722 16.4939 18.726C16.4738 18.73 16.4536 18.7335 16.4334 18.7365C16.4132 18.7395 16.3929 18.742 16.3725 18.744C16.3522 18.746 16.3318 18.7475 16.3113 18.7485C16.2909 18.7495 16.2705 18.75 16.25 18.75L11.25 18.75ZM24.9775 36.195C24.9775 36.2155 24.977 36.2359 24.976 36.2563C24.975 36.2768 24.9735 36.2972 24.9715 36.3175C24.9695 36.3379 24.967 36.3582 24.964 36.3784C24.961 36.3986 24.9575 36.4188 24.9535 36.4389C24.9495 36.4589 24.945 36.4789 24.94 36.4987C24.9351 36.5186 24.9296 36.5383 24.9237 36.5579C24.9177 36.5774 24.9113 36.5968 24.9044 36.6161C24.8975 36.6354 24.8902 36.6545 24.8823 36.6734C24.8745 36.6922 24.8662 36.7109 24.8575 36.7295C24.8488 36.7479 24.8396 36.7662 24.8299 36.7843C24.8203 36.8023 24.8102 36.8201 24.7996 36.8376C24.7891 36.8552 24.7782 36.8725 24.7668 36.8895C24.7555 36.9064 24.7437 36.9232 24.7315 36.9396C24.7193 36.9561 24.7068 36.9722 24.6938 36.988C24.6808 37.0038 24.6674 37.0193 24.6537 37.0345C24.64 37.0496 24.6259 37.0644 24.6114 37.0789C24.5969 37.0934 24.5821 37.1075 24.567 37.1212C24.5518 37.1349 24.5363 37.1483 24.5205 37.1612C24.5047 37.1743 24.4886 37.1868 24.4721 37.199C24.4557 37.2112 24.4389 37.223 24.422 37.2343C24.405 37.2457 24.3877 37.2566 24.3701 37.2672C24.3526 37.2777 24.3348 37.2877 24.3168 37.2974C24.2987 37.307 24.2804 37.3162 24.262 37.325C24.2435 37.3337 24.2248 37.342 24.2059 37.3498C24.187 37.3577 24.1679 37.365 24.1486 37.3719C24.1293 37.3788 24.1099 37.3852 24.0904 37.3912C24.0708 37.3971 24.0511 37.4026 24.0312 37.4075C24.0114 37.4125 23.9914 37.417 23.9714 37.421C23.9513 37.425 23.9311 37.4285 23.9109 37.4315C23.8907 37.4345 23.8704 37.437 23.85 37.439C23.8297 37.441 23.8093 37.4425 23.7888 37.4435C23.7684 37.4445 23.748 37.445 23.7275 37.445C23.707 37.445 23.6866 37.4445 23.6662 37.4435C23.6457 37.4425 23.6253 37.441 23.605 37.439C23.5846 37.437 23.5643 37.4345 23.5441 37.4315C23.5239 37.4285 23.5037 37.425 23.4836 37.421C23.4636 37.417 23.4436 37.4125 23.4238 37.4075C23.4039 37.4026 23.3842 37.3971 23.3646 37.3912C23.3451 37.3852 23.3257 37.3788 23.3064 37.3719C23.2871 37.365 23.268 37.3577 23.2491 37.3498C23.2302 37.342 23.2115 37.3337 23.193 37.325C23.1746 37.3162 23.1563 37.307 23.1382 37.2974C23.1202 37.2877 23.1024 37.2777 23.0849 37.2672C23.0673 37.2566 23.05 37.2457 23.033 37.2343C23.0161 37.223 22.9993 37.2112 22.9829 37.199C22.9664 37.1868 22.9503 37.1743 22.9345 37.1612C22.9187 37.1483 22.9032 37.1349 22.888 37.1212C22.8729 37.1075 22.8581 37.0934 22.8436 37.0789C22.8291 37.0644 22.815 37.0496 22.8013 37.0345C22.7876 37.0193 22.7742 37.0038 22.7612 36.988C22.7482 36.9722 22.7357 36.9561 22.7235 36.9396C22.7113 36.9232 22.6995 36.9064 22.6882 36.8895C22.6768 36.8725 22.6659 36.8552 22.6554 36.8376C22.6448 36.8201 22.6348 36.8023 22.6251 36.7843C22.6155 36.7662 22.6063 36.7479 22.5975 36.7295C22.5888 36.7109 22.5805 36.6922 22.5727 36.6734C22.5648 36.6545 22.5575 36.6354 22.5505 36.6161C22.5437 36.5968 22.5373 36.5774 22.5313 36.5579C22.5254 36.5383 22.5199 36.5186 22.515 36.4987C22.51 36.4789 22.5055 36.4589 22.5015 36.4389C22.4975 36.4188 22.494 36.3986 22.491 36.3784C22.488 36.3582 22.4855 36.3379 22.4835 36.3175C22.4815 36.2972 22.48 36.2768 22.479 36.2563C22.478 36.2359 22.4775 36.2155 22.4775 36.195L22.5 31.25C22.5 31.1886 22.5015 31.1273 22.5045 31.066C22.5075 31.0047 22.512 30.9435 22.518 30.8824C22.5241 30.8214 22.5316 30.7605 22.5406 30.6998C22.5496 30.6391 22.5601 30.5786 22.5721 30.5184C22.584 30.4582 22.5975 30.3984 22.6124 30.3388C22.6273 30.2793 22.6437 30.2202 22.6615 30.1614C22.6793 30.1027 22.6986 30.0445 22.7192 29.9867C22.7399 29.9289 22.762 29.8716 22.7855 29.8149C22.8089 29.7582 22.8338 29.7021 22.86 29.6467C22.8863 29.5912 22.9139 29.5364 22.9428 29.4823C22.9718 29.4282 23.002 29.3748 23.0335 29.3221C23.0651 29.2695 23.0979 29.2177 23.132 29.1666C23.1661 29.1156 23.2014 29.0654 23.238 29.0161C23.2745 28.9668 23.3123 28.9185 23.3512 28.871C23.3902 28.8236 23.4302 28.7771 23.4714 28.7316C23.5127 28.6862 23.555 28.6418 23.5984 28.5984C23.6418 28.555 23.6862 28.5127 23.7316 28.4714C23.7771 28.4302 23.8236 28.3902 23.871 28.3512C23.9185 28.3123 23.9668 28.2745 24.0161 28.238C24.0654 28.2014 24.1156 28.1661 24.1666 28.132C24.2177 28.0979 24.2695 28.0651 24.3221 28.0335C24.3748 28.002 24.4282 27.9717 24.4823 27.9428C24.5364 27.9139 24.5912 27.8863 24.6467 27.86C24.7021 27.8338 24.7582 27.8089 24.8149 27.7855C24.8716 27.762 24.9289 27.7399 24.9867 27.7192C25.0445 27.6986 25.1027 27.6793 25.1614 27.6615C25.2202 27.6437 25.2793 27.6273 25.3388 27.6124C25.3984 27.5975 25.4582 27.584 25.5184 27.5721C25.5786 27.5601 25.6391 27.5496 25.6998 27.5406C25.7605 27.5316 25.8214 27.5241 25.8824 27.518C25.9435 27.512 26.0047 27.5075 26.066 27.5045C26.1273 27.5015 26.1886 27.5 26.25 27.5L31.24 27.545C31.2605 27.545 31.2809 27.5455 31.3013 27.5465C31.3218 27.5475 31.3422 27.549 31.3625 27.551C31.3829 27.553 31.4032 27.5555 31.4234 27.5585C31.4436 27.5615 31.4638 27.565 31.4839 27.569C31.5039 27.573 31.5239 27.5775 31.5437 27.5825C31.5636 27.5874 31.5833 27.5929 31.6029 27.5988C31.6224 27.6048 31.6418 27.6112 31.6611 27.6181C31.6804 27.625 31.6995 27.6323 31.7184 27.6402C31.7373 27.648 31.756 27.6562 31.7745 27.665C31.7929 27.6737 31.8112 27.6829 31.8293 27.6926C31.8473 27.7022 31.8651 27.7123 31.8826 27.7229C31.9002 27.7334 31.9175 27.7443 31.9345 27.7557C31.9514 27.767 31.9682 27.7788 31.9846 27.791C32.0011 27.8032 32.0172 27.8157 32.033 27.8288C32.0488 27.8417 32.0643 27.8551 32.0795 27.8688C32.0946 27.8825 32.1094 27.8966 32.1239 27.9111C32.1384 27.9256 32.1525 27.9404 32.1662 27.9555C32.1799 27.9707 32.1933 27.9862 32.2062 28.002C32.2193 28.0178 32.2318 28.0339 32.244 28.0504C32.2562 28.0668 32.268 28.0836 32.2793 28.1005C32.2907 28.1175 32.3016 28.1348 32.3121 28.1524C32.3227 28.1699 32.3327 28.1877 32.3424 28.2057C32.352 28.2238 32.3613 28.2421 32.37 28.2605C32.3787 28.279 32.387 28.2977 32.3948 28.3166C32.4027 28.3355 32.41 28.3546 32.4169 28.3739C32.4238 28.3931 32.4302 28.4126 32.4362 28.4321C32.4421 28.4517 32.4476 28.4714 32.4525 28.4913C32.4575 28.5111 32.462 28.5311 32.466 28.5511C32.47 28.5712 32.4735 28.5914 32.4765 28.6116C32.4795 28.6318 32.482 28.6521 32.484 28.6725C32.486 28.6929 32.4875 28.7132 32.4885 28.7337C32.4895 28.7541 32.49 28.7745 32.49 28.795C32.49 28.8155 32.4895 28.8359 32.4885 28.8563C32.4875 28.8768 32.486 28.8972 32.484 28.9175C32.482 28.9379 32.4795 28.9582 32.4765 28.9784C32.4735 28.9986 32.47 29.0188 32.466 29.0389C32.462 29.0589 32.4575 29.0789 32.4525 29.0987C32.4476 29.1186 32.4421 29.1383 32.4362 29.1579C32.4302 29.1774 32.4238 29.1968 32.4169 29.2161C32.41 29.2354 32.4027 29.2545 32.3948 29.2734C32.387 29.2923 32.3787 29.311 32.37 29.3295C32.3613 29.3479 32.352 29.3662 32.3424 29.3843C32.3327 29.4023 32.3227 29.4201 32.3121 29.4376C32.3016 29.4552 32.2907 29.4725 32.2793 29.4895C32.268 29.5064 32.2562 29.5232 32.244 29.5396C32.2318 29.5561 32.2193 29.5722 32.2062 29.588C32.1933 29.6038 32.1799 29.6193 32.1662 29.6345C32.1525 29.6496 32.1384 29.6644 32.1239 29.6789C32.1094 29.6934 32.0946 29.7075 32.0795 29.7212C32.0643 29.7349 32.0488 29.7483 32.033 29.7612C32.0172 29.7743 32.0011 29.7868 31.9846 29.799C31.9682 29.8112 31.9514 29.823 31.9345 29.8343C31.9175 29.8457 31.9002 29.8566 31.8826 29.8671C31.8651 29.8777 31.8473 29.8877 31.8293 29.8974C31.8112 29.907 31.7929 29.9163 31.7745 29.925C31.7559 29.9337 31.7372 29.942 31.7184 29.9498C31.6995 29.9577 31.6804 29.965 31.6611 29.9719C31.6418 29.9788 31.6224 29.9852 31.6029 29.9912C31.5833 29.9971 31.5636 30.0026 31.5437 30.0075C31.5239 30.0125 31.5039 30.017 31.4839 30.021C31.4638 30.025 31.4436 30.0285 31.4234 30.0315C31.4032 30.0345 31.3829 30.037 31.3625 30.039C31.3422 30.041 31.3218 30.0425 31.3013 30.0435C31.2809 30.0445 31.2605 30.045 31.24 30.045L26.25 30C26.2295 30 26.2091 30.0005 26.1887 30.0015C26.1682 30.0025 26.1479 30.004 26.1275 30.006C26.1071 30.008 26.0868 30.0105 26.0666 30.0135C26.0464 30.0165 26.0262 30.02 26.0061 30.024C25.9861 30.028 25.9661 30.0325 25.9463 30.0375C25.9264 30.0424 25.9067 30.0479 25.8871 30.0538C25.8676 30.0598 25.8481 30.0662 25.8289 30.0731C25.8096 30.08 25.7905 30.0873 25.7716 30.0952C25.7527 30.103 25.734 30.1112 25.7155 30.12C25.6971 30.1287 25.6788 30.138 25.6607 30.1476C25.6427 30.1573 25.6249 30.1673 25.6074 30.1779C25.5898 30.1884 25.5725 30.1993 25.5555 30.2107C25.5385 30.222 25.5218 30.2338 25.5054 30.246C25.4889 30.2582 25.4728 30.2707 25.457 30.2838C25.4412 30.2967 25.4257 30.3101 25.4105 30.3238C25.3954 30.3375 25.3806 30.3516 25.3661 30.3661C25.3516 30.3806 25.3375 30.3954 25.3238 30.4105C25.3101 30.4257 25.2967 30.4412 25.2838 30.457C25.2707 30.4728 25.2582 30.4889 25.246 30.5054C25.2338 30.5218 25.222 30.5385 25.2107 30.5555C25.1993 30.5725 25.1884 30.5898 25.1779 30.6074C25.1673 30.6249 25.1573 30.6427 25.1476 30.6607C25.138 30.6788 25.1287 30.6971 25.12 30.7155C25.1113 30.734 25.103 30.7527 25.0952 30.7716C25.0873 30.7905 25.08 30.8096 25.0731 30.8289C25.0662 30.8482 25.0598 30.8676 25.0538 30.8871C25.0479 30.9067 25.0424 30.9264 25.0375 30.9463C25.0325 30.9661 25.028 30.9861 25.024 31.0061C25.02 31.0262 25.0165 31.0464 25.0135 31.0666C25.0105 31.0868 25.008 31.1071 25.006 31.1275C25.004 31.1479 25.0025 31.1682 25.0015 31.1887C25.0005 31.2091 25 31.2295 25 31.25L24.9775 36.195Z"   fill="#FFFFFF" >
</path>
<path d="M24.9185 37.0176C24.9037 37.0318 24.8886 37.0455 24.8732 37.059C24.8577 37.0724 24.8419 37.0854 24.8259 37.0981C24.8098 37.1107 24.7934 37.123 24.7767 37.1348C24.76 37.1467 24.743 37.1581 24.7258 37.1691C24.7085 37.1801 24.691 37.1907 24.6732 37.2009C24.6555 37.211 24.6375 37.2207 24.6192 37.23C24.601 37.2393 24.5825 37.2481 24.5638 37.2564C24.5452 37.2648 24.5263 37.2727 24.5072 37.2802C24.4881 37.2876 24.4689 37.2945 24.4495 37.301C24.4301 37.3075 24.4105 37.3136 24.3908 37.3191C24.3711 37.3246 24.3513 37.3297 24.3313 37.3342C24.3114 37.3388 24.2913 37.3428 24.2712 37.3464C24.2511 37.35 24.2308 37.353 24.2105 37.3556C24.1902 37.3582 24.1698 37.3603 24.1495 37.3619C24.129 37.3634 24.1086 37.3645 24.0882 37.3651C24.0677 37.3657 24.0472 37.3658 24.0268 37.3653C24.0063 37.3649 23.9859 37.364 23.9655 37.3625C23.945 37.3611 23.9247 37.3592 23.9043 37.3568C23.884 37.3543 23.8638 37.3514 23.8436 37.348C23.8234 37.3446 23.8033 37.3407 23.7834 37.3362C23.7634 37.3318 23.7435 37.3269 23.7237 37.3215C23.704 37.3161 23.6844 37.3103 23.665 37.3039C23.6455 37.2976 23.6262 37.2908 23.6071 37.2835C23.588 37.2762 23.5691 37.2684 23.5503 37.2602C23.5316 37.252 23.513 37.2433 23.4947 37.2341C23.4764 37.225 23.4583 37.2154 23.4405 37.2054C23.4226 37.1954 23.405 37.185 23.3877 37.1741C23.3704 37.1632 23.3533 37.1519 23.3366 37.1401C23.3198 37.1284 23.3033 37.1163 23.2871 37.1038C23.2709 37.0912 23.2551 37.0783 23.2395 37.065C23.224 37.0517 23.2088 37.038 23.1939 37.0239C23.179 37.0099 23.1645 36.9955 23.1504 36.9807C23.1362 36.9659 23.1224 36.9509 23.1089 36.9354C23.0955 36.9199 23.0825 36.9042 23.0698 36.8881C23.0572 36.872 23.045 36.8556 23.0331 36.8389C23.0213 36.8222 23.0098 36.8053 22.9988 36.788C22.9878 36.7707 22.9772 36.7532 22.9671 36.7355C22.9569 36.7177 22.9472 36.6997 22.9379 36.6814C22.9287 36.6632 22.9198 36.6447 22.9115 36.6261C22.9031 36.6074 22.8952 36.5885 22.8878 36.5695C22.8804 36.5504 22.8734 36.5311 22.8669 36.5117C22.8604 36.4923 22.8544 36.4728 22.8489 36.453C22.8434 36.4334 22.8383 36.4136 22.8337 36.3936C22.8292 36.3736 22.8251 36.3536 22.8215 36.3334C22.818 36.3133 22.8149 36.293 22.8123 36.2727C22.8097 36.2524 22.8077 36.2321 22.8061 36.2117C22.8045 36.1913 22.8034 36.1709 22.8028 36.1504C22.8022 36.1299 22.8021 36.1095 22.8026 36.089C22.803 36.0686 22.8039 36.0481 22.8054 36.0277C22.8068 36.0073 22.8088 35.9869 22.8112 35.9666C22.8136 35.9463 22.8165 35.926 22.82 35.9058C22.8234 35.8857 22.8273 35.8656 22.8317 35.8456C22.8361 35.8256 22.841 35.8057 22.8464 35.786C22.8518 35.7663 22.8577 35.7466 22.864 35.7272C22.8703 35.7077 22.8771 35.6885 22.8845 35.6693C22.8918 35.6502 22.8995 35.6313 22.9077 35.6125C22.916 35.5938 22.9246 35.5753 22.9338 35.557C22.9429 35.5387 22.9525 35.5206 22.9625 35.5027C22.9725 35.4849 22.983 35.4673 22.9939 35.45C23.0048 35.4326 23.0161 35.4156 23.0278 35.3988C23.0395 35.382 23.0516 35.3655 23.0642 35.3494C23.0767 35.3332 23.0896 35.3173 23.1029 35.3018C23.1162 35.2862 23.1299 35.271 23.144 35.2561C23.158 35.2413 23.1725 35.2268 23.1872 35.2126L30.2335 28.4551C30.2481 28.4404 30.2631 28.426 30.2785 28.412C30.2938 28.398 30.3095 28.3845 30.3255 28.3713C30.3416 28.358 30.3579 28.3453 30.3746 28.3329C30.3913 28.3205 30.4082 28.3085 30.4255 28.297C30.4428 28.2854 30.4604 28.2743 30.4782 28.2636C30.496 28.253 30.5141 28.2428 30.5324 28.233C30.5507 28.2232 30.5693 28.2139 30.5881 28.2051C30.6069 28.1963 30.6259 28.1879 30.6451 28.18C30.6643 28.1721 30.6837 28.1647 30.7033 28.1578C30.7229 28.1509 30.7426 28.1444 30.7625 28.1385C30.7824 28.1325 30.8024 28.1271 30.8226 28.1221C30.8428 28.1172 30.863 28.1128 30.8834 28.1089C30.9038 28.105 30.9243 28.1015 30.9449 28.0986C30.9655 28.0957 30.9861 28.0933 31.0068 28.0914C31.0274 28.0895 31.0482 28.0882 31.0689 28.0873C31.0896 28.0864 31.1104 28.0861 31.1312 28.0863C31.152 28.0865 31.1727 28.0872 31.1934 28.0884C31.2142 28.0896 31.2348 28.0914 31.2555 28.0936C31.2762 28.0959 31.2968 28.0986 31.3173 28.1019C31.3378 28.1052 31.3582 28.1089 31.3785 28.1132C31.3988 28.1175 31.419 28.1223 31.4391 28.1277C31.4592 28.133 31.4791 28.1388 31.4989 28.145C31.5187 28.1514 31.5383 28.1581 31.5578 28.1654C31.5772 28.1727 31.5965 28.1804 31.6155 28.1886C31.6346 28.1969 31.6535 28.2056 31.6721 28.2148C31.6907 28.2239 31.7091 28.2336 31.7273 28.2436C31.7455 28.2537 31.7634 28.2643 31.781 28.2752C31.7986 28.2863 31.8159 28.2977 31.833 28.3095C31.8501 28.3214 31.8668 28.3336 31.8832 28.3463C31.8997 28.359 31.9158 28.3721 31.9316 28.3855C31.9474 28.399 31.9629 28.4129 31.978 28.4271C31.9931 28.4414 32.0078 28.456 32.0222 28.471C32.0366 28.486 32.0505 28.5013 32.0642 28.517C32.0778 28.5327 32.091 28.5487 32.1038 28.5651C32.1166 28.5814 32.129 28.5981 32.141 28.615C32.153 28.632 32.1645 28.6493 32.1757 28.6668C32.1868 28.6843 32.1975 28.7021 32.2077 28.7202C32.2179 28.7383 32.2277 28.7566 32.237 28.7752C32.2464 28.7937 32.2552 28.8125 32.2636 28.8315C32.272 28.8505 32.2799 28.8697 32.2873 28.8891C32.2948 28.9085 32.3017 28.928 32.3082 28.9478C32.3146 28.9675 32.3206 28.9874 32.3261 29.0075C32.3315 29.0275 32.3364 29.0477 32.3409 29.0679C32.3454 29.0882 32.3493 29.1086 32.3528 29.1291C32.3562 29.1496 32.3591 29.1701 32.3616 29.1907C32.364 29.2114 32.3659 29.2321 32.3673 29.2528C32.3686 29.2735 32.3695 29.2942 32.3699 29.315C32.3702 29.3358 32.3701 29.3565 32.3694 29.3773C32.3687 29.3981 32.3675 29.4188 32.3658 29.4395C32.3641 29.4602 32.3619 29.4808 32.3591 29.5014C32.3564 29.522 32.3531 29.5425 32.3493 29.5629C32.3456 29.5834 32.3413 29.6037 32.3365 29.6239C32.3318 29.6441 32.3265 29.6642 32.3207 29.6841C32.3149 29.7041 32.3086 29.7239 32.3019 29.7435C32.2951 29.7631 32.2878 29.7826 32.2801 29.8018C32.2724 29.8211 32.2642 29.8402 32.2555 29.8591C32.2468 29.8779 32.2377 29.8966 32.228 29.915C32.2184 29.9334 32.2083 29.9516 32.1978 29.9695C32.1873 29.9873 32.1763 30.005 32.165 30.0223C32.1536 30.0397 32.1417 30.0568 32.1295 30.0736C32.1172 30.0904 32.1046 30.1068 32.0915 30.1229C32.0784 30.1391 32.065 30.1548 32.0511 30.1703C32.0372 30.1858 32.023 30.2009 32.0084 30.2157C31.9938 30.2304 31.9788 30.2448 31.9635 30.2588L24.9185 37.0176ZM34.4097 13.0676C34.425 13.0545 34.44 13.041 34.4546 13.0271C34.4693 13.0133 34.4836 12.9991 34.4975 12.9846C34.5114 12.97 34.525 12.9552 34.5382 12.9399C34.5514 12.9247 34.5642 12.9092 34.5767 12.8933C34.5891 12.8775 34.6011 12.8614 34.6128 12.8449C34.6245 12.8285 34.6357 12.8118 34.6465 12.7947C34.6573 12.7778 34.6677 12.7605 34.6777 12.743C34.6877 12.7255 34.6972 12.7077 34.7063 12.6898C34.7154 12.6718 34.7241 12.6536 34.7323 12.6352C34.7405 12.6168 34.7482 12.5982 34.7555 12.5795C34.7628 12.5607 34.7696 12.5417 34.776 12.5226C34.7823 12.5035 34.7882 12.4842 34.7936 12.4648C34.799 12.4454 34.8039 12.4259 34.8084 12.4062C34.8128 12.3866 34.8168 12.3668 34.8203 12.347C34.8237 12.3271 34.8267 12.3072 34.8292 12.2872C34.8317 12.2672 34.8337 12.2472 34.8352 12.2271C34.8367 12.207 34.8377 12.1869 34.8382 12.1668C34.8387 12.1466 34.8388 12.1265 34.8383 12.1063C34.8378 12.0862 34.8368 12.0661 34.8354 12.046C34.8339 12.0259 34.832 12.0058 34.8295 11.9858C34.827 11.9658 34.8241 11.9459 34.8207 11.9261C34.8172 11.9062 34.8133 11.8865 34.8089 11.8668C34.8045 11.8472 34.7996 11.8276 34.7942 11.8082C34.7889 11.7888 34.783 11.7695 34.7767 11.7504C34.7704 11.7313 34.7636 11.7123 34.7563 11.6935C34.7491 11.6747 34.7414 11.6561 34.7332 11.6377C34.725 11.6193 34.7164 11.6011 34.7073 11.5831C34.6983 11.5651 34.6888 11.5473 34.6788 11.5298C34.6689 11.5123 34.6586 11.495 34.6477 11.478C34.637 11.461 34.6257 11.4442 34.6141 11.4277C34.6025 11.4113 34.5905 11.3951 34.5781 11.3793C34.5657 11.3634 34.5529 11.3478 34.5397 11.3326L34.5235 11.3126C34.5102 11.2973 34.4964 11.2823 34.4823 11.2676C34.4683 11.2529 34.4539 11.2386 34.4391 11.2247C34.4243 11.2107 34.4093 11.1971 34.3938 11.1838C34.3784 11.1706 34.3627 11.1578 34.3466 11.1453C34.3305 11.1329 34.3142 11.1208 34.2975 11.1092C34.2809 11.0975 34.264 11.0862 34.2468 11.0754C34.2296 11.0646 34.2121 11.0542 34.1945 11.0442C34.1768 11.0342 34.1588 11.0246 34.1406 11.0155C34.1225 11.0064 34.1041 10.9978 34.0855 10.9895C34.0669 10.9813 34.0481 10.9736 34.0292 10.9663C34.0102 10.959 33.9911 10.9522 33.9718 10.9458C33.9525 10.9394 33.933 10.9335 33.9134 10.9281C33.8938 10.9227 33.8741 10.9178 33.8543 10.9133C33.8345 10.9088 33.8146 10.9049 33.7945 10.9014C33.7745 10.8979 33.7544 10.8949 33.7342 10.8924C33.7141 10.8899 33.6939 10.8879 33.6736 10.8864C33.6533 10.8849 33.633 10.8839 33.6127 10.8833C33.5924 10.8828 33.5721 10.8828 33.5518 10.8832C33.5314 10.8837 33.5111 10.8847 33.4909 10.8861C33.4706 10.8876 33.4504 10.8895 33.4302 10.892C33.41 10.8944 33.3899 10.8973 33.3699 10.9008C33.3498 10.9042 33.3299 10.9081 33.3101 10.9125C33.2902 10.9169 33.2705 10.9217 33.2509 10.9271C33.2313 10.9325 33.2118 10.9383 33.1925 10.9446C33.1732 10.9509 33.1541 10.9577 33.135 10.9649C33.1161 10.9721 33.0973 10.9798 33.0786 10.988C33.06 10.9961 33.0416 11.0047 33.0234 11.0138C33.0052 11.0229 32.9873 11.0324 32.9695 11.0423C32.9518 11.0522 32.9343 11.0626 32.9171 11.0733C32.8999 11.0841 32.8829 11.0953 32.8662 11.1069C32.8496 11.1185 32.8332 11.1306 32.8171 11.1429C32.801 11.1554 32.7852 11.1682 32.7697 11.1813L15.9497 25.4801L15.356 27.5051L17.6347 27.3276L34.4097 13.0676ZM36.426 9.69259C36.4659 9.73861 36.5048 9.78556 36.5424 9.83345C36.5801 9.88137 36.6166 9.93019 36.6518 9.9799C36.6871 10.0296 36.7211 10.0801 36.7539 10.1315C36.7867 10.1829 36.8182 10.235 36.8484 10.2879C36.8787 10.3408 36.9076 10.3945 36.9352 10.4488C36.9628 10.5031 36.989 10.5581 37.0139 10.6137C37.0388 10.6694 37.0623 10.7256 37.0845 10.7824C37.1066 10.8391 37.1273 10.8964 37.1467 10.9542C37.166 11.012 37.1839 11.0702 37.2004 11.1289C37.2168 11.1876 37.2319 11.2466 37.2454 11.306C37.259 11.3655 37.2711 11.4252 37.2818 11.4852C37.2924 11.5452 37.3016 11.6054 37.3093 11.6659C37.317 11.7263 37.3231 11.7869 37.3279 11.8477C37.3326 11.9085 37.3358 11.9693 37.3375 12.0302C37.3392 12.0911 37.3395 12.152 37.3382 12.213C37.3369 12.2739 37.3342 12.3348 37.3299 12.3955C37.3257 12.4563 37.3199 12.517 37.3127 12.5775C37.3055 12.638 37.2968 12.6983 37.2866 12.7584C37.2764 12.8185 37.2647 12.8783 37.2516 12.9378C37.2385 12.9973 37.2239 13.0565 37.2079 13.1153C37.1918 13.1741 37.1744 13.2324 37.1555 13.2904C37.1366 13.3483 37.1163 13.4057 37.0946 13.4627C37.0729 13.5196 37.0498 13.576 37.0253 13.6318C37.0008 13.6877 36.975 13.7428 36.9478 13.7973C36.9206 13.8519 36.8921 13.9057 36.8623 13.9589C36.8325 14.012 36.8013 14.0644 36.7689 14.116C36.7366 14.1677 36.7029 14.2184 36.668 14.2684C36.6331 14.3184 36.597 14.3674 36.5597 14.4156C36.5224 14.4638 36.4839 14.5111 36.4443 14.5574C36.4047 14.6037 36.3639 14.649 36.3221 14.6933C36.2803 14.7376 36.2374 14.7809 36.1934 14.823C36.1495 14.8652 36.1045 14.9063 36.0585 14.9463L18.946 29.4951C18.9211 29.5163 18.8954 29.5364 18.8689 29.5555C18.8425 29.5746 18.8153 29.5927 18.7874 29.6097C18.7596 29.6268 18.7311 29.6426 18.7019 29.6574C18.6728 29.6722 18.6431 29.6858 18.6129 29.6982C18.5827 29.7107 18.5521 29.722 18.521 29.732C18.49 29.742 18.4585 29.7509 18.4268 29.7584C18.395 29.766 18.363 29.7723 18.3307 29.7774C18.2984 29.7825 18.266 29.7863 18.2335 29.7888L13.7435 30.1363C13.7183 30.1383 13.6932 30.1395 13.668 30.1399C13.6428 30.1404 13.6176 30.14 13.5925 30.1389C13.5673 30.1379 13.5422 30.136 13.5171 30.1334C13.4921 30.1308 13.4671 30.1274 13.4423 30.1233C13.4174 30.1192 13.3927 30.1143 13.3681 30.1087C13.3436 30.1031 13.3192 30.0968 13.295 30.0897C13.2708 30.0826 13.2469 30.0748 13.2232 30.0662C13.1995 30.0577 13.176 30.0485 13.1529 30.0385C13.1298 30.0286 13.1069 30.0179 13.0844 30.0066C13.0619 29.9953 13.0398 29.9833 13.018 29.9706C12.9962 29.958 12.9749 29.9446 12.9539 29.9307C12.9329 29.9167 12.9124 29.9021 12.8923 29.8869C12.8722 29.8718 12.8526 29.8559 12.8334 29.8395C12.8143 29.8232 12.7957 29.8062 12.7776 29.7887C12.7594 29.7712 12.7419 29.7532 12.7249 29.7346C12.7078 29.716 12.6914 29.6969 12.6755 29.6773C12.6597 29.6578 12.6444 29.6377 12.6298 29.6172C12.6151 29.5968 12.6011 29.5759 12.5877 29.5545C12.5743 29.5332 12.5615 29.5114 12.5495 29.4893C12.5374 29.4672 12.526 29.4448 12.5153 29.422C12.5046 29.3991 12.4946 29.3761 12.4852 29.3527C12.4759 29.3293 12.4673 29.3056 12.4594 29.2816C12.4515 29.2577 12.4443 29.2336 12.4379 29.2092C12.4315 29.1848 12.4258 29.1603 12.4208 29.1356C12.4159 29.1109 12.4117 29.0861 12.4082 29.0611C12.4048 29.0362 12.4021 29.0111 12.4002 28.986C12.3982 28.9609 12.3971 28.9357 12.3966 28.9105C12.3962 28.8854 12.3966 28.8602 12.3977 28.835C12.3988 28.8098 12.4007 28.7847 12.4033 28.7596C12.4059 28.7346 12.4093 28.7096 12.4135 28.6848C12.4176 28.66 12.4225 28.6352 12.4281 28.6107C12.4337 28.5861 12.4401 28.5618 12.4472 28.5376L13.656 24.4176C13.6645 24.3886 13.6741 24.3599 13.6847 24.3316C13.6953 24.3032 13.7069 24.2754 13.7196 24.2479C13.7323 24.2204 13.7459 24.1934 13.7605 24.1669C13.7751 24.1404 13.7906 24.1145 13.8071 24.0891C13.8236 24.0637 13.841 24.039 13.8593 24.0149C13.8776 23.9908 13.8967 23.9674 13.9167 23.9446C13.9367 23.922 13.9574 23.9 13.979 23.8787C14.0006 23.8576 14.0229 23.8372 14.046 23.8176L31.1485 9.27759C31.1949 9.23806 31.2423 9.19969 31.2905 9.16248C31.3389 9.12527 31.388 9.08925 31.4381 9.05443C31.4881 9.01961 31.539 8.98603 31.5907 8.95369C31.6423 8.92134 31.6948 8.89029 31.748 8.86052C31.8012 8.83073 31.8551 8.80227 31.9097 8.77513C31.9643 8.74797 32.0195 8.72217 32.0754 8.69771C32.1312 8.67326 32.1876 8.65017 32.2446 8.62845C32.3016 8.60676 32.3591 8.58646 32.417 8.56756C32.475 8.54865 32.5334 8.53118 32.5922 8.51513C32.6511 8.49907 32.7102 8.48446 32.7698 8.47131C32.8293 8.45813 32.8891 8.44642 32.9492 8.43619C33.0093 8.42593 33.0696 8.41715 33.1302 8.40986C33.1907 8.40254 33.2514 8.39671 33.3122 8.39236C33.373 8.38801 33.4339 8.38515 33.4948 8.38377C33.5558 8.38239 33.6167 8.3825 33.6777 8.38412C33.7386 8.38571 33.7995 8.38878 33.8603 8.39334C33.9211 8.39789 33.9818 8.40394 34.0423 8.41146C34.1028 8.41899 34.163 8.42799 34.2231 8.43845C34.2832 8.44892 34.343 8.46085 34.4025 8.47424C34.462 8.48759 34.5211 8.50241 34.5798 8.51869C34.6386 8.53494 34.6969 8.55262 34.7548 8.57174C34.8127 8.59085 34.8701 8.61136 34.927 8.63326C34.9839 8.65516 35.0403 8.67844 35.096 8.7031C35.1518 8.72776 35.2069 8.75377 35.2614 8.78111C35.3159 8.80845 35.3697 8.83711 35.4228 8.86709C35.4759 8.89706 35.5282 8.9283 35.5798 8.9608C35.6314 8.99332 35.6821 9.02709 35.732 9.06209C35.782 9.09709 35.831 9.13329 35.8792 9.17068C35.9273 9.20808 35.9745 9.24662 36.0208 9.2863C36.0671 9.32599 36.1124 9.36679 36.1567 9.40869C36.201 9.45059 36.2442 9.49355 36.2864 9.53755C36.3286 9.58157 36.3697 9.62658 36.4097 9.67259L36.426 9.69259Z"   fill="#FFFFFF" >
</path>
</svg>
