<svg xmlns="http://www.w3.org/2000/svg" xmlns:xlink="http://www.w3.org/1999/xlink" width="35" height="35" viewBox="0 0 35 35" fill="none">
<path d="M19.6796 30.6212L7.64832 30.6212C7.59469 30.6212 7.54106 30.6199 7.48747 30.6173C7.43391 30.6147 7.38041 30.6108 7.32699 30.6056C7.2736 30.6004 7.22039 30.5939 7.1673 30.586C7.11426 30.5782 7.06142 30.5691 7.00878 30.5587C6.95614 30.5482 6.90381 30.5365 6.85176 30.5235C6.79974 30.5105 6.74802 30.4962 6.69665 30.4807C6.64531 30.4651 6.59438 30.4483 6.54387 30.4303C6.49335 30.4122 6.44331 30.3929 6.39372 30.3724C6.34416 30.3519 6.29514 30.3302 6.24661 30.3073C6.19811 30.2844 6.15019 30.2603 6.10288 30.235C6.05558 30.2097 6.00889 30.1833 5.96285 30.1557C5.91684 30.1281 5.87155 30.0994 5.82691 30.0697C5.78231 30.0399 5.73846 30.009 5.69536 29.9771C5.65226 29.9451 5.60998 29.9121 5.56849 29.8781C5.52702 29.8441 5.4864 29.809 5.44664 29.773C5.4069 29.737 5.36806 29.7 5.33012 29.6621C5.29218 29.6241 5.2552 29.5853 5.21918 29.5455C5.18315 29.5058 5.14813 29.4651 5.11411 29.4237C5.08006 29.3822 5.04707 29.3399 5.01512 29.2968C4.98317 29.2537 4.9523 29.2099 4.9225 29.1652C4.89271 29.1206 4.86403 29.0754 4.83647 29.0293C4.80889 28.9833 4.78247 28.9366 4.7572 28.8893C4.73193 28.842 4.70783 28.7941 4.68491 28.7456C4.66199 28.6971 4.64027 28.648 4.61977 28.5984C4.59926 28.5489 4.57998 28.4988 4.56193 28.4483C4.54389 28.3978 4.52708 28.3468 4.51152 28.2955C4.49598 28.2441 4.4817 28.1925 4.46869 28.1404C4.45568 28.0883 4.44397 28.036 4.43356 27.9834C4.42312 27.9308 4.41398 27.8779 4.40614 27.8249C4.3983 27.7718 4.39177 27.7186 4.38656 27.6652C4.38134 27.6117 4.37743 27.5583 4.37483 27.5047C4.37224 27.4511 4.37096 27.3975 4.37101 27.3438L4.37101 7.65635C4.37101 6.77971 4.71044 5.95393 5.33016 5.33407C5.94986 4.71426 6.77191 4.37099 7.64832 4.37099L27.3358 4.37099C27.3896 4.37104 27.4433 4.3724 27.497 4.37509C27.5507 4.37778 27.6043 4.38178 27.6578 4.38709C27.7112 4.3924 27.7646 4.39901 27.8177 4.40691C27.8709 4.41484 27.9238 4.42407 27.9765 4.4346C28.0293 4.44512 28.0817 4.45693 28.1338 4.47001C28.186 4.48311 28.2378 4.49748 28.2892 4.51311C28.3406 4.52874 28.3917 4.54563 28.4422 4.56376C28.4929 4.5819 28.543 4.60126 28.5926 4.62183C28.6423 4.64243 28.6914 4.66423 28.74 4.68722C28.7886 4.71024 28.8366 4.73442 28.884 4.75978C28.9314 4.78512 28.9781 4.81162 29.0242 4.83928C29.0703 4.86693 29.1157 4.89568 29.1604 4.92555C29.2051 4.95543 29.249 4.98638 29.2922 5.01842C29.3354 5.05044 29.3777 5.0835 29.4193 5.11761C29.4608 5.15172 29.5015 5.18682 29.5413 5.22292C29.5812 5.25901 29.6201 5.29607 29.6581 5.33407C29.6961 5.3721 29.7331 5.41102 29.7692 5.45083C29.8053 5.49066 29.8404 5.53136 29.8745 5.57292C29.9087 5.61445 29.9417 5.65684 29.9738 5.7C30.0058 5.74317 30.0367 5.78709 30.0666 5.83177C30.0965 5.87647 30.1253 5.92187 30.1529 5.96797C30.1806 6.01408 30.207 6.06081 30.2324 6.10821C30.2578 6.15562 30.2819 6.20361 30.3049 6.25218C30.3279 6.30078 30.3497 6.3499 30.3703 6.39956C30.3909 6.44922 30.4103 6.49933 30.4284 6.54992C30.4465 6.60054 30.4634 6.65153 30.479 6.70297C30.4947 6.75441 30.5091 6.8062 30.5221 6.85832C30.5352 6.91044 30.547 6.96288 30.5576 7.01561C30.5681 7.06832 30.5773 7.12126 30.5852 7.17445C30.5932 7.2276 30.5998 7.28092 30.6051 7.33441C30.6104 7.3879 30.6144 7.44149 30.6171 7.49519C30.6198 7.54889 30.6211 7.60258 30.6212 7.65635L30.6212 19.6876C30.6212 19.7055 30.6216 19.7233 30.6225 19.7412C30.6234 19.7591 30.6247 19.7769 30.6264 19.7947C30.6282 19.8125 30.6304 19.8302 30.633 19.8479C30.6356 19.8656 30.6387 19.8832 30.6422 19.9008C30.6456 19.9183 30.6496 19.9358 30.6539 19.9531C30.6583 19.9704 30.663 19.9877 30.6682 20.0048C30.6734 20.0219 30.679 20.0389 30.685 20.0557C30.6911 20.0726 30.6975 20.0892 30.7043 20.1058C30.7112 20.1223 30.7184 20.1386 30.7261 20.1548C30.7337 20.171 30.7418 20.1869 30.7502 20.2027C30.7586 20.2184 30.7675 20.234 30.7766 20.2494C30.7858 20.2647 30.7954 20.2798 30.8053 20.2947C30.8153 20.3095 30.8256 20.3242 30.8362 20.3385C30.8469 20.3529 30.8579 20.367 30.8692 20.3808C30.8806 20.3946 30.8922 20.4082 30.9042 20.4214C30.9163 20.4347 30.9286 20.4476 30.9412 20.4603C30.9539 20.4729 30.9668 20.4852 30.9801 20.4972C30.9933 20.5092 31.0069 20.5209 31.0207 20.5323C31.0345 20.5436 31.0486 20.5546 31.0629 20.5653C31.0773 20.5759 31.092 20.5862 31.1068 20.5962C31.1217 20.6061 31.1368 20.6156 31.1521 20.6248C31.1675 20.634 31.183 20.6429 31.1988 20.6513C31.2146 20.6597 31.2305 20.6678 31.2467 20.6754C31.2629 20.683 31.2792 20.6903 31.2957 20.6971C31.3122 20.704 31.3289 20.7104 31.3457 20.7164C31.3626 20.7225 31.3796 20.7281 31.3967 20.7333C31.4138 20.7385 31.431 20.7432 31.4484 20.7476C31.4657 20.7519 31.4832 20.7558 31.5007 20.7593C31.5183 20.7628 31.5359 20.7659 31.5536 20.7685C31.5713 20.7711 31.589 20.7733 31.6068 20.7751C31.6246 20.7768 31.6424 20.7781 31.6603 20.779C31.6781 20.7799 31.696 20.7803 31.7139 20.7803C31.7318 20.7803 31.7497 20.7799 31.7675 20.779C31.7854 20.7781 31.8032 20.7768 31.821 20.7751C31.8388 20.7733 31.8566 20.7711 31.8742 20.7685C31.8919 20.7659 31.9095 20.7628 31.9271 20.7593C31.9446 20.7558 31.9621 20.7519 31.9794 20.7476C31.9968 20.7432 32.014 20.7385 32.0311 20.7333C32.0482 20.7281 32.0652 20.7225 32.082 20.7164C32.0989 20.7104 32.1155 20.704 32.132 20.6971C32.1486 20.6903 32.1649 20.683 32.1811 20.6754C32.1973 20.6678 32.2132 20.6597 32.229 20.6513C32.2448 20.6429 32.2604 20.634 32.2757 20.6248C32.291 20.6156 32.3061 20.6061 32.321 20.5962C32.3359 20.5862 32.3505 20.5759 32.3648 20.5653C32.3792 20.5546 32.3933 20.5436 32.4071 20.5323C32.4209 20.5209 32.4345 20.5092 32.4477 20.4972C32.461 20.4852 32.4739 20.4729 32.4866 20.4603C32.4992 20.4476 32.5115 20.4347 32.5235 20.4214C32.5356 20.4082 32.5472 20.3946 32.5586 20.3808C32.5699 20.367 32.5809 20.3529 32.5916 20.3385C32.6022 20.3242 32.6125 20.3095 32.6225 20.2947C32.6324 20.2798 32.642 20.2647 32.6512 20.2494C32.6604 20.234 32.6692 20.2184 32.6776 20.2027C32.686 20.1869 32.6941 20.171 32.7017 20.1548C32.7093 20.1386 32.7166 20.1223 32.7234 20.1058C32.7303 20.0892 32.7367 20.0726 32.7427 20.0557C32.7488 20.0389 32.7544 20.0219 32.7596 20.0048C32.7647 19.9877 32.7695 19.9704 32.7739 19.9531C32.7782 19.9358 32.7821 19.9183 32.7856 19.9008C32.7891 19.8832 32.7922 19.8656 32.7948 19.8479C32.7974 19.8302 32.7996 19.8125 32.8014 19.7947C32.8031 19.7769 32.8044 19.7591 32.8053 19.7412C32.8062 19.7233 32.8066 19.7055 32.8066 19.6876L32.8066 7.65635C32.8066 7.56683 32.8045 7.47735 32.8001 7.3879C32.7957 7.29845 32.7892 7.20921 32.7804 7.1201C32.7716 7.031 32.7606 6.94213 32.7475 6.85357C32.7344 6.76501 32.7192 6.67679 32.7017 6.58898C32.6842 6.50118 32.6646 6.41381 32.6429 6.32696C32.6211 6.24011 32.5973 6.15384 32.5713 6.06815C32.5453 5.98247 32.5172 5.8975 32.4871 5.81317C32.4569 5.72885 32.4247 5.64535 32.3904 5.5626C32.3562 5.47988 32.3199 5.39805 32.2817 5.31712C32.2434 5.23616 32.2031 5.1562 32.1609 5.07724C32.1188 4.99827 32.0746 4.92038 32.0286 4.84359C31.9826 4.76678 31.9347 4.69115 31.8849 4.61671C31.8352 4.54224 31.7837 4.46905 31.7303 4.39714C31.677 4.32522 31.6219 4.25465 31.5651 4.18543C31.5083 4.11623 31.4499 4.04845 31.3897 3.98209C31.3296 3.91576 31.2679 3.85093 31.2045 3.78761C31.1412 3.72431 31.0764 3.66259 31.0101 3.60246C30.9438 3.54233 30.876 3.48386 30.8067 3.42705C30.7375 3.37026 30.6669 3.31519 30.595 3.26185C30.5231 3.20852 30.4499 3.15698 30.3755 3.10724C30.301 3.0575 30.2254 3.00961 30.1486 2.96358C30.0718 2.91756 29.9939 2.87344 29.9149 2.83124C29.836 2.78904 29.756 2.7488 29.6751 2.71052C29.5941 2.67225 29.5123 2.63598 29.4296 2.60173C29.3468 2.56747 29.2633 2.53526 29.179 2.5051C29.0947 2.47495 29.0097 2.44688 28.924 2.4209C28.8384 2.39491 28.7521 2.37105 28.6652 2.34931C28.5784 2.32756 28.491 2.30796 28.4032 2.2905C28.3154 2.27305 28.2272 2.25776 28.1386 2.24463C28.05 2.23151 27.9612 2.22056 27.8721 2.2118C27.783 2.20304 27.6937 2.19647 27.6043 2.19209C27.5148 2.18771 27.4254 2.18553 27.3358 2.18555L7.64832 2.18555C7.55883 2.18548 7.46938 2.18761 7.37997 2.19194C7.29059 2.19627 7.20135 2.2028 7.11224 2.21152C7.02317 2.22024 6.93437 2.23115 6.84581 2.24424C6.75729 2.25733 6.6691 2.27258 6.58133 2.29001C6.49355 2.30744 6.40623 2.32701 6.31938 2.34873C6.23256 2.37046 6.14632 2.3943 6.06067 2.42026C5.97501 2.44623 5.89004 2.47428 5.80576 2.50442C5.72147 2.53457 5.638 2.56677 5.5553 2.60101C5.4726 2.63527 5.39081 2.67153 5.30992 2.7098C5.22901 2.74808 5.14908 2.78832 5.07015 2.83052C4.99122 2.87273 4.91338 2.91685 4.83664 2.96288C4.75987 3.00892 4.68428 3.05681 4.60989 3.10657C4.53549 3.15632 4.46236 3.20787 4.39049 3.26122C4.31862 3.31457 4.24811 3.36966 4.17895 3.42647C4.10979 3.4833 4.04207 3.54179 3.97579 3.60195C3.9095 3.66208 3.84474 3.72382 3.78151 3.78717C3.71825 3.85049 3.6566 3.91534 3.59656 3.98172C3.5365 4.04809 3.47811 4.1159 3.42139 4.18512C3.36467 4.25437 3.3097 4.32496 3.25645 4.3969C3.20321 4.46886 3.15176 4.54207 3.10212 4.61654C3.05248 4.69103 3.00469 4.76668 2.95877 4.84349C2.91285 4.92033 2.86884 4.99823 2.82675 5.07721C2.78466 5.15621 2.74454 5.23619 2.70638 5.31715C2.66823 5.39811 2.63208 5.47996 2.59796 5.5627C2.56383 5.64545 2.53175 5.72899 2.50173 5.81331C2.47171 5.89763 2.44378 5.98264 2.41794 6.06833C2.39211 6.15401 2.36839 6.24032 2.3468 6.32717C2.3252 6.41402 2.30576 6.50138 2.28846 6.58919C2.27116 6.677 2.25603 6.76521 2.24307 6.85377C2.23011 6.94233 2.21934 7.03113 2.21075 7.12024C2.20216 7.20935 2.19576 7.29859 2.19156 7.38797C2.18736 7.47738 2.18536 7.56683 2.18556 7.65635L2.18556 27.3438C2.18535 27.4333 2.18734 27.5227 2.19153 27.6121C2.19572 27.7014 2.2021 27.7906 2.21069 27.8797C2.21927 27.9687 2.23004 28.0575 2.24299 28.146C2.25595 28.2345 2.27107 28.3227 2.28837 28.4105C2.30567 28.4982 2.32511 28.5855 2.34671 28.6723C2.3683 28.7592 2.39202 28.8454 2.41786 28.931C2.4437 29.0167 2.47164 29.1017 2.50166 29.1859C2.53169 29.2702 2.56377 29.3537 2.59791 29.4364C2.63205 29.519 2.6682 29.6009 2.70636 29.6818C2.74453 29.7627 2.78466 29.8426 2.82676 29.9215C2.86886 30.0005 2.91288 30.0783 2.95881 30.1551C3.00475 30.2319 3.05255 30.3075 3.10221 30.3819C3.15186 30.4563 3.20332 30.5294 3.25658 30.6013C3.30984 30.6732 3.36483 30.7437 3.42156 30.8129C3.4783 30.8821 3.5367 30.9498 3.59677 31.0161C3.65683 31.0824 3.71849 31.1472 3.78175 31.2104C3.845 31.2737 3.90979 31.3354 3.97609 31.3954C4.04238 31.4555 4.11011 31.5139 4.17929 31.5706C4.24847 31.6273 4.319 31.6823 4.39086 31.7356C4.46273 31.7888 4.53588 31.8403 4.6103 31.89C4.68472 31.9396 4.76031 31.9874 4.83708 32.0334C4.91385 32.0793 4.9917 32.1233 5.07063 32.1654C5.14956 32.2075 5.22948 32.2476 5.3104 32.2858C5.39131 32.324 5.47312 32.3601 5.55581 32.3943C5.63852 32.4284 5.72198 32.4605 5.80624 32.4905C5.89052 32.5205 5.97546 32.5485 6.06111 32.5743C6.14677 32.6001 6.233 32.6239 6.31982 32.6455C6.40664 32.6671 6.49393 32.6865 6.5817 32.7038C6.66948 32.7211 6.75763 32.7362 6.84612 32.7492C6.93464 32.7621 7.02344 32.7729 7.11248 32.7815C7.20155 32.7901 7.29076 32.7964 7.38011 32.8006C7.46945 32.8048 7.55887 32.8068 7.64832 32.8066L19.6796 32.8066C19.6975 32.8066 19.7154 32.8062 19.7332 32.8053C19.751 32.8044 19.7689 32.8031 19.7867 32.8014C19.8045 32.7996 19.8222 32.7974 19.8399 32.7948C19.8576 32.7922 19.8752 32.7891 19.8927 32.7856C19.9103 32.7821 19.9277 32.7782 19.9451 32.7739C19.9624 32.7695 19.9797 32.7647 19.9968 32.7596C20.0139 32.7544 20.0309 32.7488 20.0477 32.7427C20.0645 32.7367 20.0812 32.7303 20.0977 32.7234C20.1143 32.7166 20.1306 32.7093 20.1468 32.7017C20.1629 32.6941 20.1789 32.686 20.1947 32.6776C20.2105 32.6691 20.226 32.6603 20.2413 32.6511C20.2567 32.6419 20.2718 32.6324 20.2867 32.6225C20.3015 32.6125 20.3162 32.6022 20.3305 32.5916C20.3449 32.5809 20.359 32.5699 20.3728 32.5586C20.3866 32.5472 20.4001 32.5355 20.4134 32.5235C20.4267 32.5115 20.4396 32.4992 20.4522 32.4866C20.4649 32.4739 20.4772 32.461 20.4892 32.4477C20.5012 32.4345 20.5129 32.4209 20.5242 32.4071C20.5356 32.3933 20.5466 32.3792 20.5572 32.3648C20.5679 32.3505 20.5782 32.3358 20.5881 32.321C20.5981 32.3061 20.6076 32.291 20.6168 32.2757C20.626 32.2603 20.6349 32.2448 20.6433 32.229C20.6517 32.2132 20.6597 32.1973 20.6674 32.1811C20.675 32.1649 20.6823 32.1486 20.6891 32.132C20.696 32.1155 20.7024 32.0989 20.7084 32.082C20.7144 32.0652 20.72 32.0482 20.7252 32.0311C20.7304 32.014 20.7352 31.9967 20.7395 31.9794C20.7439 31.9621 20.7478 31.9446 20.7513 31.9271C20.7548 31.9095 20.7579 31.8919 20.7605 31.8742C20.7631 31.8566 20.7653 31.8388 20.767 31.821C20.7688 31.8032 20.7701 31.7854 20.771 31.7675C20.7719 31.7496 20.7723 31.7318 20.7723 31.7139C20.7723 31.696 20.7719 31.6781 20.771 31.6603C20.7701 31.6424 20.7688 31.6246 20.767 31.6068C20.7653 31.589 20.7631 31.5712 20.7605 31.5536C20.7579 31.5359 20.7548 31.5182 20.7513 31.5007C20.7478 31.4832 20.7439 31.4657 20.7395 31.4484C20.7352 31.4311 20.7304 31.4138 20.7252 31.3967C20.72 31.3796 20.7144 31.3626 20.7084 31.3457C20.7024 31.3289 20.696 31.3122 20.6891 31.2957C20.6823 31.2792 20.675 31.2629 20.6674 31.2467C20.6597 31.2305 20.6517 31.2145 20.6433 31.1988C20.6349 31.183 20.626 31.1675 20.6168 31.1521C20.6076 31.1368 20.5981 31.1217 20.5881 31.1068C20.5782 31.0919 20.5679 31.0773 20.5573 31.0629C20.5466 31.0486 20.5356 31.0345 20.5242 31.0207C20.5129 31.0068 20.5012 30.9933 20.4892 30.9801C20.4772 30.9668 20.4649 30.9538 20.4522 30.9412C20.4396 30.9286 20.4267 30.9162 20.4134 30.9042C20.4001 30.8922 20.3866 30.8806 20.3728 30.8692C20.359 30.8579 20.3449 30.8469 20.3305 30.8362C20.3161 30.8256 20.3015 30.8153 20.2866 30.8053C20.2718 30.7954 20.2567 30.7858 20.2413 30.7766C20.226 30.7674 20.2105 30.7586 20.1947 30.7502C20.1789 30.7418 20.1629 30.7337 20.1468 30.7261C20.1306 30.7184 20.1143 30.7112 20.0977 30.7043C20.0812 30.6975 20.0645 30.6911 20.0477 30.685C20.0309 30.679 20.0139 30.6734 19.9968 30.6682C19.9797 30.663 19.9624 30.6583 19.9451 30.6539C19.9277 30.6496 19.9103 30.6456 19.8927 30.6422C19.8752 30.6387 19.8576 30.6356 19.8399 30.633C19.8222 30.6304 19.8045 30.6282 19.7867 30.6264C19.7689 30.6247 19.751 30.6234 19.7332 30.6225C19.7154 30.6216 19.6975 30.6212 19.6796 30.6212Z"   fill="#393E46" >
</path>
<path d="M31.6291 25.9154L28.7722 23.0585C28.7334 23.0197 28.6939 22.9818 28.6536 22.9447C28.6133 22.9075 28.5722 22.8712 28.5305 22.8358C28.4887 22.8003 28.4462 22.7657 28.403 22.732C28.3598 22.6982 28.316 22.6654 28.2715 22.6334C28.2269 22.6015 28.1818 22.5705 28.136 22.5403C28.0902 22.5102 28.0439 22.481 27.9969 22.4528C27.9499 22.4246 27.9024 22.3973 27.8543 22.371C27.8062 22.3447 27.7577 22.3194 27.7085 22.2951C27.6594 22.2708 27.6099 22.2475 27.5598 22.2251C27.5097 22.2028 27.4592 22.1816 27.4083 22.1613C27.3574 22.1411 27.3061 22.1218 27.2544 22.1037C27.2027 22.0855 27.1507 22.0684 27.0983 22.0524C27.0459 22.0363 26.9932 22.0213 26.9402 22.0074C26.8871 21.9935 26.8339 21.9807 26.7804 21.969C26.7268 21.9572 26.6731 21.9466 26.6191 21.937C26.5652 21.9275 26.511 21.919 26.4567 21.9117C26.4024 21.9043 26.348 21.8981 26.2934 21.8929C26.2389 21.8878 26.1842 21.8837 26.1295 21.8808C26.0748 21.8779 26.02 21.8761 25.9653 21.8754C25.9105 21.8747 25.8557 21.8752 25.8009 21.8767C25.7461 21.8782 25.6914 21.8809 25.6367 21.8846C25.5821 21.8884 25.5275 21.8933 25.473 21.8993C25.4185 21.9052 25.3642 21.9124 25.31 21.9205C25.2558 21.9287 25.2018 21.938 25.148 21.9484C25.0942 21.9588 25.0407 21.9703 24.9873 21.9828C24.934 21.9954 24.8809 22.0091 24.8281 22.0238C24.7754 22.0385 24.7229 22.0543 24.6707 22.0712C24.6186 22.088 24.5668 22.1059 24.5154 22.1249C24.464 22.1439 24.413 22.1639 24.3624 22.1849C24.3118 22.2059 24.2616 22.228 24.2119 22.251C24.1622 22.2741 24.113 22.2982 24.0643 22.3233C24.0156 22.3484 23.9674 22.3744 23.9197 22.4015C23.8804 22.3431 23.8358 22.2889 23.786 22.2391L22.2249 20.6779C22.2619 20.6304 22.2984 20.5826 22.3343 20.5343C22.3703 20.4861 22.4058 20.4375 22.4408 20.3885C22.4757 20.3395 22.5102 20.2902 22.5441 20.2405C22.5781 20.1909 22.6115 20.1408 22.6444 20.0904C22.6773 20.0401 22.7097 19.9893 22.7416 19.9383C22.7734 19.8872 22.8048 19.8359 22.8356 19.7842C22.8663 19.7324 22.8966 19.6805 22.9263 19.6281C22.956 19.5758 22.9852 19.5232 23.0138 19.4703C23.0424 19.4173 23.0705 19.3641 23.0981 19.3106C23.1256 19.2571 23.1525 19.2033 23.179 19.1492C23.2054 19.0951 23.2312 19.0408 23.2565 18.9862C23.2818 18.9316 23.3065 18.8767 23.3306 18.8216C23.3548 18.7665 23.3784 18.7111 23.4014 18.6555C23.4244 18.5999 23.4468 18.5441 23.4686 18.488C23.4904 18.4319 23.5117 18.3756 23.5324 18.3191C23.5531 18.2626 23.5731 18.2058 23.5926 18.1489C23.6122 18.092 23.6311 18.0349 23.6494 17.9776C23.6677 17.9202 23.6854 17.8627 23.7025 17.805C23.7196 17.7474 23.7362 17.6895 23.7521 17.6315C23.768 17.5734 23.7833 17.5152 23.7981 17.4569C23.8128 17.3986 23.8269 17.34 23.8404 17.2814C23.8539 17.2228 23.8668 17.164 23.8791 17.1051C23.8914 17.0462 23.9031 16.9871 23.9141 16.928C23.9252 16.8688 23.9357 16.8096 23.9455 16.7502C23.9553 16.6908 23.9645 16.6314 23.9732 16.5718C23.9818 16.5123 23.9898 16.4526 23.9971 16.3929C24.0045 16.3332 24.0112 16.2734 24.0173 16.2135C24.0235 16.1537 24.029 16.0937 24.0339 16.0338C24.0388 15.9738 24.0431 15.9138 24.0467 15.8537C24.0504 15.7936 24.0534 15.7335 24.0558 15.6734C24.0582 15.6133 24.0599 15.5531 24.0611 15.493C24.0623 15.4328 24.0628 15.3727 24.0627 15.3125C24.0627 10.48 20.1452 6.5625 15.3127 6.5625C10.4803 6.5625 6.5625 10.48 6.5625 15.3126C6.5625 20.1451 10.48 24.0625 15.3125 24.0625C15.3727 24.0626 15.4328 24.0621 15.493 24.061C15.5532 24.0598 15.6133 24.058 15.6734 24.0556C15.7335 24.0532 15.7936 24.0502 15.8537 24.0466C15.9138 24.0429 15.9738 24.0387 16.0338 24.0338C16.0937 24.0289 16.1537 24.0234 16.2135 24.0172C16.2734 24.0111 16.3332 24.0044 16.3929 23.997C16.4526 23.9896 16.5122 23.9816 16.5718 23.9731C16.6314 23.9644 16.6908 23.9552 16.7502 23.9454C16.8096 23.9356 16.8688 23.9251 16.928 23.914C16.9871 23.903 17.0461 23.8913 17.1051 23.879C17.1639 23.8667 17.2227 23.8538 17.2814 23.8403C17.34 23.8268 17.3985 23.8127 17.4568 23.798C17.5152 23.7833 17.5734 23.7679 17.6314 23.752C17.6894 23.7361 17.7473 23.7196 17.805 23.7024C17.8626 23.6853 17.9202 23.6676 17.9775 23.6493C18.0348 23.631 18.0919 23.6121 18.1489 23.5926C18.2058 23.5731 18.2625 23.553 18.319 23.5323C18.3755 23.5117 18.4318 23.4904 18.4879 23.4686C18.544 23.4468 18.5998 23.4243 18.6554 23.4013C18.711 23.3783 18.7664 23.3548 18.8215 23.3306C18.8766 23.3065 18.9315 23.2818 18.9861 23.2565C19.0407 23.2312 19.095 23.2054 19.1491 23.179C19.2032 23.1525 19.257 23.1256 19.3105 23.0981C19.364 23.0706 19.4172 23.0425 19.4702 23.0139C19.5231 22.9853 19.5757 22.9561 19.628 22.9264C19.6804 22.8967 19.7324 22.8664 19.7841 22.8356C19.8358 22.8048 19.8871 22.7735 19.9382 22.7416C19.9892 22.7098 20.04 22.6774 20.0903 22.6445C20.1407 22.6116 20.1908 22.5781 20.2405 22.5442C20.2901 22.5103 20.3394 22.4758 20.3884 22.4408C20.4374 22.4059 20.486 22.3704 20.5342 22.3344C20.5825 22.2985 20.6303 22.262 20.6778 22.225L22.239 23.7862C22.2888 23.836 22.343 23.8806 22.4014 23.9199C21.5247 25.4617 21.7434 27.4575 23.0584 28.7724L25.9153 31.6293C25.962 31.676 26.0099 31.7216 26.0589 31.766C26.1079 31.8104 26.158 31.8536 26.2091 31.8956C26.2602 31.9375 26.3123 31.9782 26.3654 32.0175C26.4185 32.057 26.4725 32.095 26.5275 32.1317C26.5825 32.1685 26.6383 32.2038 26.6951 32.2378C26.7518 32.2718 26.8093 32.3044 26.8676 32.3356C26.9259 32.3668 26.9849 32.3965 27.0447 32.4247C27.1045 32.453 27.165 32.4798 27.226 32.5051C27.2871 32.5304 27.3488 32.5542 27.4111 32.5765C27.4733 32.5987 27.5361 32.6195 27.5993 32.6387C27.6626 32.6579 27.7263 32.6755 27.7904 32.6916C27.8546 32.7076 27.9191 32.7221 27.9839 32.735C28.0488 32.7479 28.1139 32.7592 28.1793 32.7689C28.2447 32.7786 28.3104 32.7867 28.3761 32.7932C28.4419 32.7997 28.5079 32.8045 28.5739 32.8078C28.6399 32.811 28.706 32.8126 28.7722 32.8126C28.8383 32.8126 28.9044 32.811 28.9704 32.8078C29.0365 32.8045 29.1024 32.7997 29.1682 32.7932C29.234 32.7867 29.2996 32.7786 29.365 32.7689C29.4304 32.7592 29.4955 32.7479 29.5604 32.735C29.6252 32.7221 29.6897 32.7076 29.7539 32.6916C29.818 32.6755 29.8817 32.6579 29.945 32.6387C30.0083 32.6195 30.0711 32.5987 30.1333 32.5765C30.1955 32.5542 30.2572 32.5304 30.3183 32.5051C30.3794 32.4798 30.4398 32.453 30.4996 32.4247C30.5594 32.3965 30.6184 32.3668 30.6767 32.3356C30.7351 32.3044 30.7926 32.2718 30.8493 32.2378C30.906 32.2038 30.9618 32.1685 31.0168 32.1317C31.0718 32.095 31.1258 32.057 31.179 32.0175C31.2321 31.9782 31.2842 31.9375 31.3353 31.8956C31.3864 31.8536 31.4365 31.8104 31.4854 31.766C31.5344 31.7216 31.5823 31.676 31.6291 31.6293C33.2069 30.0513 33.2069 27.4931 31.6291 25.9154ZM17.8664 21.3607C17.8039 21.3872 17.7409 21.4127 17.6776 21.4372C17.6143 21.4617 17.5507 21.4852 17.4866 21.5077C17.4226 21.5302 17.3582 21.5517 17.2935 21.5723C17.2288 21.5928 17.1638 21.6123 17.0985 21.6308C17.0332 21.6493 16.9676 21.6668 16.9018 21.6833C16.8359 21.6997 16.7698 21.7152 16.7035 21.7296C16.6371 21.744 16.5706 21.7574 16.5038 21.7697C16.4371 21.782 16.3702 21.7933 16.3031 21.8036C16.236 21.8139 16.1687 21.8231 16.1013 21.8312C16.034 21.8394 15.9665 21.8465 15.8989 21.8526C15.8312 21.8587 15.7636 21.8637 15.6958 21.8677C15.628 21.8716 15.5602 21.8745 15.4924 21.8764C15.4245 21.8783 15.3566 21.8791 15.2887 21.8788C15.2209 21.8786 15.153 21.8773 15.0852 21.8749C15.0173 21.8725 14.9495 21.8691 14.8818 21.8646C14.8141 21.8602 14.7465 21.8547 14.6789 21.8481C14.6113 21.8415 14.5439 21.8339 14.4765 21.8252C14.4092 21.8166 14.342 21.8069 14.275 21.7961C14.208 21.7853 14.1412 21.7736 14.0745 21.7607C14.0078 21.7479 13.9414 21.734 13.8752 21.7191C13.8089 21.7042 13.743 21.6883 13.6772 21.6714C13.6115 21.6544 13.5461 21.6364 13.4809 21.6175C13.4157 21.5985 13.3509 21.5785 13.2863 21.5575C13.2217 21.5365 13.1575 21.5145 13.0937 21.4915C13.0298 21.4685 12.9663 21.4445 12.9032 21.4196C12.84 21.3946 12.7773 21.3686 12.715 21.3417C12.6527 21.3148 12.5908 21.2869 12.5294 21.2581C12.4679 21.2292 12.407 21.1994 12.3464 21.1687C12.2859 21.1379 12.2259 21.1063 12.1663 21.0737C12.1068 21.0411 12.0478 21.0076 11.9893 20.9731C11.9308 20.9387 11.8728 20.9033 11.8154 20.8671C11.7581 20.8308 11.7012 20.7937 11.645 20.7557C11.5794 20.7115 11.5147 20.6661 11.4508 20.6195C11.3869 20.5729 11.3238 20.5252 11.2616 20.4764C11.1994 20.4275 11.1381 20.3776 11.0777 20.3266C11.0173 20.2755 10.9578 20.2234 10.8993 20.1702C10.8408 20.117 10.7832 20.0628 10.7267 20.0075C10.6701 19.9523 10.6146 19.896 10.56 19.8387C10.5055 19.7815 10.452 19.7232 10.3995 19.6641C10.3471 19.6049 10.2957 19.5447 10.2454 19.4837C10.1952 19.4226 10.146 19.3607 10.0979 19.2979C10.0499 19.2351 10.003 19.1715 9.95723 19.107C9.91145 19.0425 9.86686 18.9771 9.82345 18.911C9.78004 18.8449 9.73784 18.7781 9.69685 18.7104C9.65585 18.6428 9.61609 18.5745 9.57756 18.5054C9.539 18.4364 9.50171 18.3666 9.46569 18.2962C9.42966 18.2258 9.39491 18.1548 9.36144 18.0832C9.32797 18.0115 9.2958 17.9393 9.26495 17.8665C9.23847 17.804 9.21299 17.741 9.18849 17.6777C9.16399 17.6144 9.14048 17.5508 9.11794 17.4867C9.09543 17.4227 9.07391 17.3583 9.05338 17.2936C9.03285 17.2289 9.01333 17.1639 8.99483 17.0986C8.97633 17.0333 8.95885 16.9677 8.9424 16.9019C8.92592 16.836 8.91048 16.7699 8.89608 16.7036C8.88168 16.6372 8.86831 16.5707 8.85596 16.5039C8.84363 16.4372 8.83233 16.3703 8.82205 16.3032C8.8118 16.2361 8.80259 16.1688 8.79443 16.1014C8.78625 16.0341 8.77913 15.9666 8.77307 15.899C8.76699 15.8313 8.76196 15.7637 8.758 15.6959C8.75403 15.6281 8.75112 15.5603 8.74925 15.4925C8.7474 15.4246 8.74661 15.3567 8.74686 15.2888C8.7471 15.221 8.7484 15.1531 8.75075 15.0853C8.75312 15.0174 8.75654 14.9496 8.76101 14.8819C8.76547 14.8142 8.77099 14.7466 8.77755 14.679C8.78414 14.6114 8.79175 14.544 8.80042 14.4766C8.80907 14.4093 8.81878 14.3421 8.82954 14.2751C8.84029 14.2081 8.85209 14.1413 8.86495 14.0746C8.87777 14.0079 8.89164 13.9415 8.90654 13.8753C8.92142 13.809 8.93734 13.7431 8.95429 13.6773C8.97124 13.6116 8.98921 13.5462 9.00819 13.481C9.02717 13.4158 9.04717 13.351 9.06818 13.2864C9.08919 13.2218 9.11119 13.1576 9.13418 13.0938C9.15717 13.0299 9.18115 12.9664 9.20613 12.9033C9.2311 12.8401 9.25705 12.7774 9.28395 12.7151C9.31087 12.6528 9.33875 12.5909 9.36759 12.5295C9.39644 12.468 9.42624 12.4071 9.45697 12.3465C9.48771 12.286 9.51938 12.226 9.55199 12.1664C9.5846 12.1069 9.61812 12.0479 9.65255 11.9894C9.687 11.9309 9.72234 11.8729 9.75857 11.8155C9.79483 11.7582 9.83196 11.7013 9.86997 11.6451C9.91419 11.5795 9.9596 11.5148 10.0062 11.4509C10.0528 11.387 10.1004 11.3239 10.1493 11.2617C10.1981 11.1995 10.2481 11.1382 10.2991 11.0778C10.3502 11.0174 10.4023 10.9579 10.4555 10.8994C10.5087 10.8409 10.5629 10.7833 10.6182 10.7268C10.6734 10.6702 10.7297 10.6147 10.7869 10.5601C10.8442 10.5056 10.9024 10.4521 10.9616 10.3996C11.0208 10.3472 11.081 10.2958 11.142 10.2455C11.203 10.1953 11.2649 10.1461 11.3278 10.098C11.3906 10.05 11.4542 10.0031 11.5187 9.95733C11.5832 9.91155 11.6485 9.86696 11.7146 9.82355C11.7807 9.78014 11.8476 9.73794 11.9152 9.69695C11.9829 9.65596 12.0512 9.61618 12.1203 9.57763C12.1893 9.5391 12.259 9.50182 12.3294 9.46579C12.3998 9.42977 12.4708 9.39501 12.5425 9.36154C12.6142 9.32807 12.6864 9.29591 12.7592 9.26505C12.8217 9.23857 12.8846 9.21309 12.9479 9.18859C13.0112 9.1641 13.0749 9.14058 13.1389 9.11805C13.203 9.09553 13.2673 9.07401 13.332 9.05348C13.3967 9.03295 13.4617 9.01343 13.5271 8.99493C13.5924 8.97643 13.6579 8.95895 13.7238 8.9425C13.7897 8.92603 13.8558 8.91059 13.9221 8.89619C13.9884 8.88179 14.055 8.86841 14.1217 8.85606C14.1885 8.84373 14.2554 8.83243 14.3225 8.82215C14.3896 8.8119 14.4568 8.80269 14.5242 8.79454C14.5916 8.78636 14.6591 8.77923 14.7267 8.77317C14.7943 8.76709 14.862 8.76207 14.9298 8.7581C14.9976 8.75414 15.0654 8.75122 15.1332 8.74935C15.2011 8.74751 15.2689 8.74671 15.3368 8.74696C15.4047 8.74721 15.4726 8.74851 15.5404 8.75085C15.6083 8.75322 15.676 8.75664 15.7437 8.76111C15.8115 8.76558 15.8791 8.77109 15.9467 8.77765C16.0143 8.78424 16.0817 8.79186 16.149 8.80052C16.2163 8.80918 16.2835 8.81888 16.3506 8.82964C16.4176 8.84039 16.4844 8.8522 16.5511 8.86505C16.6177 8.87788 16.6842 8.89174 16.7504 8.90664C16.8166 8.92152 16.8826 8.93744 16.9483 8.95439C17.0141 8.97135 17.0795 8.98932 17.1447 9.0083C17.2099 9.02728 17.2747 9.04727 17.3393 9.06828C17.4039 9.08929 17.468 9.11129 17.5319 9.13428C17.5958 9.15727 17.6592 9.18126 17.7224 9.20623C17.7855 9.2312 17.8482 9.25715 17.9105 9.28406C17.9728 9.31097 18.0347 9.33885 18.0962 9.36769C18.1576 9.39654 18.2186 9.42634 18.2791 9.45708C18.3397 9.48781 18.3997 9.51949 18.4592 9.55209C18.5188 9.5847 18.5778 9.61822 18.6363 9.65265C18.6948 9.6871 18.7527 9.72245 18.8101 9.75868C18.8675 9.79493 18.9243 9.83206 18.9806 9.87007C19.0461 9.9143 19.1109 9.9597 19.1748 10.0063C19.2387 10.0529 19.3018 10.1005 19.364 10.1494C19.4262 10.1982 19.4874 10.2482 19.5478 10.2992C19.6082 10.3503 19.6677 10.4024 19.7262 10.4556C19.7848 10.5088 19.8423 10.563 19.8989 10.6183C19.9554 10.6735 20.011 10.7298 20.0656 10.787C20.1201 10.8443 20.1736 10.9025 20.226 10.9617C20.2785 11.0209 20.3298 11.0811 20.3801 11.1421C20.4304 11.2031 20.4796 11.265 20.5276 11.3279C20.5757 11.3907 20.6226 11.4543 20.6684 11.5188C20.7141 11.5833 20.7587 11.6486 20.8021 11.7147C20.8455 11.7808 20.8877 11.8477 20.9287 11.9153C20.9697 11.983 21.0095 12.0513 21.048 12.1204C21.0865 12.1894 21.1238 12.2591 21.1599 12.3295C21.1959 12.3999 21.2306 12.4709 21.2641 12.5426C21.2976 12.6143 21.3298 12.6865 21.3606 12.7593C21.3871 12.8218 21.4125 12.8847 21.4371 12.948C21.4616 13.0113 21.4851 13.075 21.5076 13.139C21.5301 13.2031 21.5517 13.2674 21.5722 13.3321C21.5927 13.3968 21.6122 13.4618 21.6307 13.5272C21.6492 13.5925 21.6667 13.658 21.6832 13.7239C21.6996 13.7898 21.7151 13.8559 21.7295 13.9222C21.7439 13.9886 21.7573 14.0551 21.7696 14.1218C21.7819 14.1886 21.7932 14.2555 21.8035 14.3226C21.8138 14.3897 21.823 14.4569 21.8311 14.5243C21.8393 14.5917 21.8464 14.6592 21.8525 14.7268C21.8586 14.7944 21.8636 14.8621 21.8675 14.9299C21.8715 14.9977 21.8744 15.0655 21.8763 15.1333C21.8782 15.2012 21.879 15.269 21.8787 15.3369C21.8785 15.4048 21.8772 15.4727 21.8748 15.5405C21.8724 15.6084 21.869 15.6761 21.8645 15.7438C21.8601 15.8116 21.8546 15.8792 21.848 15.9468C21.8414 16.0144 21.8338 16.0818 21.8251 16.1492C21.8165 16.2164 21.8068 16.2836 21.796 16.3507C21.7852 16.4177 21.7735 16.4845 21.7606 16.5512C21.7478 16.6178 21.7339 16.6843 21.719 16.7505C21.7041 16.8167 21.6882 16.8827 21.6713 16.9484C21.6543 17.0142 21.6363 17.0796 21.6174 17.1448C21.5984 17.21 21.5784 17.2748 21.5574 17.3394C21.5364 17.404 21.5144 17.4681 21.4914 17.532C21.4684 17.5959 21.4444 17.6593 21.4195 17.7225C21.3945 17.7856 21.3685 17.8483 21.3416 17.9106C21.3147 17.9729 21.2868 18.0348 21.258 18.0963C21.2291 18.1577 21.1993 18.2187 21.1686 18.2792C21.1378 18.3398 21.1062 18.3998 21.0736 18.4593C21.041 18.5189 21.0075 18.5779 20.973 18.6364C20.9386 18.6949 20.9032 18.7528 20.867 18.8102C20.8307 18.8676 20.7936 18.9244 20.7556 18.9807C20.7114 19.0462 20.666 19.111 20.6194 19.1749C20.5728 19.2388 20.5251 19.3018 20.4763 19.3641C20.4275 19.4263 20.3775 19.4875 20.3265 19.5479C20.2754 19.6083 20.2233 19.6678 20.1701 19.7263C20.1169 19.7849 20.0627 19.8424 20.0074 19.899C19.9522 19.9555 19.8959 20.0111 19.8386 20.0657C19.7814 20.1202 19.7231 20.1737 19.664 20.2261C19.6048 20.2786 19.5446 20.3299 19.4836 20.3802C19.4225 20.4305 19.3606 20.4797 19.2978 20.5277C19.235 20.5758 19.1714 20.6227 19.1069 20.6685C19.0424 20.7142 18.977 20.7588 18.9109 20.8022C18.8448 20.8456 18.778 20.8878 18.7103 20.9288C18.6427 20.9698 18.5744 21.0096 18.5053 21.0481C18.4362 21.0866 18.3665 21.1239 18.2961 21.16C18.2257 21.196 18.1547 21.2307 18.0831 21.2642C18.0114 21.2977 17.9392 21.3299 17.8664 21.3607ZM30.0824 30.0829C30.061 30.1043 30.0391 30.1253 30.0166 30.1456C29.9941 30.166 29.9711 30.1858 29.9477 30.205C29.9243 30.2243 29.9004 30.2429 29.876 30.261C29.8517 30.279 29.8269 30.2965 29.8017 30.3133C29.7765 30.3302 29.7509 30.3464 29.7248 30.362C29.6988 30.3776 29.6725 30.3925 29.6457 30.4068C29.619 30.4211 29.5919 30.4347 29.5645 30.4477C29.5371 30.4606 29.5094 30.4729 29.4813 30.4845C29.4534 30.4961 29.4251 30.507 29.3965 30.5173C29.368 30.5275 29.3392 30.537 29.3102 30.5458C29.2812 30.5546 29.252 30.5627 29.2225 30.57C29.1931 30.5774 29.1635 30.5841 29.1338 30.59C29.1041 30.5959 29.0742 30.601 29.0442 30.6055C29.0142 30.61 28.9841 30.6137 28.954 30.6166C28.9238 30.6196 28.8936 30.6219 28.8632 30.6233C28.833 30.6248 28.8027 30.6255 28.7724 30.6255C28.742 30.6255 28.7117 30.6248 28.6814 30.6233C28.6512 30.6219 28.6209 30.6196 28.5908 30.6166C28.5606 30.6137 28.5305 30.61 28.5005 30.6055C28.4705 30.601 28.4406 30.5959 28.4109 30.59C28.3812 30.5841 28.3516 30.5774 28.3222 30.57C28.2927 30.5627 28.2635 30.5546 28.2345 30.5458C28.2055 30.537 28.1767 30.5275 28.1482 30.5173C28.1196 30.507 28.0913 30.4961 28.0633 30.4845C28.0353 30.4729 28.0076 30.4606 27.9802 30.4477C27.9528 30.4347 27.9257 30.4211 27.899 30.4068C27.8722 30.3925 27.8458 30.3776 27.8198 30.362C27.7938 30.3464 27.7682 30.3302 27.743 30.3133C27.7178 30.2965 27.693 30.279 27.6687 30.261C27.6443 30.2429 27.6204 30.2242 27.597 30.205C27.5735 30.1858 27.5506 30.166 27.5281 30.1456C27.5057 30.1253 27.4837 30.1043 27.4623 30.0829L24.6051 27.2257C24.5837 27.2042 24.5628 27.1822 24.5425 27.1598C24.5222 27.1373 24.5024 27.1143 24.4832 27.0909C24.4639 27.0674 24.4453 27.0435 24.4273 27.0192C24.4093 26.9948 24.3918 26.97 24.375 26.9448C24.3582 26.9196 24.342 26.894 24.3264 26.868C24.3109 26.842 24.2959 26.8156 24.2817 26.7889C24.2674 26.7621 24.2538 26.7351 24.2408 26.7077C24.2279 26.6803 24.2156 26.6525 24.204 26.6245C24.1925 26.5965 24.1816 26.5682 24.1714 26.5397C24.1612 26.5112 24.1517 26.4824 24.1429 26.4534C24.1341 26.4244 24.126 26.3952 24.1187 26.3658C24.1113 26.3363 24.1047 26.3068 24.0988 26.277C24.0929 26.2473 24.0878 26.2175 24.0833 26.1875C24.0789 26.1575 24.0752 26.1274 24.0722 26.0972C24.0693 26.0671 24.0671 26.0369 24.0656 26.0066C24.0641 25.9763 24.0634 25.946 24.0634 25.9157C24.0634 25.8854 24.0642 25.8551 24.0657 25.8248C24.0672 25.7946 24.0694 25.7644 24.0724 25.7342C24.0754 25.704 24.0791 25.674 24.0835 25.644C24.088 25.614 24.0932 25.5841 24.0991 25.5544C24.105 25.5247 24.1117 25.4951 24.119 25.4657C24.1264 25.4363 24.1345 25.4071 24.1433 25.3781C24.1521 25.3491 24.1616 25.3203 24.1718 25.2918C24.1821 25.2633 24.193 25.235 24.2046 25.207C24.2162 25.179 24.2285 25.1513 24.2414 25.1239C24.2544 25.0965 24.268 25.0695 24.2823 25.0427C24.2966 25.016 24.3115 24.9897 24.3271 24.9636C24.3427 24.9376 24.3589 24.912 24.3758 24.8868C24.3926 24.8617 24.4101 24.8369 24.4281 24.8125C24.4462 24.7882 24.4648 24.7643 24.484 24.7409C24.5033 24.7175 24.5231 24.6945 24.5434 24.6721C24.5638 24.6496 24.5847 24.6277 24.6061 24.6062C24.6276 24.5848 24.6495 24.5639 24.672 24.5435C24.6944 24.5232 24.7174 24.5034 24.7408 24.4841C24.7642 24.4649 24.7881 24.4463 24.8124 24.4282C24.8368 24.4102 24.8616 24.3927 24.8867 24.3759C24.9119 24.359 24.9375 24.3428 24.9635 24.3272C24.9896 24.3116 25.0159 24.2967 25.0426 24.2824C25.0694 24.2681 25.0964 24.2545 25.1238 24.2415C25.1512 24.2286 25.1789 24.2163 25.2069 24.2047C25.2349 24.1931 25.2632 24.1822 25.2917 24.1719C25.3202 24.1617 25.349 24.1522 25.378 24.1434C25.407 24.1346 25.4362 24.1265 25.4656 24.1191C25.495 24.1118 25.5246 24.1051 25.5543 24.0992C25.584 24.0933 25.6139 24.0881 25.6439 24.0836C25.6739 24.0792 25.7039 24.0755 25.7341 24.0725C25.7643 24.0695 25.7945 24.0673 25.8247 24.0658C25.855 24.0643 25.8853 24.0635 25.9156 24.0635C25.9459 24.0635 25.9762 24.0642 26.0065 24.0657C26.0368 24.0672 26.067 24.0694 26.0971 24.0723C26.1273 24.0753 26.1574 24.079 26.1874 24.0834C26.2174 24.0879 26.2472 24.093 26.2769 24.0989C26.3067 24.1048 26.3362 24.1114 26.3657 24.1188C26.3951 24.1261 26.4242 24.1342 26.4533 24.143C26.4823 24.1518 26.5111 24.1613 26.5396 24.1715C26.5681 24.1817 26.5964 24.1926 26.6244 24.2041C26.6524 24.2157 26.6802 24.228 26.7076 24.2409C26.735 24.2539 26.762 24.2675 26.7888 24.2818C26.8155 24.296 26.8419 24.311 26.8679 24.3265C26.8939 24.3421 26.9195 24.3583 26.9447 24.3751C26.9699 24.3919 26.9947 24.4094 27.0191 24.4274C27.0434 24.4454 27.0673 24.464 27.0908 24.4833C27.1142 24.5025 27.1372 24.5223 27.1597 24.5426C27.1821 24.5629 27.2041 24.5838 27.2256 24.6052L30.0824 27.4621C30.1039 27.4835 30.1248 27.5055 30.1452 27.528C30.1655 27.5504 30.1853 27.5734 30.2045 27.5968C30.2238 27.6203 30.2424 27.6442 30.2605 27.6685C30.2785 27.6929 30.296 27.7177 30.3128 27.7429C30.3297 27.7681 30.3459 27.7937 30.3615 27.8197C30.3771 27.8457 30.392 27.8721 30.4063 27.8989C30.4206 27.9256 30.4342 27.9527 30.4472 27.9801C30.4601 28.0075 30.4724 28.0352 30.484 28.0632C30.4956 28.0912 30.5065 28.1195 30.5167 28.1481C30.5269 28.1766 30.5364 28.2054 30.5452 28.2344C30.554 28.2634 30.5621 28.2926 30.5695 28.3221C30.5768 28.3515 30.5835 28.3811 30.5894 28.4108C30.5953 28.4405 30.6005 28.4704 30.6049 28.5004C30.6094 28.5304 30.6131 28.5605 30.616 28.5907C30.619 28.6208 30.6213 28.6511 30.6227 28.6813C30.6242 28.7116 30.625 28.7419 30.625 28.7723C30.625 28.8026 30.6242 28.8329 30.6227 28.8632C30.6212 28.8935 30.619 28.9237 30.616 28.9539C30.613 28.984 30.6093 29.0141 30.6049 29.0441C30.6004 29.0741 30.5952 29.104 30.5893 29.1337C30.5834 29.1634 30.5768 29.193 30.5694 29.2224C30.562 29.2519 30.5539 29.2811 30.5451 29.3101C30.5363 29.3391 30.5268 29.3679 30.5166 29.3964C30.5064 29.4249 30.4955 29.4533 30.4839 29.4812C30.4723 29.5093 30.4599 29.537 30.447 29.5644C30.434 29.5918 30.4204 29.6189 30.4061 29.6456C30.3918 29.6723 30.3769 29.6987 30.3613 29.7247C30.3457 29.7508 30.3295 29.7764 30.3126 29.8015C30.2958 29.8268 30.2784 29.8515 30.2603 29.8759C30.2422 29.9003 30.2236 29.9241 30.2043 29.9476C30.1851 29.971 30.1653 29.994 30.1449 30.0164C30.1245 30.0389 30.1036 30.0609 30.0822 30.0823L30.0824 30.0829Z"   fill="#393E46" >
</path>
</svg>
