<svg xmlns="http://www.w3.org/2000/svg" xmlns:xlink="http://www.w3.org/1999/xlink" width="432" height="526" viewBox="0 0 432 526" fill="none">
<path     fill="#FFFFFF"  d="M373.42 13.2C379.546 6.28267 390.418 6.50155 396.26 13.66L428.62 53.32C430.804 55.9956 432 59.3364 432 62.79L432 110.91C432 119.188 425.288 125.9 417.01 125.9L16.99 125.9C8.71223 125.9 2 119.188 2 110.91L2 63.05C2 59.4396 3.30309 55.9564 5.67 53.23L40.21 13.44C46.3065 6.41763 57.2601 6.58527 63.14 13.79L94.27 51.94C97.1165 55.4278 101.378 57.45 105.88 57.45L327.48 57.45C331.771 57.45 335.855 55.6124 338.7 52.4L373.42 13.2Z">
</path>
<rect x="0" y="104.331298828125" width="431.9998474121094" height="421.66864013671875"   fill="#FFFFFF" >
</rect>
<path     fill="#EEEEEE"  d="M50.8512 350.724L392.149 350.724C398.694 350.724 404 356.03 404 362.576L404 440.793C404 447.338 398.694 452.644 392.149 452.644L50.8512 452.644C44.3059 452.644 39 447.338 39 440.793L39 362.576C39 356.03 44.3059 350.724 50.8512 350.724Z">
</path>
<path     fill="#EEEEEE"  d="M48.8512 195.846L390.149 195.846C396.694 195.846 402 201.152 402 207.697L402 285.915C402 292.46 396.694 297.766 390.149 297.766L48.8512 297.766C42.3059 297.766 37 292.46 37 285.915L37 207.697C37 201.152 42.3059 195.846 48.8512 195.846Z">
</path>
<path  transform="translate(38, 111.912109375)"   fill="#EEEEEE"  d="M0 40.9639L0 5C0 2.23858 2.23858 0 5 0L360 0C362.761 0 365 2.23858 365 5L365 40.9639C365 43.7253 362.761 45.9639 360 45.9639L5 45.9639C2.23858 45.9639 0 43.7253 0 40.9639Z">
</path>
</svg>
