<svg xmlns="http://www.w3.org/2000/svg" xmlns:xlink="http://www.w3.org/1999/xlink" width="432" height="526.413330078125" viewBox="0 0 432 526.413330078125" fill="none">
<path     fill="#FFFFFF"  d="M373.41 13.22C379.541 6.29133 390.423 6.51003 396.27 13.68L428.62 53.36C430.803 56.037 432 59.3857 432 62.84L432 111C432 119.284 425.284 126 417 126L17 126C8.71573 126 2 119.284 2 111L2 63.1C2 59.4887 3.30361 55.9979 5.67 53.27L40.19 13.47C46.2917 6.43618 57.2653 6.6037 63.15 13.82L94.27 51.98C97.1187 55.4732 101.382 57.5 105.89 57.5L327.47 57.5C331.766 57.5 335.863 55.6575 338.71 52.44L373.41 13.22Z">
</path>
<rect x="0" y="104.413330078125" width="432" height="422"   fill="#FFFFFF" >
</rect>
<path     fill="#EEEEEE"  d="M50.8605 351L392.14 351C398.69 351 404 356.31 404 362.86L404 441.14C404 447.69 398.69 453 392.14 453L50.8605 453C44.3101 453 39 447.69 39 441.14L39 362.86C39 356.31 44.3101 351 50.8605 351Z">
</path>
<path     fill="#EEEEEE"  d="M48.8605 196L390.14 196C396.69 196 402 201.31 402 207.86L402 286.14C402 292.69 396.69 298 390.14 298L48.8605 298C42.3101 298 37 292.69 37 286.14L37 207.86C37 201.31 42.3101 196 48.8605 196Z">
</path>
<path  transform="translate(38, 112)"   fill="#EEEEEE"  d="M0 41L0 5C0 2.23858 2.23858 0 5 0L360 0C362.761 0 365 2.23858 365 5L365 41C365 43.7614 362.761 46 360 46L5 46C2.23858 46 0 43.7614 0 41Z">
</path>
</svg>
