<svg xmlns="http://www.w3.org/2000/svg" xmlns:xlink="http://www.w3.org/1999/xlink" width="35" height="35" viewBox="0 0 35 35" fill="none">
<path d="M15.8594 17.5C15.8594 17.5268 15.86 17.5537 15.8614 17.5805C15.8627 17.6073 15.8647 17.6341 15.8673 17.6608C15.8699 17.6875 15.8732 17.7142 15.8772 17.7407C15.8811 17.7673 15.8856 17.7937 15.8909 17.8201C15.8961 17.8464 15.902 17.8726 15.9086 17.8986C15.9151 17.9247 15.9223 17.9506 15.93 17.9763C15.9378 18.0019 15.9462 18.0274 15.9553 18.0527C15.9643 18.078 15.974 18.103 15.9843 18.1278C15.9945 18.1526 16.0054 18.1772 16.0169 18.2015C16.0284 18.2257 16.0404 18.2497 16.0531 18.2734C16.0658 18.2971 16.079 18.3204 16.0928 18.3435C16.1066 18.3665 16.121 18.3892 16.1359 18.4115C16.1508 18.4338 16.1663 18.4558 16.1823 18.4773C16.1983 18.4989 16.2148 18.5201 16.2318 18.5408C16.2488 18.5616 16.2663 18.5819 16.2844 18.6018C16.3024 18.6217 16.3209 18.6411 16.3399 18.6601C16.3589 18.6791 16.3783 18.6976 16.3982 18.7156C16.4181 18.7336 16.4384 18.7512 16.4592 18.7682C16.48 18.7853 16.5011 18.8018 16.5227 18.8178C16.5443 18.8338 16.5662 18.8492 16.5886 18.8641C16.6108 18.879 16.6335 18.8934 16.6566 18.9072C16.6796 18.921 16.7029 18.9342 16.7266 18.9469C16.7503 18.9596 16.7743 18.9716 16.7986 18.9831C16.8228 18.9946 16.8474 19.0054 16.8722 19.0157C16.897 19.026 16.922 19.0357 16.9473 19.0447C16.9726 19.0538 16.9981 19.0622 17.0238 19.07C17.0495 19.0778 17.0753 19.0849 17.1014 19.0914C17.1274 19.098 17.1536 19.1039 17.18 19.1091C17.2063 19.1143 17.2327 19.1189 17.2593 19.1229C17.2858 19.1268 17.3125 19.1301 17.3392 19.1327C17.3659 19.1354 17.3927 19.1373 17.4195 19.1386C17.4463 19.14 17.4732 19.1406 17.5 19.1406C17.5269 19.1406 17.5537 19.14 17.5805 19.1386C17.6073 19.1373 17.6341 19.1354 17.6608 19.1327C17.6875 19.1301 17.7142 19.1268 17.7407 19.1229C17.7673 19.1189 17.7938 19.1143 17.8201 19.1091C17.8464 19.1039 17.8726 19.098 17.8987 19.0914C17.9247 19.0849 17.9506 19.0778 17.9763 19.07C18.0019 19.0622 18.0274 19.0538 18.0527 19.0447C18.078 19.0357 18.1031 19.026 18.1279 19.0157C18.1526 19.0054 18.1772 18.9946 18.2015 18.9831C18.2258 18.9716 18.2497 18.9596 18.2734 18.9469C18.2971 18.9342 18.3204 18.921 18.3435 18.9072C18.3665 18.8934 18.3892 18.879 18.4115 18.8641C18.4338 18.8492 18.4558 18.8338 18.4774 18.8178C18.4989 18.8018 18.52 18.7853 18.5408 18.7682C18.5616 18.7512 18.5819 18.7336 18.6018 18.7156C18.6217 18.6976 18.6411 18.6791 18.6601 18.6601C18.6791 18.6411 18.6976 18.6217 18.7157 18.6018C18.7337 18.5819 18.7512 18.5616 18.7682 18.5408C18.7852 18.5201 18.8018 18.4989 18.8178 18.4773C18.8338 18.4558 18.8492 18.4338 18.8641 18.4115C18.879 18.3892 18.8934 18.3665 18.9072 18.3435C18.921 18.3204 18.9343 18.2971 18.9469 18.2734C18.9596 18.2497 18.9716 18.2257 18.9831 18.2015C18.9946 18.1772 19.0055 18.1526 19.0158 18.1278C19.026 18.103 19.0357 18.078 19.0447 18.0527C19.0538 18.0274 19.0622 18.0019 19.07 17.9763C19.0778 17.9506 19.0849 17.9247 19.0915 17.8986C19.098 17.8726 19.1039 17.8464 19.1091 17.8201C19.1143 17.7937 19.1189 17.7673 19.1229 17.7407C19.1268 17.7142 19.1301 17.6875 19.1327 17.6608C19.1353 17.6341 19.1373 17.6073 19.1387 17.5805C19.14 17.5537 19.1406 17.5268 19.1406 17.5C19.1406 17.4732 19.14 17.4463 19.1387 17.4195C19.1373 17.3927 19.1353 17.3659 19.1327 17.3392C19.1301 17.3125 19.1268 17.2858 19.1229 17.2593C19.1189 17.2327 19.1143 17.2063 19.1091 17.1799C19.1039 17.1536 19.098 17.1274 19.0915 17.1014C19.0849 17.0753 19.0778 17.0494 19.07 17.0237C19.0622 16.9981 19.0538 16.9726 19.0447 16.9473C19.0357 16.922 19.026 16.897 19.0158 16.8722C19.0055 16.8473 18.9946 16.8228 18.9831 16.7985C18.9716 16.7743 18.9596 16.7503 18.9469 16.7266C18.9343 16.7029 18.921 16.6796 18.9072 16.6565C18.8934 16.6335 18.8791 16.6108 18.8642 16.5885C18.8492 16.5662 18.8338 16.5442 18.8178 16.5227C18.8018 16.5011 18.7852 16.4799 18.7682 16.4592C18.7512 16.4384 18.7337 16.4181 18.7157 16.3982C18.6976 16.3783 18.6791 16.3589 18.6601 16.3399C18.6411 16.3209 18.6217 16.3024 18.6018 16.2844C18.5819 16.2664 18.5616 16.2488 18.5408 16.2318C18.52 16.2147 18.4989 16.1982 18.4774 16.1822C18.4558 16.1662 18.4338 16.1508 18.4115 16.1359C18.3892 16.121 18.3665 16.1066 18.3435 16.0928C18.3204 16.079 18.2971 16.0658 18.2734 16.0531C18.2497 16.0404 18.2258 16.0284 18.2015 16.0169C18.1772 16.0054 18.1526 15.9946 18.1279 15.9843C18.1031 15.974 18.078 15.9643 18.0527 15.9553C18.0274 15.9462 18.0019 15.9378 17.9763 15.93C17.9506 15.9222 17.9247 15.9151 17.8987 15.9086C17.8726 15.902 17.8464 15.8961 17.8201 15.8909C17.7938 15.8857 17.7673 15.8811 17.7407 15.8771C17.7142 15.8732 17.6875 15.8699 17.6608 15.8673C17.6341 15.8646 17.6073 15.8627 17.5805 15.8614C17.5537 15.86 17.5269 15.8594 17.5 15.8594C17.4732 15.8594 17.4463 15.86 17.4195 15.8614C17.3927 15.8627 17.3659 15.8646 17.3392 15.8673C17.3125 15.8699 17.2858 15.8732 17.2593 15.8771C17.2327 15.8811 17.2063 15.8857 17.18 15.8909C17.1536 15.8961 17.1274 15.902 17.1014 15.9086C17.0753 15.9151 17.0495 15.9222 17.0238 15.93C16.9981 15.9378 16.9726 15.9462 16.9473 15.9553C16.922 15.9643 16.897 15.974 16.8722 15.9843C16.8474 15.9946 16.8228 16.0054 16.7986 16.0169C16.7743 16.0284 16.7503 16.0404 16.7266 16.0531C16.7029 16.0658 16.6796 16.079 16.6566 16.0928C16.6335 16.1066 16.6108 16.121 16.5886 16.1359C16.5662 16.1508 16.5443 16.1662 16.5227 16.1822C16.5011 16.1982 16.48 16.2147 16.4592 16.2318C16.4384 16.2488 16.4181 16.2664 16.3982 16.2844C16.3783 16.3024 16.3589 16.3209 16.3399 16.3399C16.3209 16.3589 16.3024 16.3783 16.2844 16.3982C16.2663 16.4181 16.2488 16.4384 16.2318 16.4592C16.2148 16.4799 16.1983 16.5011 16.1823 16.5227C16.1663 16.5442 16.1508 16.5662 16.1359 16.5885C16.121 16.6108 16.1066 16.6335 16.0928 16.6565C16.079 16.6796 16.0658 16.7029 16.0531 16.7266C16.0404 16.7503 16.0284 16.7743 16.0169 16.7985C16.0054 16.8228 15.9945 16.8473 15.9843 16.8722C15.974 16.897 15.9643 16.922 15.9553 16.9473C15.9462 16.9726 15.9378 16.9981 15.93 17.0237C15.9223 17.0494 15.9151 17.0753 15.9086 17.1014C15.902 17.1274 15.8961 17.1536 15.8909 17.1799C15.8856 17.2063 15.8811 17.2327 15.8772 17.2593C15.8732 17.2858 15.8699 17.3125 15.8673 17.3392C15.8647 17.3659 15.8627 17.3927 15.8614 17.4195C15.86 17.4463 15.8594 17.4732 15.8594 17.5ZM22.6953 17.5C22.6953 17.5268 22.696 17.5537 22.6973 17.5805C22.6986 17.6073 22.7006 17.6341 22.7032 17.6608C22.7059 17.6875 22.7091 17.7142 22.7131 17.7407C22.717 17.7673 22.7216 17.7937 22.7268 17.8201C22.7321 17.8464 22.738 17.8726 22.7445 17.8986C22.751 17.9247 22.7582 17.9506 22.766 17.9763C22.7738 18.0019 22.7822 18.0274 22.7912 18.0527C22.8003 18.078 22.8099 18.103 22.8202 18.1278C22.8305 18.1526 22.8413 18.1772 22.8528 18.2015C22.8643 18.2257 22.8764 18.2497 22.8891 18.2734C22.9017 18.2971 22.9149 18.3204 22.9287 18.3435C22.9426 18.3665 22.9569 18.3892 22.9718 18.4115C22.9867 18.4338 23.0022 18.4558 23.0182 18.4773C23.0342 18.4989 23.0507 18.5201 23.0678 18.5408C23.0848 18.5616 23.1023 18.5819 23.1203 18.6018C23.1384 18.6217 23.1569 18.6411 23.1759 18.6601C23.1948 18.6791 23.2143 18.6976 23.2342 18.7156C23.2541 18.7336 23.2744 18.7512 23.2952 18.7682C23.3159 18.7853 23.3371 18.8018 23.3586 18.8178C23.3802 18.8338 23.4021 18.8492 23.4245 18.8641C23.4468 18.879 23.4695 18.8934 23.4925 18.9072C23.5155 18.921 23.5389 18.9342 23.5626 18.9469C23.5862 18.9596 23.6102 18.9716 23.6345 18.9831C23.6588 18.9946 23.6833 19.0054 23.7081 19.0157C23.7329 19.026 23.7579 19.0357 23.7832 19.0447C23.8085 19.0538 23.834 19.0622 23.8597 19.07C23.8854 19.0778 23.9113 19.0849 23.9373 19.0914C23.9634 19.098 23.9895 19.1039 24.0159 19.1091C24.0422 19.1143 24.0686 19.1189 24.0952 19.1229C24.1218 19.1268 24.1484 19.1301 24.1751 19.1327C24.2019 19.1354 24.2286 19.1373 24.2555 19.1386C24.2823 19.14 24.3091 19.1406 24.336 19.1406C24.3628 19.1406 24.3896 19.14 24.4165 19.1386C24.4432 19.1373 24.47 19.1354 24.4968 19.1327C24.5235 19.1301 24.5501 19.1268 24.5767 19.1229C24.6032 19.1189 24.6297 19.1143 24.656 19.1091C24.6823 19.1039 24.7086 19.098 24.7346 19.0914C24.7606 19.0849 24.7865 19.0778 24.8122 19.07C24.8379 19.0622 24.8634 19.0538 24.8887 19.0447C24.9139 19.0357 24.939 19.026 24.9638 19.0157C24.9886 19.0054 25.0131 18.9946 25.0374 18.9831C25.0617 18.9716 25.0857 18.9596 25.1093 18.9469C25.133 18.9342 25.1564 18.921 25.1794 18.9072C25.2024 18.8934 25.2251 18.879 25.2474 18.8641C25.2697 18.8492 25.2917 18.8338 25.3133 18.8178C25.3348 18.8018 25.356 18.7853 25.3768 18.7682C25.3975 18.7512 25.4178 18.7336 25.4377 18.7156C25.4576 18.6976 25.477 18.6791 25.496 18.6601C25.515 18.6411 25.5335 18.6217 25.5516 18.6018C25.5696 18.5819 25.5871 18.5616 25.6042 18.5408C25.6212 18.5201 25.6377 18.4989 25.6537 18.4773C25.6697 18.4558 25.6852 18.4338 25.7001 18.4115C25.715 18.3892 25.7294 18.3665 25.7432 18.3435C25.757 18.3204 25.7702 18.2971 25.7829 18.2734C25.7955 18.2497 25.8076 18.2257 25.819 18.2015C25.8305 18.1772 25.8414 18.1526 25.8517 18.1278C25.8619 18.103 25.8716 18.078 25.8807 18.0527C25.8897 18.0274 25.8981 18.0019 25.9059 17.9763C25.9137 17.9506 25.9209 17.9247 25.9274 17.8986C25.9339 17.8726 25.9398 17.8464 25.9451 17.8201C25.9503 17.7937 25.9548 17.7673 25.9588 17.7407C25.9627 17.7142 25.966 17.6875 25.9687 17.6608C25.9713 17.6341 25.9733 17.6073 25.9746 17.5805C25.9759 17.5537 25.9766 17.5268 25.9766 17.5C25.9766 17.4732 25.9759 17.4463 25.9746 17.4195C25.9733 17.3927 25.9713 17.3659 25.9687 17.3392C25.966 17.3125 25.9627 17.2858 25.9588 17.2593C25.9548 17.2327 25.9503 17.2063 25.9451 17.1799C25.9398 17.1536 25.9339 17.1274 25.9274 17.1014C25.9209 17.0753 25.9137 17.0494 25.9059 17.0237C25.8981 16.9981 25.8897 16.9726 25.8807 16.9473C25.8716 16.922 25.8619 16.897 25.8517 16.8722C25.8414 16.8473 25.8305 16.8228 25.819 16.7985C25.8076 16.7743 25.7955 16.7503 25.7829 16.7266C25.7702 16.7029 25.757 16.6796 25.7432 16.6565C25.7294 16.6335 25.715 16.6108 25.7001 16.5885C25.6852 16.5662 25.6697 16.5442 25.6537 16.5227C25.6377 16.5011 25.6212 16.4799 25.6042 16.4592C25.5871 16.4384 25.5696 16.4181 25.5516 16.3982C25.5335 16.3783 25.515 16.3589 25.496 16.3399C25.477 16.3209 25.4576 16.3024 25.4377 16.2844C25.4178 16.2664 25.3975 16.2488 25.3768 16.2318C25.356 16.2147 25.3348 16.1982 25.3133 16.1822C25.2917 16.1662 25.2697 16.1508 25.2474 16.1359C25.2251 16.121 25.2024 16.1066 25.1794 16.0928C25.1564 16.079 25.133 16.0658 25.1093 16.0531C25.0857 16.0404 25.0617 16.0284 25.0374 16.0169C25.0131 16.0054 24.9886 15.9946 24.9638 15.9843C24.939 15.974 24.9139 15.9643 24.8887 15.9553C24.8634 15.9462 24.8379 15.9378 24.8122 15.93C24.7865 15.9222 24.7606 15.9151 24.7346 15.9086C24.7086 15.902 24.6823 15.8961 24.656 15.8909C24.6297 15.8857 24.6032 15.8811 24.5767 15.8771C24.5501 15.8732 24.5235 15.8699 24.4968 15.8673C24.47 15.8646 24.4432 15.8627 24.4165 15.8614C24.3896 15.86 24.3628 15.8594 24.336 15.8594C24.3091 15.8594 24.2823 15.86 24.2555 15.8614C24.2286 15.8627 24.2019 15.8646 24.1751 15.8673C24.1484 15.8699 24.1218 15.8732 24.0952 15.8771C24.0686 15.8811 24.0422 15.8857 24.0159 15.8909C23.9895 15.8961 23.9634 15.902 23.9373 15.9086C23.9113 15.9151 23.8854 15.9222 23.8597 15.93C23.834 15.9378 23.8085 15.9462 23.7832 15.9553C23.7579 15.9643 23.7329 15.974 23.7081 15.9843C23.6833 15.9946 23.6588 16.0054 23.6345 16.0169C23.6102 16.0284 23.5862 16.0404 23.5626 16.0531C23.5389 16.0658 23.5155 16.079 23.4925 16.0928C23.4695 16.1066 23.4468 16.121 23.4245 16.1359C23.4021 16.1508 23.3802 16.1662 23.3586 16.1822C23.3371 16.1982 23.3159 16.2147 23.2952 16.2318C23.2744 16.2488 23.2541 16.2664 23.2342 16.2844C23.2143 16.3024 23.1948 16.3209 23.1759 16.3399C23.1569 16.3589 23.1384 16.3783 23.1203 16.3982C23.1023 16.4181 23.0848 16.4384 23.0678 16.4592C23.0507 16.4799 23.0342 16.5011 23.0182 16.5227C23.0022 16.5442 22.9867 16.5662 22.9718 16.5885C22.9569 16.6108 22.9426 16.6335 22.9287 16.6565C22.9149 16.6796 22.9017 16.7029 22.8891 16.7266C22.8764 16.7503 22.8643 16.7743 22.8529 16.7985C22.8414 16.8228 22.8305 16.8473 22.8202 16.8722C22.8099 16.897 22.8003 16.922 22.7912 16.9473C22.7822 16.9726 22.7738 16.9981 22.766 17.0237C22.7582 17.0494 22.751 17.0753 22.7445 17.1014C22.738 17.1274 22.7321 17.1536 22.7268 17.1799C22.7216 17.2063 22.717 17.2327 22.7131 17.2593C22.7091 17.2858 22.7059 17.3125 22.7032 17.3392C22.7006 17.3659 22.6986 17.3927 22.6973 17.4195C22.696 17.4463 22.6953 17.4732 22.6953 17.5ZM9.02346 17.5C9.02346 17.5268 9.02411 17.5537 9.02544 17.5805C9.02674 17.6073 9.02872 17.6341 9.03135 17.6608C9.03399 17.6875 9.03727 17.7142 9.04123 17.7407C9.04513 17.7673 9.04971 17.7937 9.05497 17.8201C9.0602 17.8464 9.06608 17.8726 9.07261 17.8986C9.07914 17.9247 9.08632 17.9506 9.09411 17.9763C9.1019 18.0019 9.11031 18.0274 9.11937 18.0527C9.12839 18.078 9.13806 18.103 9.14835 18.1278C9.15861 18.1526 9.16947 18.1772 9.18096 18.2015C9.19244 18.2257 9.20451 18.2497 9.21719 18.2734C9.22984 18.2971 9.24306 18.3204 9.25687 18.3435C9.27068 18.3665 9.28504 18.3892 9.29994 18.4115C9.31484 18.4338 9.33032 18.4558 9.34632 18.4773C9.36232 18.4989 9.37883 18.5201 9.39585 18.5408C9.41287 18.5616 9.4304 18.5819 9.44845 18.6018C9.4665 18.6217 9.48499 18.6411 9.50399 18.6601C9.52296 18.6791 9.54241 18.6976 9.5623 18.7156C9.58219 18.7336 9.6025 18.7512 9.62328 18.7682C9.64403 18.7853 9.66518 18.8018 9.68675 18.8178C9.70832 18.8338 9.73026 18.8492 9.75261 18.8641C9.7749 18.879 9.79759 18.8934 9.82063 18.9072C9.84367 18.921 9.86701 18.9342 9.8907 18.9469C9.91435 18.9596 9.93835 18.9716 9.96261 18.9831C9.98688 18.9946 10.0114 19.0054 10.0362 19.0157C10.0611 19.026 10.0861 19.0357 10.1114 19.0447C10.1367 19.0538 10.1621 19.0622 10.1878 19.07C10.2135 19.0778 10.2394 19.0849 10.2654 19.0914C10.2915 19.098 10.3177 19.1039 10.344 19.1091C10.3703 19.1143 10.3968 19.1189 10.4234 19.1229C10.4499 19.1268 10.4765 19.1301 10.5033 19.1327C10.53 19.1354 10.5568 19.1373 10.5836 19.1386C10.6104 19.14 10.6372 19.1406 10.6641 19.1406C10.6909 19.1406 10.7177 19.14 10.7446 19.1386C10.7714 19.1373 10.7982 19.1354 10.8249 19.1327C10.8516 19.1301 10.8782 19.1268 10.9048 19.1229C10.9314 19.1189 10.9578 19.1143 10.9841 19.1091C11.0105 19.1039 11.0367 19.098 11.0627 19.0914C11.0888 19.0849 11.1146 19.0778 11.1403 19.07C11.166 19.0622 11.1915 19.0538 11.2168 19.0447C11.2421 19.0357 11.2671 19.026 11.2919 19.0157C11.3167 19.0054 11.3413 18.9946 11.3656 18.9831C11.3898 18.9716 11.4138 18.9596 11.4375 18.9469C11.4611 18.9342 11.4845 18.921 11.5075 18.9072C11.5306 18.8934 11.5532 18.879 11.5756 18.8641C11.5979 18.8492 11.6198 18.8338 11.6414 18.8178C11.663 18.8018 11.6841 18.7853 11.7049 18.7682C11.7256 18.7512 11.746 18.7336 11.7659 18.7156C11.7858 18.6976 11.8052 18.6791 11.8242 18.6601C11.8431 18.6411 11.8617 18.6217 11.8797 18.6018C11.8977 18.5819 11.9153 18.5616 11.9323 18.5408C11.9493 18.5201 11.9659 18.4989 11.9818 18.4773C11.9978 18.4558 12.0133 18.4338 12.0282 18.4115C12.0431 18.3892 12.0575 18.3665 12.0713 18.3435C12.0851 18.3204 12.0983 18.2971 12.111 18.2734C12.1236 18.2497 12.1357 18.2257 12.1472 18.2015C12.1587 18.1772 12.1695 18.1526 12.1798 18.1278C12.1901 18.103 12.1997 18.078 12.2088 18.0527C12.2178 18.0274 12.2263 18.0019 12.2341 17.9763C12.2419 17.9506 12.249 17.9247 12.2555 17.8986C12.2621 17.8726 12.2679 17.8464 12.2732 17.8201C12.2784 17.7937 12.283 17.7673 12.2869 17.7407C12.2909 17.7142 12.2941 17.6875 12.2968 17.6608C12.2994 17.6341 12.3014 17.6073 12.3027 17.5805C12.304 17.5537 12.3047 17.5268 12.3047 17.5C12.3047 17.4732 12.304 17.4463 12.3027 17.4195C12.3014 17.3927 12.2994 17.3659 12.2968 17.3392C12.2941 17.3125 12.2909 17.2858 12.2869 17.2593C12.283 17.2327 12.2784 17.2063 12.2732 17.1799C12.2679 17.1536 12.2621 17.1274 12.2556 17.1014C12.249 17.0753 12.2419 17.0494 12.2341 17.0237C12.2263 16.9981 12.2178 16.9726 12.2088 16.9473C12.1997 16.922 12.1901 16.897 12.1798 16.8722C12.1695 16.8473 12.1587 16.8228 12.1472 16.7985C12.1357 16.7743 12.1236 16.7503 12.111 16.7266C12.0983 16.7029 12.0851 16.6796 12.0713 16.6565C12.0575 16.6335 12.0431 16.6108 12.0282 16.5885C12.0133 16.5662 11.9978 16.5442 11.9818 16.5227C11.9659 16.5011 11.9493 16.4799 11.9323 16.4592C11.9153 16.4384 11.8977 16.4181 11.8797 16.3982C11.8617 16.3783 11.8431 16.3589 11.8242 16.3399C11.8052 16.3209 11.7858 16.3024 11.7659 16.2844C11.746 16.2664 11.7256 16.2488 11.7049 16.2318C11.6841 16.2147 11.663 16.1982 11.6414 16.1822C11.6198 16.1662 11.5979 16.1508 11.5756 16.1359C11.5532 16.121 11.5306 16.1066 11.5075 16.0928C11.4845 16.079 11.4611 16.0658 11.4375 16.0531C11.4138 16.0404 11.3898 16.0284 11.3656 16.0169C11.3413 16.0054 11.3167 15.9946 11.2919 15.9843C11.2671 15.974 11.2421 15.9643 11.2168 15.9553C11.1915 15.9462 11.166 15.9378 11.1403 15.93C11.1146 15.9222 11.0888 15.9151 11.0627 15.9086C11.0367 15.902 11.0105 15.8961 10.9841 15.8909C10.9578 15.8857 10.9314 15.8811 10.9048 15.8771C10.8782 15.8732 10.8516 15.8699 10.8249 15.8673C10.7982 15.8646 10.7714 15.8627 10.7446 15.8614C10.7177 15.86 10.6909 15.8594 10.6641 15.8594C10.6372 15.8594 10.6104 15.86 10.5836 15.8614C10.5568 15.8627 10.53 15.8646 10.5033 15.8673C10.4765 15.8699 10.4499 15.8732 10.4234 15.8771C10.3968 15.8811 10.3703 15.8857 10.344 15.8909C10.3177 15.8961 10.2915 15.902 10.2654 15.9086C10.2394 15.9151 10.2135 15.9222 10.1878 15.93C10.1621 15.9378 10.1367 15.9462 10.1114 15.9553C10.0861 15.9643 10.0611 15.974 10.0362 15.9843C10.0114 15.9946 9.98688 16.0054 9.96261 16.0169C9.93835 16.0284 9.91435 16.0404 9.8907 16.0531C9.86701 16.0658 9.84367 16.079 9.82063 16.0928C9.79759 16.1066 9.7749 16.121 9.75261 16.1359C9.73026 16.1508 9.70832 16.1662 9.68675 16.1822C9.66518 16.1982 9.64403 16.2147 9.62328 16.2318C9.6025 16.2488 9.58219 16.2664 9.5623 16.2844C9.54241 16.3024 9.52296 16.3209 9.50399 16.3399C9.48499 16.3589 9.4665 16.3783 9.44845 16.3982C9.4304 16.4181 9.41287 16.4384 9.39585 16.4592C9.37883 16.4799 9.36232 16.5011 9.34632 16.5227C9.33032 16.5442 9.31484 16.5662 9.29994 16.5885C9.28504 16.6108 9.27068 16.6335 9.25687 16.6565C9.24306 16.6796 9.22984 16.7029 9.21719 16.7266C9.20451 16.7503 9.19244 16.7743 9.18096 16.7985C9.16947 16.8228 9.15861 16.8473 9.14835 16.8722C9.13806 16.897 9.12839 16.922 9.11937 16.9473C9.11031 16.9726 9.1019 16.9981 9.09411 17.0237C9.08632 17.0494 9.07914 17.0753 9.07261 17.1014C9.06608 17.1274 9.0602 17.1536 9.05497 17.1799C9.04971 17.2063 9.04513 17.2327 9.04123 17.2593C9.03727 17.2858 9.03399 17.3125 9.03135 17.3392C9.02872 17.3659 9.02674 17.3927 9.02544 17.4195C9.02411 17.4463 9.02346 17.4732 9.02346 17.5ZM31.6231 11.5664C30.8506 9.73096 29.7432 8.0835 28.3316 6.66846C26.9199 5.25684 25.2725 4.146 23.4336 3.37695C21.5537 2.5874 19.5576 2.1875 17.5 2.1875L17.4317 2.1875C15.3604 2.19775 13.354 2.60791 11.4673 3.41455C9.64553 4.19385 8.01174 5.30127 6.61379 6.71289C5.21583 8.12451 4.11866 9.76514 3.35987 11.5938C2.57374 13.4873 2.17726 15.5005 2.18751 17.5718C2.19777 19.9438 2.76515 22.2988 3.82814 24.4043L3.82814 29.5996C3.82814 30.4678 4.53224 31.1719 5.4004 31.1719L10.5991 31.1719C12.7046 32.2349 15.0596 32.8022 17.4317 32.8125L17.5034 32.8125C19.5508 32.8125 21.5366 32.416 23.4063 31.6401C25.2349 30.8779 26.8789 29.7842 28.2871 28.3862C29.6988 26.9883 30.8096 25.3545 31.5855 23.5327C32.3921 21.646 32.8023 19.6396 32.8125 17.5684C32.8228 15.4868 32.4195 13.4668 31.6231 11.5664ZM26.4585 26.5371C24.0625 28.9092 20.8838 30.2148 17.5 30.2148L17.4419 30.2148C15.3809 30.2046 13.3335 29.6919 11.5254 28.728L11.2383 28.5742L6.4258 28.5742L6.4258 23.7617L6.27199 23.4746C5.30812 21.6665 4.79542 19.6191 4.78517 17.5581C4.7715 14.1504 6.07375 10.9512 8.46291 8.5415C10.8487 6.13184 14.0376 4.79883 17.4453 4.78516L17.5034 4.78516C19.2124 4.78516 20.8701 5.1167 22.4321 5.77295C23.9566 6.41211 25.3238 7.33154 26.4995 8.50732C27.6719 9.67969 28.5947 11.0503 29.2339 12.5747C29.897 14.1538 30.2285 15.8286 30.2217 17.5581C30.2012 20.9624 28.8648 24.1514 26.4585 26.5371Z" stroke="rgba(255, 255, 255, 1)" stroke-width="1"      fill="#FFFFFF" >
</path>
</svg>
