<svg xmlns="http://www.w3.org/2000/svg" xmlns:xlink="http://www.w3.org/1999/xlink" width="23" height="26" viewBox="0 0 23 26" fill="none">
<g >
<path     fill="#F66142"  d="M8.388 1.68L10.764 5.472L8.952 5.472L6.576 1.68L8.388 1.68ZM2.052 5.472L0.24 5.472L2.472 1.68L4.284 1.68L2.052 5.472ZM8.856 6.384L10.788 10.308L8.904 10.308L8.808 10.104L1.008 10.104L0.276 10.104L3.36 4.872L5.316 4.872L2.796 8.94L8.232 8.94L6.96 6.384L8.856 6.384ZM21.588 9.012Q21.588 9.288 21.486 9.522Q21.384 9.756 21.204 9.936Q21.024 10.116 20.784 10.218Q20.544 10.32 20.268 10.32L11.808 10.32L11.808 6.972L21.588 6.972L21.588 9.012ZM20.076 8.004L13.32 8.004L13.32 9.3L19.692 9.3Q19.86 9.3 19.968 9.192Q20.076 9.084 20.076 8.928L20.076 8.004ZM17.436 5.028L21.828 5.028L21.828 6.216L11.292 6.216L11.292 5.028L15.768 5.028L15.768 3.936L12.876 3.936L11.628 3.936L12.24 1.68L13.956 1.68L13.668 2.736L15.768 2.736L15.768 1.68L17.436 1.68L17.436 2.736L21.576 2.736L21.576 3.936L17.436 3.936L17.436 5.028Z">
</path>
</g>
<g >
<path     fill="#101A3E"  d="M6.492 15.004L10.788 15.004L10.788 15.928L6.492 15.928L6.492 16.204L10.116 16.204L10.116 17.176Q10.116 17.452 10.014 17.692Q9.912 17.932 9.732 18.112Q9.552 18.292 9.312 18.394Q9.072 18.496 8.796 18.496L6.492 18.496L6.492 18.736L10.116 18.736L10.116 19.924L10.788 19.924L10.788 20.848L10.116 20.848Q10.056 21.352 9.69 21.694Q9.324 22.036 8.796 22.036L6.492 22.036Q6.492 22.312 6.384 22.546Q6.276 22.78 6.102 22.954Q5.928 23.128 5.688 23.23Q5.448 23.332 5.184 23.332L3.492 23.332L3.948 22.288L4.452 22.288Q4.584 22.288 4.68 22.222Q4.776 22.156 4.812 22.036L1.068 22.036L1.068 21.124L4.836 21.124L4.836 20.848L0.24 20.848L0.24 19.924L4.836 19.924L4.836 19.648L1.068 19.648L1.068 18.736L4.836 18.736L4.836 18.496L1.068 18.496L1.068 16.204L4.836 16.204L4.836 15.928L0.24 15.928L0.24 15.004L4.836 15.004L4.836 14.668L6.492 14.668L6.492 15.004ZM8.208 21.124Q8.34 21.124 8.436 21.046Q8.532 20.968 8.568 20.848L6.492 20.848L6.492 21.124L8.208 21.124ZM6.492 19.648L6.492 19.924L8.592 19.924L8.592 19.648L6.492 19.648ZM4.836 17.572L4.836 17.128L2.736 17.128L2.736 17.572L4.836 17.572ZM6.492 17.128L6.492 17.572L8.076 17.572Q8.232 17.572 8.34 17.464Q8.448 17.356 8.448 17.2L8.448 17.128L6.492 17.128ZM15.228 22.936L11.292 23.26L11.292 22.252L12.444 22.156L12.444 15.952L11.352 15.952L11.352 14.764L15.228 14.764L15.228 15.952L14.076 15.952L14.076 22.012L15.228 21.916L15.228 22.936ZM19.356 20.992L19.104 21.316L20.124 21.316L21.828 23.248L20.088 23.248L18.768 21.712L17.508 23.248L15.744 23.248L17.7 20.728L17.7 18.232L19.356 18.232L19.356 20.992ZM17.016 21.184L15.384 21.184L15.384 16.576L17.532 16.576L17.832 15.916L15.564 15.916L15.564 14.728L21.624 14.728L21.624 15.916L19.44 15.916L19.152 16.576L20.508 16.576Q20.772 16.576 21.012 16.678Q21.252 16.78 21.432 16.96Q21.612 17.14 21.714 17.38Q21.816 17.62 21.816 17.896L21.816 21.184L20.196 21.184L20.196 18.148Q20.196 17.98 20.088 17.872Q19.98 17.764 19.812 17.764L17.016 17.764L17.016 21.184Z">
</path>
</g>
</svg>
