<svg xmlns="http://www.w3.org/2000/svg" xmlns:xlink="http://www.w3.org/1999/xlink" width="45" height="45" viewBox="0 0 45 45" fill="none">
<path d="M24 33.0625L24 35.125L29.625 35.125L29.625 38.875L14.625 38.875L14.625 35.125L20.25 35.125L20.25 33.0625C13.875 32.125 9 26.6875 9 20.125C9 13.5625 13.875 8.125 20.25 7.18747L20.25 7L24 7L24 7.18747C30.375 8.125 35.25 13.5625 35.25 20.125C35.25 26.6875 30.375 32.125 24 33.0625ZM22.125 29.5C27.375 29.5 31.5 25.375 31.5 20.125C31.5 14.875 27.375 10.75 22.125 10.75C16.875 10.75 12.75 14.875 12.75 20.125C12.75 25.375 16.875 29.5 22.125 29.5ZM22.125 23.875C20.0625 23.875 18.375 22.1875 18.375 20.125C18.375 18.0625 20.0625 16.375 22.125 16.375C24.1875 16.375 25.875 18.0625 25.875 20.125C25.875 22.1875 24.1875 23.875 22.125 23.875Z"   fill="#393E46" >
</path>
</svg>
