<svg xmlns="http://www.w3.org/2000/svg" xmlns:xlink="http://www.w3.org/1999/xlink" width="40" height="40" viewBox="0 0 40 40" fill="none">
<path d="M35.5464 13.4094C34.6964 11.3998 33.4799 9.59522 31.9305 8.04585C30.3812 6.49647 28.5766 5.27991 26.567 4.42991C24.4857 3.5496 22.2757 3.10327 19.9981 3.10327C17.7205 3.10327 15.5104 3.5496 13.4292 4.42991C11.4196 5.27991 9.615 6.49647 8.06563 8.04585C6.51625 9.59522 5.29969 11.3998 4.44969 13.4094C3.56938 15.4907 3.12305 17.7007 3.12305 19.9783C3.12305 22.2559 3.56938 24.466 4.44969 26.5472C5.29969 28.5568 6.51625 30.3614 8.06563 31.9107C9.615 33.4601 11.4195 34.6767 13.4292 35.5267C15.5104 36.4069 17.7205 36.8533 19.9981 36.8533C22.2757 36.8533 24.4857 36.4069 26.567 35.5267C28.5766 34.6767 30.3812 33.4601 31.9305 31.9107C33.4799 30.3614 34.6965 28.5568 35.5464 26.5472C36.4267 24.466 36.8731 22.2559 36.8731 19.9783C36.8731 17.7007 36.4267 15.4907 35.5464 13.4094ZM21.2481 14.6887C21.9344 14.6792 22.619 14.662 23.3003 14.6352C24.4886 14.5885 25.6752 14.5146 26.8601 14.4134C27.2568 15.7563 27.5102 17.1991 27.6175 18.7283L21.2481 18.7283L21.2481 14.6887ZM21.2481 12.186L21.2481 6.38319C21.9363 6.85882 22.7861 7.54901 23.6338 8.50026C24.5486 9.52683 25.3177 10.6932 25.93 11.9776C24.2919 12.1005 22.7223 12.1644 21.2481 12.186ZM18.7481 6.53116L18.7481 12.1837C17.4002 12.1618 16.0537 12.1057 14.7086 12.0154C14.563 12.0056 14.4174 11.9953 14.2718 11.9847C14.8654 10.738 15.6068 9.60222 16.4857 8.59753C17.278 7.69186 18.0764 7.01589 18.7481 6.53116ZM14.486 14.506C15.9052 14.6025 17.3259 14.6625 18.7481 14.6859L18.7481 18.7283L12.5879 18.7283C12.695 17.2017 12.9476 15.7611 13.3432 14.4203C13.7124 14.4506 14.0936 14.4793 14.486 14.506ZM10.0825 18.7283L5.67742 18.7283C5.83039 16.9409 6.31055 15.2213 7.0891 13.6394C7.88039 13.7791 9.15301 13.9815 10.8159 14.1722C10.4291 15.6058 10.1838 17.1285 10.0825 18.7283ZM10.0489 21.2283C10.1261 22.7573 10.4283 24.2846 10.9513 25.7907C9.22891 25.9851 7.91234 26.1938 7.09891 26.3373C6.31453 24.7498 5.83102 23.0232 5.67742 21.2282L10.0489 21.2282L10.0489 21.2283ZM12.5527 21.2283L18.7481 21.2283L18.7481 25.2926C17.3274 25.3162 15.9036 25.3758 14.486 25.4724C14.1575 25.4948 13.8371 25.5185 13.5247 25.5435C12.9653 24.1168 12.6396 22.6707 12.5527 21.2283ZM18.7481 27.7948L18.7481 32.9398C18.085 32.3196 17.3194 31.535 16.5591 30.6064C15.8535 29.7445 15.2352 28.8604 14.7084 27.9631C16.0535 27.8728 17.4001 27.8167 18.7481 27.7948ZM21.2481 33.1333L21.2481 27.7924C22.5913 27.8121 24.013 27.8668 25.4934 27.9693C24.9673 28.8644 24.3503 29.7465 23.6463 30.6064C22.8046 31.6345 21.9564 32.486 21.2481 33.1333ZM23.3003 25.3432C22.6164 25.3164 21.9324 25.2984 21.2481 25.2891L21.2481 21.2283L27.6527 21.2283C27.5657 22.6726 27.2393 24.1207 26.6785 25.5492C25.5539 25.456 24.4279 25.3874 23.3003 25.3432ZM30.1566 21.2283L34.3187 21.2283C34.1653 23.0212 33.6827 24.7459 32.8999 26.3319C31.6873 26.1253 30.4702 25.9503 29.2485 25.8069C29.775 24.2955 30.0791 22.7628 30.1566 21.2283ZM30.123 18.7283C30.0212 17.1224 29.7744 15.594 29.3851 14.1556C30.5643 14.0148 31.7391 13.8445 32.9098 13.6448C33.6868 15.2253 34.166 16.943 34.3188 18.7283L30.123 18.7283ZM30.1627 9.81362C30.4019 10.0528 30.6324 10.3 30.8543 10.5552C31.0762 10.8105 31.289 11.0731 31.4927 11.3431C30.5173 11.494 29.5393 11.6239 28.5584 11.733C27.7955 9.90542 26.7684 8.25991 25.5002 6.83694C25.4307 6.7591 25.3606 6.68193 25.2898 6.60542C27.0939 7.31882 28.7496 8.40054 30.1627 9.81362ZM15.0316 6.48136C14.9211 6.59828 14.8123 6.7168 14.7053 6.8369C13.4337 8.26366 12.4043 9.91405 11.6409 11.7475C10.3769 11.6114 9.31742 11.4645 8.50703 11.3385C8.7102 11.0693 8.92246 10.8075 9.14379 10.5531C9.36512 10.2986 9.595 10.0521 9.83344 9.81362C11.331 8.31604 13.1012 7.1905 15.0316 6.48136ZM9.83344 30.1429C9.59785 29.9073 9.37059 29.6638 9.15172 29.4125C8.93281 29.1612 8.72277 28.9028 8.52156 28.6371C9.40148 28.5005 10.5735 28.3397 11.9835 28.1946C12.6956 29.583 13.5972 30.9429 14.6736 32.2496C15.1182 32.7888 15.5834 33.3096 16.0692 33.8119C13.735 33.1528 11.5956 31.9051 9.83344 30.1429ZM24.2182 33.7267C24.6745 33.2507 25.1123 32.7583 25.5318 32.2496C26.6048 30.9471 27.5039 29.5917 28.215 28.208C29.3059 28.3239 30.3935 28.4656 31.4778 28.633C31.2762 28.8994 31.0656 29.1585 30.8462 29.4105C30.6268 29.6625 30.3989 29.9066 30.1627 30.1429C28.4741 31.8316 26.4391 33.0481 24.2182 33.7267Z"   fill="#FFFFFF" >
</path>
</svg>
