<svg xmlns="http://www.w3.org/2000/svg" xmlns:xlink="http://www.w3.org/1999/xlink" width="48" height="48" viewBox="0 0 48 48" fill="none">
<path   fill="rgba(78, 89, 105, 1)"  d="M12.9984 36L7 36L7 34L7 36C5.34315 36 4 34.6569 4 33L4 33L4 16L6 16L4 16C4 14.3431 5.34315 13 7 13L7 13L13.9992 13L13.9992 15L13.9992 13L34.0008 13L34.0008 15L34.0008 13L41 13L41 15L41 13C42.6569 13 44 14.3431 44 16L42 16L44 16L44 33L42 33L44 33C44 34.6569 42.6569 36 41 36L41 34L41 36L35.0016 36L35.0016 32L41 32L41 32C40.4477 32 40 32.4477 40 33L40 33L40 16L40 16C40 16.5523 40.4477 17 41 17L41 17L34.0008 17L34.0008 17L13.9992 17L13.9992 17L7 17L7 15L7 17C7.55228 17 8 16.5523 8 16L8 16L8 33L6 33L8 33C8 32.4477 7.55228 32 7 32L7 32L12.9984 32L12.9984 36Z">
</path>
<path   fill="rgba(78, 89, 105, 1)"  d="M36 8L36 14L34 14L36 14C36 15.6569 34.6569 17 33 17L33 15L33 17L15 17L15 15L15 17C13.3431 17 12 15.6569 12 14L12 14L12 8L14 8L12 8C12 6.34315 13.3431 5 15 5L15 5L33 5L33 7L33 5C34.6569 5 36 6.34315 36 8L34 8L36 8ZM32 8L32 8C32 8.55228 32.4477 9 33 9L33 9L15 9L15 7L15 9C15.5523 9 16 8.55228 16 8L16 8L16 14L14 14L16 14C16 13.4477 15.5523 13 15 13L15 13L33 13L33 13C32.4477 13 32 13.4477 32 14L32 14L32 8Z">
</path>
<path   fill="rgba(78, 89, 105, 1)"  d="M37 29L37 33.9995L35 33.9995L37 33.9995L37 40L35 40L37 40C37 41.6569 35.6569 43 34 43L34 41L34 43L14 43L14 41L14 43C12.3431 43 11 41.6569 11 40L11 40L11 33.9995L13 33.9995L11 33.9995L11 29L13 29L11 29C11 27.3431 12.3431 26 14 26L14 26L34 26L34 28L34 26C35.6569 26 37 27.3431 37 29L35 29L37 29ZM33 29L33 29C33 29.5523 33.4477 30 34 30L34 30L14 30L14 28L14 30C14.5523 30 15 29.5523 15 29L15 29L15 33.9995L15 33.9995L15 40L13 40L15 40C15 39.4477 14.5523 39 14 39L14 39L34 39L34 39C33.4477 39 33 39.4477 33 40L33 40L33 33.9995L33 33.9995L33 29Z">
</path>
</svg>
