<svg xmlns="http://www.w3.org/2000/svg" xmlns:xlink="http://www.w3.org/1999/xlink" width="35" height="35" viewBox="0 0 35 35" fill="none">
<path d="M28.5348 3.8889L23.5619 3.8889C23.4112 3.42221 23.2605 3.11111 22.8084 2.64444C21.9042 1.4 20.3973 0 17.8355 0C15.2737 0 13.7667 1.4 12.8626 2.64444C12.7119 3.11111 12.5612 3.42221 12.4105 3.8889L7.43759 3.8889C4.87578 3.8889 2.91675 5.9111 2.91675 8.55555L2.91675 30.3333C2.91675 32.9778 4.87578 35 7.43759 35L28.5348 35C31.0966 35 33.0556 32.9778 33.0556 30.3333L33.0556 8.55555C33.0556 5.9111 31.0966 3.8889 28.5348 3.8889ZM28.5348 31.8889L7.43759 31.8889C6.53344 31.8889 5.93063 31.2667 5.93063 30.3333L5.93063 8.55555C5.93063 7.62221 6.53344 7 7.43759 7L13.4654 7C14.2188 7 14.8216 6.53334 14.9723 5.75555C14.9723 5.75555 15.2737 4.66666 15.5751 4.35555C16.0272 3.73334 16.7806 3.11111 17.9862 3.11111C19.1917 3.11111 19.9452 3.73334 20.3973 4.35555C20.6987 4.66666 21.0001 5.75555 21.0001 5.75555C21.1508 6.53334 21.7535 7 22.507 7L28.5348 7C29.439 7 30.0417 7.62221 30.0417 8.55555L30.0417 30.3333C30.0417 31.2667 29.439 31.8889 28.5348 31.8889Z"   fill="#393E46" >
</path>
<path d="M17.9861 18.1484L10.289 18.1484C9.36541 18.1484 8.75 17.532 8.75 16.6084C8.75 15.6848 9.36541 15.0694 10.289 15.0694L17.9861 15.0694C18.9097 15.0694 19.5251 15.6848 19.5251 16.6084C19.5251 17.532 18.9097 18.1484 17.9861 18.1484ZM25.6832 24.3055L10.289 24.3055C9.36541 24.3055 8.75 23.69 8.75 22.7664C8.75 21.8428 9.36541 21.2264 10.289 21.2264L25.6832 21.2264C26.6068 21.2264 27.2222 21.8428 27.2222 22.7664C27.2222 23.69 26.6068 24.3055 25.6832 24.3055ZM17.9861 9.6813C17.0625 9.6813 16.4471 9.06586 16.4471 8.14226L16.4471 7.37226C16.4471 6.44866 17.0625 5.83325 17.9861 5.83325C18.9097 5.83325 19.5251 6.44866 19.5251 7.37226L19.5251 8.14226C19.5251 9.06586 18.9097 9.6813 17.9861 9.6813Z"   fill="#393E46" >
</path>
</svg>
