<svg xmlns="http://www.w3.org/2000/svg" xmlns:xlink="http://www.w3.org/1999/xlink" width="35" height="35" viewBox="0 0 35 35" fill="none">
<path d="M28.4316 2.18555L6.56055 2.18555C4.14431 2.18555 2.18555 4.14431 2.18555 6.56055L2.18555 28.4316C2.18555 30.8478 4.14431 32.8066 6.56055 32.8066L28.4316 32.8066C30.8478 32.8066 32.8066 30.8478 32.8066 28.4316L32.8066 6.56055C32.8066 4.14431 30.8478 2.18555 28.4316 2.18555ZM30.6212 28.4376C30.6212 28.4733 30.6203 28.5091 30.6186 28.5448C30.6169 28.5805 30.6143 28.6162 30.6108 28.6518C30.6073 28.6874 30.6029 28.7229 30.5977 28.7583C30.5925 28.7937 30.5864 28.829 30.5794 28.8641C30.5725 28.8991 30.5646 28.934 30.556 28.9687C30.5473 29.0034 30.5377 29.0379 30.5274 29.0721C30.517 29.1064 30.5057 29.1403 30.4937 29.174C30.4817 29.2077 30.4688 29.2411 30.4551 29.2741C30.4414 29.3072 30.4269 29.3399 30.4116 29.3722C30.3963 29.4046 30.3803 29.4365 30.3634 29.4681C30.3465 29.4996 30.3289 29.5307 30.3105 29.5614C30.2921 29.5921 30.2729 29.6223 30.2531 29.652C30.2332 29.6818 30.2126 29.711 30.1913 29.7397C30.1699 29.7685 30.1479 29.7966 30.1252 29.8243C30.1025 29.8519 30.0791 29.879 30.0551 29.9055C30.0311 29.932 30.0063 29.9579 29.981 29.9832C29.9557 30.0084 29.9298 30.0331 29.9033 30.0571C29.8768 30.0811 29.8497 30.1044 29.822 30.1271C29.7943 30.1498 29.7661 30.1717 29.7373 30.193C29.7086 30.2143 29.6793 30.2349 29.6496 30.2547C29.6198 30.2746 29.5896 30.2937 29.5589 30.312C29.5282 30.3304 29.497 30.348 29.4654 30.3648C29.4339 30.3816 29.4019 30.3977 29.3695 30.4129C29.3372 30.4282 29.3045 30.4426 29.2714 30.4562C29.2383 30.4699 29.2049 30.4827 29.1712 30.4947C29.1375 30.5067 29.1036 30.5179 29.0693 30.5282C29.0351 30.5386 29.0006 30.548 28.9659 30.5567C28.9312 30.5653 28.8962 30.5731 28.8612 30.58C28.826 30.5869 28.7908 30.593 28.7554 30.5982C28.72 30.6033 28.6845 30.6076 28.6489 30.6111C28.6133 30.6145 28.5776 30.6171 28.5418 30.6187C28.5061 30.6204 28.4703 30.6212 28.4346 30.6212L6.56561 30.6212C5.98072 30.6212 5.42841 30.3964 5.0148 29.9828C4.60116 29.5692 4.37099 29.0224 4.37099 28.4376L4.37099 6.56263C4.37106 6.52674 4.372 6.49089 4.37383 6.45507C4.37565 6.41921 4.37835 6.38343 4.38193 6.34774C4.38551 6.31206 4.38996 6.27645 4.39529 6.24097C4.4006 6.20549 4.40679 6.17015 4.41385 6.13498C4.42089 6.09977 4.4288 6.0648 4.43757 6.03001C4.44635 5.99521 4.45596 5.96066 4.46642 5.92634C4.47688 5.89203 4.48818 5.85798 4.50033 5.82421C4.51245 5.79044 4.52539 5.75698 4.53915 5.72386C4.55294 5.69071 4.56752 5.65793 4.5829 5.62553C4.59828 5.59312 4.61444 5.5611 4.63137 5.52948C4.64832 5.49785 4.66604 5.46665 4.68452 5.43589C4.703 5.40513 4.72222 5.37485 4.74218 5.34504C4.76214 5.31521 4.78282 5.2859 4.80422 5.2571C4.82564 5.22832 4.84774 5.20006 4.87053 5.17233C4.89329 5.14462 4.91674 5.11748 4.94087 5.09092C4.96497 5.06435 4.98972 5.03838 5.01511 5.01302C5.04051 4.98766 5.06651 4.96295 5.0931 4.93888C5.11969 4.9148 5.14687 4.89139 5.17462 4.86865C5.20238 4.84588 5.23067 4.82383 5.25949 4.80247C5.28831 4.7811 5.31765 4.76046 5.3475 4.74054C5.37735 4.72062 5.40766 4.70145 5.43842 4.68302C5.46921 4.66458 5.50042 4.64691 5.53207 4.63C5.56372 4.61309 5.59577 4.59698 5.62823 4.58164C5.66063 4.5663 5.69344 4.55177 5.7266 4.53803C5.75975 4.52431 5.79321 4.5114 5.82702 4.4993C5.86079 4.48722 5.89483 4.47598 5.92918 4.46556C5.9635 4.45515 5.99809 4.44558 6.03288 4.43685C6.06768 4.42813 6.10268 4.42027 6.13788 4.41327C6.17309 4.40625 6.20843 4.40011 6.24391 4.39485C6.27938 4.38956 6.315 4.38516 6.35072 4.38165C6.3864 4.37812 6.42219 4.37547 6.45801 4.37369C6.49383 4.37191 6.52972 4.37101 6.56561 4.37099L28.4346 4.37099C28.4704 4.37103 28.5062 4.37196 28.542 4.37376C28.5778 4.37554 28.6135 4.3782 28.6492 4.38176C28.6848 4.38531 28.7203 4.38973 28.7558 4.39502C28.7912 4.40033 28.8265 4.40649 28.8616 4.41351C28.8968 4.42053 28.9317 4.42841 28.9665 4.43716C29.0012 4.44591 29.0357 4.45551 29.07 4.46594C29.1042 4.47638 29.1382 4.48764 29.172 4.49974C29.2057 4.51184 29.2391 4.52477 29.2722 4.53854C29.3053 4.55228 29.338 4.56683 29.3704 4.58219C29.4027 4.59752 29.4347 4.61365 29.4663 4.63058C29.4978 4.64751 29.529 4.66521 29.5597 4.68367C29.5904 4.70212 29.6207 4.72132 29.6504 4.74126C29.6802 4.76119 29.7095 4.78185 29.7382 4.80323C29.7669 4.8246 29.7952 4.84666 29.8229 4.8694C29.8505 4.89216 29.8776 4.9156 29.9041 4.9397C29.9306 4.96379 29.9565 4.98851 29.9819 5.01388C30.0072 5.03924 30.0318 5.0652 30.0559 5.09177C30.0799 5.11834 30.1033 5.14549 30.126 5.17322C30.1487 5.20095 30.1706 5.22922 30.192 5.25802C30.2133 5.28682 30.2338 5.31613 30.2537 5.34593C30.2736 5.37574 30.2927 5.40602 30.3111 5.43678C30.3295 5.46754 30.3471 5.49872 30.364 5.53033C30.3808 5.56196 30.3969 5.59397 30.4122 5.62638C30.4274 5.65878 30.4419 5.69153 30.4556 5.72465C30.4692 5.75777 30.4821 5.7912 30.4941 5.82497C30.5061 5.8587 30.5173 5.89271 30.5277 5.92703C30.538 5.96131 30.5476 5.99583 30.5562 6.03062C30.5649 6.06539 30.5727 6.10035 30.5796 6.13549C30.5866 6.17062 30.5927 6.20593 30.5979 6.24138C30.6031 6.27682 30.6074 6.31237 30.6109 6.34805C30.6144 6.3837 30.617 6.41942 30.6187 6.4552C30.6204 6.49099 30.6212 6.52681 30.6212 6.56263L30.6212 28.4376Z"   fill="#FFFFFF" >
</path>
<path d="M27.0703 12.0263L18.3203 12.0263C18.3025 12.0263 18.2846 12.0267 18.2667 12.0276C18.2489 12.0284 18.231 12.0298 18.2132 12.0315C18.1954 12.0333 18.1777 12.0354 18.16 12.0381C18.1423 12.0407 18.1247 12.0438 18.1071 12.0472C18.0896 12.0507 18.0721 12.0546 18.0548 12.059C18.0375 12.0633 18.0203 12.0681 18.0031 12.0733C17.986 12.0785 17.9691 12.0841 17.9522 12.0901C17.9354 12.0961 17.9187 12.1026 17.9022 12.1094C17.8857 12.1163 17.8693 12.1235 17.8531 12.1312C17.837 12.1388 17.821 12.1469 17.8052 12.1553C17.7895 12.1637 17.7739 12.1725 17.7585 12.1817C17.7432 12.1909 17.7281 12.2004 17.7133 12.2104C17.6984 12.2203 17.6838 12.2306 17.6694 12.2413C17.655 12.2519 17.6409 12.2629 17.6271 12.2743C17.6133 12.2856 17.5998 12.2973 17.5865 12.3093C17.5733 12.3213 17.5603 12.3336 17.5477 12.3463C17.535 12.3589 17.5227 12.3719 17.5107 12.3851C17.4987 12.3984 17.487 12.4119 17.4756 12.4258C17.4643 12.4396 17.4533 12.4537 17.4427 12.468C17.432 12.4824 17.4217 12.497 17.4118 12.5119C17.4018 12.5268 17.3923 12.5419 17.3831 12.5572C17.3739 12.5725 17.3651 12.5881 17.3566 12.6039C17.3482 12.6196 17.3402 12.6356 17.3325 12.6518C17.3249 12.6679 17.3176 12.6843 17.3108 12.7008C17.3039 12.7173 17.2975 12.734 17.2915 12.7508C17.2855 12.7677 17.2799 12.7846 17.2747 12.8018C17.2695 12.8189 17.2647 12.8361 17.2603 12.8535C17.256 12.8708 17.2521 12.8883 17.2486 12.9058C17.2451 12.9233 17.2421 12.9409 17.2394 12.9586C17.2368 12.9763 17.2346 12.9941 17.2329 13.0119C17.2311 13.0297 17.2298 13.0475 17.2289 13.0654C17.228 13.0832 17.2276 13.1011 17.2276 13.119C17.2276 13.1368 17.228 13.1547 17.2289 13.1726C17.2298 13.1904 17.2311 13.2083 17.2329 13.2261C17.2346 13.2439 17.2368 13.2616 17.2394 13.2793C17.2421 13.297 17.2451 13.3146 17.2486 13.3322C17.2521 13.3497 17.256 13.3671 17.2603 13.3845C17.2647 13.4018 17.2695 13.4191 17.2747 13.4362C17.2799 13.4533 17.2855 13.4703 17.2915 13.4871C17.2975 13.5039 17.3039 13.5206 17.3108 13.5371C17.3176 13.5537 17.3249 13.57 17.3325 13.5862C17.3402 13.6023 17.3482 13.6183 17.3566 13.6341C17.3651 13.6499 17.3739 13.6654 17.3831 13.6808C17.3923 13.6961 17.4018 13.7112 17.4118 13.726C17.4217 13.7409 17.432 13.7555 17.4427 13.7699C17.4533 13.7843 17.4643 13.7984 17.4756 13.8122C17.487 13.826 17.4987 13.8396 17.5107 13.8528C17.5227 13.866 17.535 13.879 17.5477 13.8916C17.5603 13.9043 17.5733 13.9166 17.5865 13.9286C17.5998 13.9407 17.6133 13.9523 17.6271 13.9637C17.6409 13.975 17.655 13.986 17.6694 13.9966C17.6838 14.0073 17.6984 14.0176 17.7133 14.0275C17.7281 14.0375 17.7432 14.0471 17.7585 14.0562C17.7739 14.0654 17.7895 14.0743 17.8052 14.0827C17.821 14.0911 17.837 14.0991 17.8531 14.1068C17.8693 14.1144 17.8857 14.1217 17.9022 14.1285C17.9187 14.1354 17.9354 14.1418 17.9522 14.1478C17.9691 14.1538 17.986 14.1594 18.0031 14.1646C18.0203 14.1698 18.0375 14.1746 18.0548 14.179C18.0721 14.1833 18.0896 14.1872 18.1071 14.1907C18.1247 14.1942 18.1423 14.1973 18.16 14.1999C18.1777 14.2025 18.1954 14.2047 18.2132 14.2064C18.231 14.2082 18.2489 14.2095 18.2667 14.2104C18.2846 14.2113 18.3025 14.2117 18.3203 14.2117L27.0703 14.2117C27.0882 14.2117 27.106 14.2113 27.1239 14.2104C27.1418 14.2095 27.1596 14.2082 27.1774 14.2064C27.1952 14.2047 27.213 14.2025 27.2306 14.1999C27.2483 14.1973 27.2659 14.1942 27.2835 14.1907C27.301 14.1872 27.3185 14.1833 27.3358 14.179C27.3532 14.1746 27.3704 14.1698 27.3875 14.1646C27.4046 14.1594 27.4216 14.1538 27.4384 14.1478C27.4553 14.1418 27.472 14.1353 27.4885 14.1285C27.505 14.1217 27.5213 14.1144 27.5375 14.1068C27.5537 14.0991 27.5697 14.0911 27.5854 14.0827C27.6012 14.0743 27.6167 14.0654 27.6321 14.0562C27.6474 14.0471 27.6625 14.0375 27.6774 14.0275C27.6923 14.0176 27.7069 14.0073 27.7212 13.9966C27.7356 13.986 27.7497 13.975 27.7635 13.9637C27.7774 13.9523 27.7909 13.9407 27.8041 13.9286C27.8174 13.9166 27.8303 13.9043 27.843 13.8916C27.8556 13.879 27.868 13.866 27.88 13.8528C27.892 13.8396 27.9037 13.826 27.915 13.8122C27.9263 13.7984 27.9373 13.7843 27.948 13.7699C27.9586 13.7555 27.9689 13.7409 27.9789 13.726C27.9888 13.7112 27.9984 13.6961 28.0076 13.6808C28.0168 13.6654 28.0255 13.6499 28.034 13.6341C28.0424 13.6183 28.0505 13.6023 28.0581 13.5862C28.0657 13.57 28.073 13.5537 28.0799 13.5371C28.0867 13.5206 28.0931 13.5039 28.0991 13.4871C28.1052 13.4703 28.1108 13.4533 28.116 13.4362C28.1212 13.4191 28.1259 13.4018 28.1303 13.3845C28.1346 13.3671 28.1385 13.3497 28.142 13.3322C28.1455 13.3146 28.1486 13.297 28.1512 13.2793C28.1538 13.2616 28.156 13.2439 28.1578 13.2261C28.1595 13.2083 28.1608 13.1904 28.1617 13.1726C28.1626 13.1547 28.163 13.1368 28.163 13.119C28.163 13.1011 28.1626 13.0832 28.1617 13.0654C28.1608 13.0475 28.1595 13.0297 28.1578 13.0119C28.156 12.9941 28.1538 12.9763 28.1512 12.9586C28.1486 12.9409 28.1455 12.9233 28.142 12.9058C28.1385 12.8883 28.1346 12.8708 28.1303 12.8535C28.1259 12.8361 28.1212 12.8189 28.116 12.8018C28.1108 12.7846 28.1052 12.7677 28.0991 12.7508C28.0931 12.734 28.0867 12.7173 28.0799 12.7008C28.073 12.6843 28.0657 12.6679 28.0581 12.6518C28.0505 12.6356 28.0424 12.6196 28.034 12.6039C28.0255 12.5881 28.0168 12.5725 28.0076 12.5572C27.9984 12.5419 27.9888 12.5268 27.9789 12.5119C27.9689 12.497 27.9586 12.4824 27.948 12.468C27.9373 12.4537 27.9263 12.4396 27.915 12.4258C27.9037 12.4119 27.892 12.3984 27.88 12.3851C27.868 12.3719 27.8556 12.3589 27.843 12.3463C27.8303 12.3336 27.8174 12.3213 27.8041 12.3093C27.7909 12.2973 27.7774 12.2856 27.7635 12.2743C27.7497 12.2629 27.7356 12.2519 27.7212 12.2413C27.7069 12.2306 27.6923 12.2204 27.6774 12.2104C27.6625 12.2005 27.6474 12.1909 27.6321 12.1817C27.6167 12.1725 27.6012 12.1637 27.5854 12.1553C27.5697 12.1469 27.5537 12.1388 27.5375 12.1312C27.5213 12.1235 27.505 12.1163 27.4885 12.1094C27.472 12.1026 27.4553 12.0961 27.4384 12.0901C27.4216 12.0841 27.4046 12.0785 27.3875 12.0733C27.3704 12.0681 27.3532 12.0633 27.3358 12.059C27.3185 12.0546 27.301 12.0507 27.2835 12.0472C27.2659 12.0438 27.2483 12.0407 27.2306 12.0381C27.213 12.0354 27.1952 12.0333 27.1774 12.0315C27.1596 12.0298 27.1418 12.0284 27.1239 12.0276C27.106 12.0267 27.0882 12.0263 27.0703 12.0263ZM27.0703 20.7804L18.3203 20.7804C18.3025 20.7804 18.2846 20.7809 18.2667 20.7817C18.2489 20.7826 18.231 20.7839 18.2132 20.7856C18.1954 20.7874 18.1777 20.7896 18.16 20.7922C18.1423 20.7949 18.1247 20.7979 18.1071 20.8014C18.0896 20.8049 18.0721 20.8088 18.0548 20.8132C18.0375 20.8175 18.0203 20.8223 18.0031 20.8274C17.986 20.8326 17.9691 20.8383 17.9522 20.8443C17.9354 20.8503 17.9187 20.8567 17.9022 20.8636C17.8857 20.8704 17.8693 20.8777 17.8531 20.8853C17.837 20.893 17.821 20.901 17.8052 20.9094C17.7895 20.9179 17.7739 20.9267 17.7585 20.9359C17.7432 20.9451 17.7281 20.9546 17.7133 20.9645C17.6984 20.9745 17.6838 20.9848 17.6694 20.9954C17.655 21.0061 17.6409 21.0171 17.6271 21.0284C17.6133 21.0398 17.5998 21.0515 17.5865 21.0635C17.5733 21.0755 17.5603 21.0878 17.5477 21.1004C17.535 21.1131 17.5227 21.126 17.5107 21.1393C17.4987 21.1526 17.487 21.1661 17.4756 21.1799C17.4643 21.1938 17.4533 21.2078 17.4427 21.2222C17.432 21.2365 17.4217 21.2512 17.4118 21.266C17.4018 21.2809 17.3923 21.296 17.3831 21.3114C17.3739 21.3267 17.3651 21.3423 17.3566 21.358C17.3482 21.3738 17.3402 21.3898 17.3325 21.4059C17.3249 21.4221 17.3176 21.4384 17.3108 21.455C17.3039 21.4715 17.2975 21.4882 17.2915 21.505C17.2855 21.5218 17.2799 21.5388 17.2747 21.5559C17.2695 21.573 17.2647 21.5903 17.2603 21.6076C17.256 21.625 17.2521 21.6424 17.2486 21.6599C17.2451 21.6775 17.2421 21.6951 17.2394 21.7128C17.2368 21.7305 17.2346 21.7483 17.2329 21.766C17.2311 21.7838 17.2298 21.8017 17.2289 21.8195C17.228 21.8374 17.2276 21.8553 17.2276 21.8731C17.2276 21.891 17.228 21.9089 17.2289 21.9267C17.2298 21.9446 17.2311 21.9625 17.2329 21.9802C17.2346 21.998 17.2368 22.0158 17.2394 22.0335C17.2421 22.0512 17.2451 22.0688 17.2486 22.0863C17.2521 22.1039 17.256 22.1213 17.2603 22.1387C17.2647 22.156 17.2695 22.1732 17.2747 22.1903C17.2799 22.2075 17.2855 22.2244 17.2915 22.2413C17.2975 22.2581 17.3039 22.2748 17.3108 22.2913C17.3176 22.3078 17.3249 22.3242 17.3325 22.3403C17.3402 22.3565 17.3482 22.3725 17.3566 22.3882C17.3651 22.404 17.3739 22.4196 17.3831 22.4349C17.3923 22.4503 17.4018 22.4654 17.4118 22.4802C17.4217 22.4951 17.432 22.5097 17.4427 22.5241C17.4533 22.5384 17.4643 22.5525 17.4756 22.5663C17.487 22.5802 17.4987 22.5937 17.5107 22.6069C17.5227 22.6202 17.535 22.6332 17.5477 22.6458C17.5603 22.6585 17.5733 22.6708 17.5865 22.6828C17.5998 22.6948 17.6133 22.7065 17.6271 22.7178C17.6409 22.7292 17.655 22.7402 17.6694 22.7508C17.6838 22.7615 17.6984 22.7718 17.7133 22.7817C17.7281 22.7917 17.7432 22.8012 17.7585 22.8104C17.7739 22.8196 17.7895 22.8284 17.8052 22.8368C17.821 22.8453 17.837 22.8533 17.8531 22.8609C17.8693 22.8686 17.8857 22.8758 17.9022 22.8827C17.9187 22.8895 17.9354 22.896 17.9522 22.902C17.9691 22.908 17.986 22.9136 18.0031 22.9188C18.0203 22.924 18.0375 22.9288 18.0548 22.9331C18.0721 22.9375 18.0896 22.9414 18.1071 22.9448C18.1247 22.9483 18.1423 22.9514 18.16 22.954C18.1777 22.9567 18.1954 22.9589 18.2132 22.9606C18.231 22.9624 18.2489 22.9637 18.2667 22.9645C18.2846 22.9654 18.3025 22.9659 18.3203 22.9659L27.0703 22.9659C27.0882 22.9659 27.106 22.9654 27.1239 22.9645C27.1418 22.9637 27.1596 22.9624 27.1774 22.9606C27.1952 22.9589 27.213 22.9567 27.2306 22.954C27.2483 22.9514 27.2659 22.9483 27.2835 22.9448C27.301 22.9414 27.3185 22.9375 27.3358 22.9331C27.3532 22.9288 27.3704 22.924 27.3875 22.9188C27.4046 22.9136 27.4216 22.908 27.4384 22.902C27.4553 22.896 27.472 22.8895 27.4885 22.8827C27.505 22.8758 27.5213 22.8686 27.5375 22.8609C27.5537 22.8533 27.5697 22.8453 27.5854 22.8368C27.6012 22.8284 27.6167 22.8196 27.6321 22.8104C27.6474 22.8012 27.6625 22.7917 27.6774 22.7817C27.6923 22.7718 27.7069 22.7615 27.7212 22.7508C27.7356 22.7402 27.7497 22.7292 27.7635 22.7178C27.7774 22.7065 27.7909 22.6948 27.8041 22.6828C27.8174 22.6708 27.8303 22.6585 27.843 22.6458C27.8556 22.6332 27.868 22.6202 27.88 22.6069C27.892 22.5937 27.9037 22.5802 27.915 22.5663C27.9263 22.5525 27.9373 22.5384 27.948 22.5241C27.9586 22.5097 27.9689 22.4951 27.9789 22.4802C27.9888 22.4654 27.9984 22.4503 28.0076 22.4349C28.0168 22.4196 28.0255 22.404 28.034 22.3882C28.0424 22.3725 28.0505 22.3565 28.0581 22.3403C28.0657 22.3242 28.073 22.3078 28.0799 22.2913C28.0867 22.2748 28.0931 22.2581 28.0991 22.2413C28.1052 22.2244 28.1108 22.2075 28.116 22.1903C28.1212 22.1732 28.1259 22.156 28.1303 22.1387C28.1346 22.1213 28.1385 22.1039 28.142 22.0863C28.1455 22.0688 28.1486 22.0512 28.1512 22.0334C28.1538 22.0158 28.156 21.998 28.1578 21.9802C28.1595 21.9625 28.1608 21.9446 28.1617 21.9267C28.1626 21.9089 28.163 21.891 28.163 21.8731C28.163 21.8553 28.1626 21.8374 28.1617 21.8195C28.1608 21.8017 28.1595 21.7838 28.1578 21.766C28.156 21.7483 28.1538 21.7305 28.1512 21.7128C28.1486 21.6951 28.1455 21.6775 28.142 21.6599C28.1385 21.6424 28.1346 21.625 28.1303 21.6076C28.1259 21.5903 28.1212 21.573 28.116 21.5559C28.1108 21.5388 28.1052 21.5218 28.0991 21.505C28.0931 21.4882 28.0867 21.4715 28.0799 21.455C28.073 21.4384 28.0657 21.4221 28.0581 21.4059C28.0505 21.3898 28.0424 21.3738 28.034 21.358C28.0255 21.3423 28.0168 21.3267 28.0076 21.3114C27.9984 21.296 27.9888 21.2809 27.9789 21.266C27.9689 21.2512 27.9586 21.2365 27.948 21.2222C27.9373 21.2078 27.9263 21.1938 27.915 21.1799C27.9037 21.1661 27.892 21.1526 27.88 21.1393C27.868 21.126 27.8556 21.1131 27.843 21.1004C27.8303 21.0878 27.8174 21.0755 27.8041 21.0635C27.7909 21.0515 27.7774 21.0398 27.7635 21.0284C27.7497 21.0171 27.7356 21.0061 27.7212 20.9954C27.7069 20.9848 27.6923 20.9745 27.6774 20.9645C27.6625 20.9546 27.6474 20.9451 27.6321 20.9359C27.6167 20.9267 27.6012 20.9179 27.5854 20.9094C27.5697 20.901 27.5537 20.893 27.5375 20.8853C27.5213 20.8777 27.505 20.8704 27.4885 20.8636C27.472 20.8567 27.4553 20.8503 27.4384 20.8443C27.4216 20.8383 27.4046 20.8326 27.3875 20.8274C27.3704 20.8223 27.3532 20.8175 27.3358 20.8132C27.3185 20.8088 27.301 20.8049 27.2835 20.8014C27.2659 20.7979 27.2483 20.7949 27.2306 20.7922C27.213 20.7896 27.1952 20.7874 27.1774 20.7856C27.1596 20.7839 27.1418 20.7826 27.1239 20.7817C27.106 20.7809 27.0882 20.7804 27.0703 20.7804ZM11.7579 18.0469C9.64371 18.0469 7.93028 19.7608 7.93028 21.8745C7.93028 23.9882 9.64419 25.7021 11.7579 25.7021C13.8716 25.7021 15.5855 23.9882 15.5855 21.8745C15.5855 19.7608 13.8721 18.0469 11.7579 18.0469ZM12.9194 23.0365C12.8972 23.0587 12.8744 23.0802 12.851 23.101C12.8276 23.1219 12.8036 23.142 12.779 23.1615C12.7545 23.181 12.7294 23.1998 12.7037 23.2178C12.6781 23.2359 12.6519 23.2531 12.6253 23.2697C12.5987 23.2862 12.5716 23.302 12.5441 23.317C12.5165 23.332 12.4886 23.3462 12.4602 23.3596C12.4319 23.3729 12.4032 23.3855 12.3741 23.3973C12.345 23.409 12.3156 23.4199 12.2859 23.43C12.2562 23.4401 12.2263 23.4493 12.196 23.4576C12.1658 23.466 12.1354 23.4735 12.1048 23.48C12.0741 23.4867 12.0433 23.4924 12.0123 23.4972C11.9813 23.5021 11.9502 23.506 11.919 23.5091C11.8878 23.5122 11.8566 23.5143 11.8252 23.5156C11.7939 23.5168 11.7625 23.5172 11.7312 23.5167C11.6999 23.5162 11.6686 23.5147 11.6373 23.5124C11.606 23.5101 11.5748 23.5069 11.5438 23.5028C11.5127 23.4987 11.4817 23.4937 11.4509 23.4878C11.4201 23.4819 11.3895 23.4752 11.3591 23.4675C11.3287 23.4599 11.2985 23.4514 11.2686 23.442C11.2387 23.4327 11.209 23.4225 11.1797 23.4114C11.1504 23.4004 11.1214 23.3885 11.0927 23.3758C11.064 23.363 11.0357 23.3495 11.0079 23.3352C10.98 23.3208 10.9526 23.3057 10.9255 23.2898C10.8985 23.2739 10.872 23.2572 10.8459 23.2398C10.8198 23.2224 10.7943 23.2042 10.7692 23.1853C10.7442 23.1664 10.7198 23.1468 10.6959 23.1265C10.672 23.1062 10.6487 23.0853 10.626 23.0636C10.6033 23.042 10.5812 23.0197 10.5598 22.9968C10.5384 22.974 10.5176 22.9505 10.4975 22.9264C10.4774 22.9023 10.4581 22.8777 10.4394 22.8525C10.4207 22.8273 10.4028 22.8016 10.3856 22.7754C10.3684 22.7492 10.352 22.7225 10.3363 22.6953C10.3207 22.6682 10.3058 22.6405 10.2917 22.6125C10.2776 22.5845 10.2643 22.5561 10.2519 22.5273C10.2394 22.4986 10.2278 22.4695 10.217 22.44C10.2062 22.4106 10.1962 22.3809 10.1871 22.3509C10.178 22.3209 10.1698 22.2906 10.1625 22.2601C10.1551 22.2297 10.1486 22.199 10.143 22.1681C10.1374 22.1373 10.1327 22.1063 10.1289 22.0752C10.1251 22.0441 10.1221 22.0129 10.1201 21.9816C10.118 21.9503 10.1169 21.919 10.1167 21.8876C10.1164 21.8563 10.1171 21.8249 10.1186 21.7936C10.1202 21.7623 10.1226 21.731 10.126 21.6999C10.1293 21.6687 10.1335 21.6376 10.1386 21.6067C10.1437 21.5758 10.1497 21.545 10.1566 21.5144C10.1635 21.4838 10.1713 21.4535 10.1799 21.4233C10.1885 21.3932 10.198 21.3633 10.2083 21.3337C10.2186 21.3041 10.2298 21.2748 10.2418 21.2458C10.2538 21.2169 10.2666 21.1883 10.2803 21.16C10.2939 21.1318 10.3084 21.104 10.3236 21.0766C10.3389 21.0492 10.3549 21.0222 10.3717 20.9958C10.3884 20.9693 10.406 20.9433 10.4242 20.9178C10.4425 20.8923 10.4615 20.8674 10.4812 20.843C10.5009 20.8186 10.5213 20.7948 10.5423 20.7715C10.5634 20.7483 10.5851 20.7257 10.6075 20.7037C10.6298 20.6818 10.6528 20.6604 10.6764 20.6398C10.7 20.6191 10.7241 20.5991 10.7488 20.5798C10.7736 20.5605 10.7988 20.542 10.8246 20.5241C10.8504 20.5063 10.8767 20.4892 10.9034 20.4729C10.9302 20.4566 10.9574 20.441 10.9851 20.4262C11.0127 20.4115 11.0408 20.3975 11.0692 20.3843C11.0977 20.3712 11.1265 20.3588 11.1557 20.3473C11.1848 20.3358 11.2143 20.3251 11.2441 20.3153C11.2738 20.3055 11.3039 20.2965 11.3342 20.2884C11.3645 20.2803 11.3949 20.2731 11.4257 20.2667C11.4564 20.2603 11.4872 20.2549 11.5182 20.2503C11.5493 20.2457 11.5804 20.242 11.6116 20.2391C11.6428 20.2363 11.6741 20.2344 11.7055 20.2334C11.7368 20.2324 11.7681 20.2323 11.7995 20.2331C11.8308 20.2339 11.8621 20.2355 11.8934 20.2381C11.9246 20.2407 11.9558 20.2441 11.9868 20.2485C12.0179 20.2529 12.0488 20.2581 12.0795 20.2642C12.1103 20.2703 12.1408 20.2773 12.1712 20.2852C12.2015 20.2931 12.2317 20.3018 12.2615 20.3114C12.2913 20.321 12.3209 20.3314 12.3501 20.3427C12.3794 20.354 12.4083 20.3662 12.4368 20.3791C12.4654 20.392 12.4936 20.4058 12.5213 20.4203C12.5491 20.4349 12.5764 20.4502 12.6033 20.4664C12.6302 20.4825 12.6566 20.4994 12.6826 20.517C12.7085 20.5347 12.7339 20.553 12.7587 20.5721C12.7836 20.5912 12.8079 20.611 12.8316 20.6315C12.8554 20.652 12.8785 20.6731 12.9011 20.6949C12.9236 20.7167 12.9455 20.7392 12.9667 20.7622C12.988 20.7853 13.0085 20.809 13.0284 20.8332C13.0483 20.8575 13.0675 20.8822 13.0859 20.9076C13.1044 20.9329 13.1221 20.9588 13.1391 20.9851C13.1561 21.0115 13.1723 21.0383 13.1878 21.0656C13.2032 21.0929 13.2179 21.1206 13.2317 21.1487C13.2456 21.1768 13.2587 21.2053 13.2709 21.2342C13.2831 21.2631 13.2945 21.2923 13.3051 21.3218C13.3156 21.3513 13.3253 21.3811 13.3342 21.4112C13.343 21.4412 13.351 21.4716 13.3581 21.5021C13.3652 21.5326 13.3715 21.5633 13.3768 21.5942C13.3822 21.6251 13.3867 21.6562 13.3902 21.6873C13.3938 21.7185 13.3965 21.7497 13.3983 21.781C13.4001 21.8123 13.401 21.8436 13.4009 21.875C13.401 21.9019 13.4004 21.9288 13.3992 21.9556C13.3979 21.9825 13.396 22.0093 13.3934 22.0361C13.3908 22.0629 13.3876 22.0896 13.3837 22.1162C13.3798 22.1428 13.3752 22.1693 13.37 22.1957C13.3648 22.222 13.3589 22.2483 13.3524 22.2744C13.3458 22.3005 13.3387 22.3264 13.3309 22.3522C13.3231 22.3779 13.3147 22.4035 13.3056 22.4288C13.2966 22.4541 13.2869 22.4792 13.2766 22.504C13.2663 22.5289 13.2554 22.5535 13.2439 22.5778C13.2323 22.6021 13.2202 22.6261 13.2075 22.6498C13.1948 22.6735 13.1815 22.6969 13.1677 22.7199C13.1538 22.743 13.1394 22.7657 13.1244 22.788C13.1094 22.8104 13.0939 22.8324 13.0778 22.8539C13.0618 22.8755 13.0452 22.8967 13.0281 22.9174C13.011 22.9381 12.9933 22.9585 12.9752 22.9783C12.9571 22.9982 12.9385 23.0177 12.9194 23.0366L12.9194 23.0365ZM14.2665 10.1649L10.6641 13.7672L9.24935 12.3523C9.2367 12.3397 9.22375 12.3273 9.21048 12.3153C9.19725 12.3033 9.18371 12.2916 9.16988 12.2802C9.15607 12.2689 9.14198 12.2579 9.1276 12.2472C9.11324 12.2366 9.09863 12.2263 9.08375 12.2163C9.06889 12.2064 9.05379 12.1968 9.03846 12.1876C9.0231 12.1784 9.00754 12.1696 8.99177 12.1611C8.976 12.1527 8.96003 12.1447 8.94385 12.137C8.92769 12.1293 8.91136 12.1221 8.89483 12.1152C8.87829 12.1084 8.8616 12.1019 8.84476 12.0959C8.82792 12.0899 8.81095 12.0843 8.79383 12.0791C8.77672 12.0739 8.75948 12.0691 8.74212 12.0647C8.72478 12.0604 8.70734 12.0565 8.68979 12.053C8.67225 12.0495 8.65462 12.0464 8.63691 12.0438C8.61923 12.0411 8.60149 12.039 8.5837 12.0372C8.56588 12.0354 8.54804 12.0341 8.53017 12.0332C8.51231 12.0323 8.49443 12.0319 8.47654 12.0319C8.45866 12.0319 8.44078 12.0323 8.42292 12.0332C8.40505 12.0341 8.38721 12.0354 8.36939 12.0371C8.3516 12.0389 8.33384 12.0411 8.31614 12.0437C8.29846 12.0463 8.28084 12.0494 8.2633 12.0529C8.24575 12.0563 8.2283 12.0603 8.21093 12.0646C8.19357 12.0689 8.17633 12.0737 8.15922 12.0789C8.14211 12.0841 8.12513 12.0897 8.10829 12.0957C8.09143 12.1017 8.07474 12.1082 8.05822 12.115C8.0417 12.1219 8.02535 12.1291 8.00917 12.1368C7.99299 12.1444 7.97702 12.1525 7.96125 12.1609C7.94546 12.1693 7.9299 12.1781 7.91456 12.1873C7.89923 12.1965 7.88412 12.2061 7.86924 12.216C7.85436 12.226 7.83973 12.2363 7.82535 12.2469C7.811 12.2576 7.7969 12.2686 7.78307 12.2799C7.76924 12.2913 7.75569 12.3029 7.74243 12.315C7.72919 12.327 7.71624 12.3393 7.70357 12.352C7.69092 12.3646 7.6786 12.3776 7.66659 12.3908C7.65458 12.4041 7.6429 12.4176 7.63155 12.4314C7.62021 12.4453 7.6092 12.4594 7.59854 12.4737C7.58789 12.4881 7.57759 12.5027 7.56764 12.5176C7.5577 12.5325 7.54814 12.5476 7.53896 12.5629C7.52976 12.5783 7.52094 12.5938 7.51251 12.6096C7.50408 12.6254 7.49604 12.6414 7.48841 12.6575C7.48075 12.6737 7.47351 12.6901 7.46667 12.7066C7.45981 12.7231 7.45337 12.7398 7.44736 12.7566C7.44132 12.7735 7.43572 12.7905 7.43054 12.8076C7.42535 12.8247 7.42057 12.842 7.41622 12.8593C7.41189 12.8767 7.40798 12.8941 7.4045 12.9117C7.40101 12.9292 7.39796 12.9468 7.39534 12.9645C7.39272 12.9822 7.39053 13 7.38878 13.0178C7.38702 13.0356 7.38571 13.0534 7.38484 13.0713C7.38396 13.0891 7.38352 13.107 7.38355 13.1249C7.38355 13.1428 7.38398 13.1607 7.38484 13.1786C7.38573 13.1964 7.38705 13.2143 7.38881 13.2321C7.39056 13.2498 7.39276 13.2676 7.39541 13.2853C7.39803 13.303 7.40109 13.3206 7.4046 13.3381C7.40809 13.3557 7.41201 13.3731 7.41636 13.3905C7.42071 13.4079 7.42548 13.4251 7.43068 13.4422C7.43587 13.4593 7.44149 13.4763 7.44753 13.4931C7.45357 13.51 7.46002 13.5267 7.46688 13.5432C7.47371 13.5597 7.48096 13.5761 7.48861 13.5922C7.49627 13.6084 7.50433 13.6244 7.51278 13.6401C7.52121 13.6559 7.53003 13.6715 7.53923 13.6868C7.54844 13.7021 7.55801 13.7173 7.56795 13.7321C7.5779 13.747 7.5882 13.7616 7.59884 13.776C7.60951 13.7903 7.62052 13.8044 7.6319 13.8183C7.64324 13.8321 7.65493 13.8456 7.66696 13.8589C7.67897 13.8721 7.69131 13.885 7.70398 13.8977L9.89138 16.0853C9.90402 16.0979 9.91698 16.1102 9.93024 16.1222C9.94348 16.1343 9.95702 16.1459 9.97084 16.1573C9.98468 16.1686 9.99877 16.1796 10.0131 16.1903C10.0275 16.2009 10.0421 16.2112 10.057 16.2212C10.0719 16.2311 10.087 16.2407 10.1023 16.2499C10.1176 16.2591 10.1332 16.2679 10.149 16.2763C10.1647 16.2847 10.1807 16.2928 10.1969 16.3004C10.213 16.3081 10.2294 16.3153 10.2459 16.3221C10.2624 16.329 10.2791 16.3354 10.296 16.3414C10.3128 16.3475 10.3298 16.3531 10.3469 16.3583C10.364 16.3634 10.3812 16.3682 10.3986 16.3726C10.4159 16.3769 10.4334 16.3808 10.4509 16.3843C10.4684 16.3878 10.4861 16.3909 10.5037 16.3935C10.5214 16.3961 10.5392 16.3983 10.557 16.4001C10.5748 16.4018 10.5926 16.4031 10.6104 16.404C10.6283 16.4049 10.6462 16.4053 10.6641 16.4053C10.682 16.4053 10.6998 16.4049 10.7177 16.404C10.7356 16.4031 10.7534 16.4018 10.7712 16.4001C10.789 16.3983 10.8067 16.3961 10.8244 16.3935C10.8421 16.3909 10.8597 16.3878 10.8773 16.3843C10.8948 16.3808 10.9123 16.3769 10.9296 16.3726C10.9469 16.3682 10.9642 16.3634 10.9813 16.3583C10.9984 16.3531 11.0154 16.3475 11.0322 16.3414C11.0491 16.3354 11.0658 16.329 11.0823 16.3221C11.0988 16.3153 11.1151 16.3081 11.1313 16.3004C11.1474 16.2928 11.1634 16.2847 11.1792 16.2763C11.195 16.2679 11.2105 16.2591 11.2259 16.2499C11.2412 16.2407 11.2563 16.2311 11.2712 16.2212C11.286 16.2112 11.3007 16.2009 11.315 16.1903C11.3294 16.1796 11.3435 16.1686 11.3573 16.1573C11.3712 16.1459 11.3847 16.1343 11.3979 16.1222C11.4112 16.1102 11.4241 16.0979 11.4368 16.0853L15.8117 11.7103C15.8243 11.6976 15.8365 11.6846 15.8483 11.6714C15.8602 11.6581 15.8717 11.6445 15.8829 11.6307C15.8942 11.6169 15.905 11.6028 15.9155 11.5884C15.926 11.574 15.9362 11.5594 15.946 11.5446C15.9558 11.5297 15.9653 11.5146 15.9743 11.4993C15.9834 11.4839 15.9921 11.4684 16.0004 11.4527C16.0087 11.4369 16.0166 11.421 16.0242 11.4048C16.0317 11.3887 16.0388 11.3724 16.0455 11.3559C16.0523 11.3394 16.0586 11.3228 16.0645 11.306C16.0704 11.2892 16.076 11.2723 16.081 11.2552C16.0861 11.2381 16.0908 11.2209 16.0951 11.2037C16.0993 11.1864 16.1031 11.169 16.1065 11.1515C16.1099 11.134 16.1129 11.1165 16.1154 11.0989C16.118 11.0812 16.1201 11.0635 16.1218 11.0458C16.1234 11.0281 16.1247 11.0103 16.1255 10.9926C16.1263 10.9748 16.1267 10.957 16.1266 10.9392C16.1266 10.9214 16.1261 10.9036 16.1251 10.8858C16.1242 10.868 16.1228 10.8502 16.1211 10.8325C16.1193 10.8148 16.117 10.7972 16.1144 10.7796C16.1117 10.7619 16.1086 10.7444 16.1051 10.727C16.1016 10.7095 16.0976 10.6921 16.0933 10.6749C16.0889 10.6576 16.0841 10.6405 16.0789 10.6235C16.0737 10.6064 16.0681 10.5895 16.0621 10.5728C16.056 10.556 16.0496 10.5394 16.0428 10.523C16.0359 10.5065 16.0287 10.4903 16.0211 10.4742C16.0134 10.4581 16.0054 10.4422 15.997 10.4265C15.9886 10.4108 15.9798 10.3954 15.9706 10.3801C15.9614 10.3648 15.9519 10.3498 15.942 10.335C15.9321 10.3202 15.9218 10.3057 15.9112 10.2914C15.9006 10.2771 15.8896 10.263 15.8783 10.2493C15.867 10.2355 15.8554 10.2221 15.8434 10.2089C15.8315 10.1957 15.8192 10.1828 15.8066 10.1702C15.794 10.1576 15.7811 10.1453 15.7679 10.1334C15.7548 10.1214 15.7413 10.1098 15.7275 10.0985C15.7137 10.0872 15.6997 10.0762 15.6854 10.0656C15.6711 10.055 15.6566 10.0447 15.6418 10.0348C15.627 10.0249 15.612 10.0153 15.5967 10.0062C15.5814 9.99699 15.566 9.98819 15.5503 9.97978C15.5346 9.97138 15.5187 9.96336 15.5026 9.95572C15.4865 9.94806 15.4703 9.94082 15.4538 9.93398C15.4374 9.92715 15.4208 9.92071 15.404 9.91467C15.3873 9.90863 15.3704 9.90302 15.3534 9.89782C15.3363 9.89263 15.3192 9.88784 15.3019 9.88347C15.2847 9.87909 15.2673 9.87515 15.2498 9.87164C15.2324 9.86811 15.2149 9.86502 15.1973 9.86238C15.1797 9.85971 15.162 9.85748 15.1443 9.85568C15.1265 9.85388 15.1088 9.85251 15.091 9.85158C15.0732 9.85064 15.0554 9.85015 15.0376 9.85011C15.0198 9.85004 15.0021 9.8504 14.9843 9.8512C14.9664 9.85202 14.9487 9.85327 14.931 9.85496C14.9132 9.85662 14.8956 9.85873 14.878 9.86128C14.8603 9.86381 14.8427 9.86677 14.8253 9.87017C14.8078 9.87359 14.7904 9.87742 14.7731 9.88165C14.7559 9.88589 14.7387 9.89056 14.7216 9.89567C14.7046 9.90075 14.6876 9.90625 14.6708 9.91218C14.654 9.91808 14.6374 9.9244 14.6209 9.93115C14.6044 9.93787 14.5881 9.945 14.572 9.95254C14.5558 9.96006 14.5399 9.96797 14.5241 9.97626C14.5084 9.98458 14.4929 9.99327 14.4775 10.0023C14.4622 10.0114 14.4471 10.0208 14.4323 10.0306C14.4174 10.0404 14.4028 10.0506 14.3884 10.0611C14.374 10.0717 14.3599 10.0825 14.3461 10.0937C14.3322 10.1049 14.3187 10.1165 14.3054 10.1283C14.2921 10.1402 14.2792 10.1524 14.2665 10.1649Z"   fill="#FFFFFF" >
</path>
</svg>
