<svg xmlns="http://www.w3.org/2000/svg" xmlns:xlink="http://www.w3.org/1999/xlink" width="48.118896484375" height="48.118896484375" viewBox="0 0 48.118896484375 48.118896484375" fill="none">
<path d="M31.2682 29.3742C31.089 29.4838 30.8675 29.5577 30.6394 29.5536L27.297 29.6897L25.5142 32.544C25.2448 32.9754 24.7844 33.1954 24.2858 33.1516C23.7872 33.1078 23.3823 32.781 23.2162 32.3082L22.0374 29.1727L18.786 28.3507C18.3048 28.2347 17.9505 27.8565 17.8384 27.3712C17.7412 26.8768 17.9111 26.3832 18.3017 26.0828L20.9135 24.0139L20.6811 20.6483C20.647 20.1564 20.8833 19.7042 21.3013 19.4486L21.3162 19.4395C21.7343 19.1838 22.2536 19.1945 22.6759 19.449L22.7 19.4548L25.4771 21.3463L28.6059 20.0895C29.0455 19.9027 29.5715 19.9913 29.9375 20.3214C30.3034 20.6515 30.4487 21.1575 30.3327 21.6387L29.4144 24.8668L31.5762 27.4628C31.8916 27.8443 31.9589 28.357 31.7558 28.8299C31.6497 29.0589 31.4772 29.2464 31.2682 29.3742ZM30.2409 28.5665C30.2409 28.5665 30.25 28.5814 30.2409 28.5665ZM26.3567 28.152C26.5359 28.0424 26.7573 27.9685 26.9855 27.9726L29.6467 27.8632L27.9306 25.7947C27.6576 25.4488 27.5728 25.0083 27.6897 24.6292L28.4065 22.078L25.9388 23.0742C25.5291 23.2427 25.0786 23.2105 24.7193 22.9584L22.4948 21.4675L22.6822 24.1221C22.7337 24.5418 22.5514 24.9815 22.2055 25.2546L20.1063 26.8869L22.6989 27.5374C23.0747 27.6153 23.3892 27.8948 23.5635 28.2805L23.576 28.3344L24.5125 30.8387L25.9221 28.5818C26.0407 28.4067 26.1775 28.2615 26.3567 28.152ZM19.3938 27.4662C19.3789 27.4753 19.3938 27.4662 19.3938 27.4662ZM19.192 26.6665C19.207 26.6574 19.192 26.6665 19.192 26.6665ZM43.7902 27.6452L18.4094 43.1654C17.3046 43.841 15.837 43.4872 15.1614 42.3824L12.3677 37.8138L12.9549 37.3317C14.6062 35.9732 15.0063 33.5748 13.8833 31.7384C12.7695 29.917 10.4432 29.1652 8.47232 30.0011L7.77556 30.3041L5.38361 26.3925C4.70803 25.2877 5.06185 23.8201 6.16666 23.1445L31.5474 7.62423C32.6522 6.94864 34.1199 7.30246 34.7955 8.40727L37.1874 12.3189L36.6002 12.801C34.958 14.1745 34.558 16.5729 35.6809 18.4093C36.7947 20.2307 39.1211 20.9825 41.0919 20.1465L41.7887 19.8436L44.5732 24.3972C45.2488 25.502 44.895 26.9696 43.7902 27.6452ZM14.6367 38.1699L16.6544 41.4694C16.8278 41.7531 17.2128 41.8459 17.4964 41.6724L42.8772 26.1522C43.1609 25.9787 43.2537 25.5938 43.0802 25.3101L41.0535 21.9957C38.4695 22.7347 35.6122 21.6513 34.1879 19.3222C32.7546 16.9782 33.1013 13.956 34.9367 11.9927L33.3025 9.32023C33.129 9.03656 32.7441 8.94375 32.4604 9.11722L7.07961 24.6375C6.79594 24.8109 6.70314 25.1959 6.8766 25.4795L8.51079 28.152C11.0947 27.4129 13.9521 28.4964 15.3763 30.8255C16.8188 33.1844 16.472 36.2066 14.6367 38.1699Z" stroke="rgba(70, 77, 87, 1)" stroke-width="1"      fill="#464D57" >
</path>
</svg>
