<svg xmlns="http://www.w3.org/2000/svg" xmlns:xlink="http://www.w3.org/1999/xlink" width="35" height="35" viewBox="0 0 35 35" fill="none">
<path d="M20.7791 14.2822C20.5679 14.071 20.3428 13.8807 20.1107 13.7042L20.1103 13.7046C19.8715 13.4749 19.5473 13.3335 19.1898 13.3335C18.4562 13.3335 17.8615 13.9282 17.8615 14.6619C17.8615 14.9865 17.9781 15.2838 18.1716 15.5145C18.1716 15.5146 18.1716 15.5146 18.1717 15.5147C18.2646 15.6255 18.3752 15.7211 18.4993 15.7967C18.6246 15.9 18.7475 16.0017 18.8625 16.1167L18.972 16.2262C20.3487 17.6013 19.9377 19.9703 18.561 21.347L12.6862 27.2201C11.3094 28.5951 9.07125 28.5951 7.69449 27.2201L7.58409 27.1097C6.20728 25.733 6.20728 23.4931 7.58409 22.1197L10.1796 19.5252C10.5125 19.2608 10.7263 18.8529 10.7263 18.3948C10.7263 17.5979 10.0804 16.952 9.28354 16.952C8.98286 16.952 8.70374 17.044 8.47262 17.2014C8.4719 17.1999 8.47112 17.1984 8.47037 17.1968L8.44268 17.2227C8.34052 17.2962 8.24816 17.3823 8.16835 17.4794L5.47112 20.0033C2.93573 22.5404 2.93573 26.69 5.47112 29.2236L5.58063 29.333C8.11606 31.8667 12.2638 31.8667 14.7992 29.333L20.6722 23.4582C23.2041 20.923 23.4188 16.9236 20.887 14.39L20.7791 14.2822Z"   fill="#FFFFFF" >
</path>
<path d="M29.2447 5.66706L29.1352 5.55755C26.5998 3.02216 22.4521 3.02216 19.9167 5.55755L14.0436 11.4324C11.5082 13.9677 11.3686 17.629 13.904 20.1661L14.0117 20.2722C14.1269 20.3873 14.2464 20.4958 14.3684 20.5999C14.4567 20.6985 14.5605 20.783 14.6758 20.8497C14.6766 20.8504 14.6776 20.8512 14.6784 20.8519L14.6788 20.8515C14.8626 20.9572 15.0756 21.018 15.3029 21.018C15.9954 21.018 16.5569 20.4565 16.5569 19.764C16.5569 19.5685 16.5121 19.3834 16.4323 19.2185C16.2665 18.8462 15.9562 18.6196 15.7415 18.405L15.6337 18.2989C14.257 16.9222 14.7798 14.9221 16.1565 13.5454L22.0331 7.67226C23.4064 6.29548 25.6453 6.29548 27.0221 7.67226L27.1317 7.78002C28.5084 9.15685 28.5084 11.3976 27.1317 12.7726L24.5447 15.3613C24.1928 15.622 23.9646 16.0403 23.9646 16.5119C23.9646 17.3022 24.6053 17.943 25.3957 17.943C25.6708 17.943 25.9277 17.8652 26.1458 17.7307C26.1474 17.7335 26.149 17.7361 26.1506 17.7389L26.1907 17.7019C26.3143 17.6191 26.4241 17.5175 26.5164 17.4013L29.2428 14.8856C31.7801 12.3503 31.7801 8.20245 29.2447 5.66706Z"   fill="#FFFFFF" >
</path>
</svg>
