<svg xmlns="http://www.w3.org/2000/svg" xmlns:xlink="http://www.w3.org/1999/xlink" width="252.60009765625" height="100" viewBox="0 0 252.60009765625 100" fill="none">
<path d="M196 73.5L204 60L212.5 73.5L228.5 73.5L237 60L244 73.5L244 100L196 100L0 100L7.5 88.5L41.5 88.5L56 73.5L196 73.5Z"   fill="#FFFFFF" >
</path>
<rect x="212" y="80" width="3" height="10"   fill="#00ADB5" >
</rect>
<rect x="228" y="80" width="3" height="10"   fill="#00ADB5" >
</rect>
<path d="M86 100L72.5 89L77.5 89L91 100L86 100Z"   fill="#00ADB5" >
</path>
<path d="M243 85L252.5 82L252.5 85L243 88L243 85Z"   fill="#FFFFFF" >
</path>
<path d="M243 94L252.6 97L252.6 94L243 91L243 94Z"   fill="#FFFFFF" >
</path>
<rect x="196" y="35" width="16" height="13"   fill="#00ADB5" >
</rect>
<rect x="154" y="0" width="33" height="22"   fill="#00ADB5" >
</rect>
</svg>
