<svg xmlns="http://www.w3.org/2000/svg" xmlns:xlink="http://www.w3.org/1999/xlink" width="13.0919189453125" height="13.851318359375" viewBox="0 0 13.0919189453125 13.851318359375" fill="none">
<path d="M10.6225 4.98827L8.1975 2.29527L1.012 8.90227L0.4125 11.8388L3.39 11.6383L10.6225 4.98827ZM13.0305 2.44427L10.9805 0.0857648L10.976 0.0807648C10.9732 0.0777555 10.9704 0.0748164 10.9675 0.0719477C10.9646 0.0690778 10.9616 0.0662809 10.9585 0.063557C10.9555 0.0608341 10.9524 0.0581872 10.9492 0.0556164C10.946 0.0530455 10.9428 0.0505544 10.9395 0.048143C10.9362 0.0457305 10.9328 0.0434008 10.9294 0.0411539C10.926 0.038907 10.9225 0.036745 10.919 0.034668C10.9155 0.0325909 10.9119 0.0306019 10.9083 0.0287008C10.9047 0.0267987 10.901 0.0249867 10.8973 0.0232648C10.8936 0.021543 10.8899 0.0199127 10.8861 0.0183742C10.8823 0.0168356 10.8785 0.0153909 10.8746 0.0140399C10.8707 0.0126898 10.8668 0.0114347 10.8629 0.0102742C10.859 0.00911486 10.8551 0.00805188 10.8511 0.0070852C10.8471 0.00611853 10.8431 0.00525022 10.8391 0.00448048C10.8351 0.00370967 10.8311 0.00303781 10.827 0.00246489C10.823 0.00189197 10.8189 0.00141895 10.8148 0.00104606C10.8108 0.000672102 10.8067 0.000398159 10.8026 0.000224233C10.7985 5.126e-05 10.7944 -2.15769e-05 10.7903 5.48363e-06C10.7863 3.14712e-05 10.7822 0.000158548 10.7781 0.000386716C10.774 0.000613809 10.7699 0.000940919 10.7659 0.00136793C10.7618 0.00179505 10.7577 0.00232159 10.7537 0.00294769C10.7497 0.00357366 10.7457 0.0042982 10.7416 0.00512111C10.7376 0.00594402 10.7337 0.00686478 10.7297 0.00788355C10.7257 0.00890231 10.7218 0.0100174 10.7179 0.0112289C10.714 0.0124403 10.7101 0.0137466 10.7063 0.0151477C10.7025 0.0165486 10.6986 0.0180436 10.6949 0.019632C10.6911 0.0212195 10.6874 0.0228988 10.6837 0.0246695C10.68 0.0264403 10.6764 0.0283003 10.6728 0.0302492C10.6692 0.0321992 10.6656 0.0342358 10.6622 0.0363586C10.6587 0.0384814 10.6552 0.0406887 10.6518 0.0429805C10.6485 0.0452722 10.6451 0.0476456 10.6419 0.0501008C10.6386 0.0525561 10.6354 0.0550894 10.6322 0.0577008C10.6291 0.0603133 10.626 0.0630013 10.623 0.0657648L8.5735 1.94977L10.998 4.64277L13.011 2.79177C13.014 2.78906 13.0169 2.78628 13.0197 2.78342C13.0225 2.78058 13.0253 2.77766 13.028 2.77467C13.0306 2.77169 13.0332 2.76864 13.0358 2.76553C13.0383 2.76242 13.0408 2.75927 13.0432 2.75603C13.0456 2.7528 13.0479 2.74952 13.0501 2.74617C13.0523 2.74283 13.0545 2.73944 13.0565 2.736C13.0586 2.73255 13.0606 2.72906 13.0625 2.72552C13.0644 2.72197 13.0662 2.71839 13.0679 2.71477C13.0696 2.71114 13.0712 2.70747 13.0728 2.70377C13.0743 2.70006 13.0758 2.69631 13.0772 2.69255C13.0785 2.68877 13.0798 2.68495 13.081 2.68112C13.0821 2.67728 13.0832 2.67342 13.0842 2.66953C13.0852 2.66564 13.0861 2.66172 13.0869 2.65778C13.0877 2.65386 13.0884 2.64991 13.089 2.64594C13.0896 2.64197 13.0902 2.63798 13.0906 2.63398C13.091 2.63 13.0913 2.626 13.0915 2.62198C13.0918 2.61797 13.0919 2.61397 13.0919 2.60995C13.092 2.60594 13.0919 2.60192 13.0917 2.59791C13.0916 2.59389 13.0913 2.58989 13.091 2.58589C13.0906 2.58189 13.0901 2.57791 13.0896 2.57394C13.089 2.56995 13.0884 2.566 13.0877 2.56205C13.0869 2.55809 13.0861 2.55417 13.0851 2.55027C13.0842 2.54636 13.0832 2.54248 13.0821 2.53863C13.081 2.53477 13.0797 2.53094 13.0784 2.52714C13.0771 2.52334 13.0757 2.51959 13.0743 2.51586C13.0728 2.51213 13.0712 2.50844 13.0695 2.50478C13.0678 2.50113 13.0661 2.49752 13.0643 2.49395C13.0624 2.49038 13.0605 2.48686 13.0585 2.48338C13.0565 2.47991 13.0544 2.47648 13.0522 2.47311C13.05 2.46973 13.0478 2.46641 13.0454 2.46314C13.0431 2.45988 13.0407 2.45667 13.0382 2.45353C13.0357 2.45038 13.0331 2.44728 13.0305 2.44427ZM0 12.8513L13 12.8513L13 13.8513L0 13.8513L0 12.8513Z"   fill="#00ADB5" >
</path>
</svg>
