<svg xmlns="http://www.w3.org/2000/svg" xmlns:xlink="http://www.w3.org/1999/xlink" width="30.9300537109375" height="30.92999267578125" viewBox="0 0 30.9300537109375 30.92999267578125" fill="none">
<path d="M15.47 0.5C7.20445 0.5 0.5 7.20547 0.5 15.47C0.5 23.737 7.20445 30.43 15.47 30.43C23.7371 30.43 30.43 23.737 30.43 15.47C30.43 7.20547 23.7371 0.5 15.47 0.5ZM15.39 7.6C17.9193 7.6 19.97 9.65066 19.97 12.18C19.97 14.7102 17.9193 16.76 15.39 16.76C12.8606 16.76 10.81 14.7102 10.81 12.18C10.81 9.6507 12.8606 7.6 15.39 7.6ZM23.84 27.22C21.4843 28.9033 18.6057 29.91 15.49 29.91C12.4104 29.91 9.56016 28.9354 7.22 27.29C7.12199 26.7732 7.07 26.2442 7.07 25.7C7.07 21.0291 10.8582 17.24 15.53 17.24C20.2 17.24 23.98 21.0291 23.98 25.7C23.98 26.2228 23.9294 26.7248 23.84 27.22Z" stroke="rgba(0, 173, 181, 1)" stroke-width="1"      fill="#00ADB5" >
</path>
</svg>
