<svg xmlns="http://www.w3.org/2000/svg" xmlns:xlink="http://www.w3.org/1999/xlink" width="47" height="36.1834716796875" viewBox="0 0 47 36.1834716796875" fill="none">
<path d="M42.43 11.4335L35.5 2.68347L30.53 8.68347L14.76 8.68347L11.5 2.68347L3.57 12.4335C2.19761 14.1455 1.5 16.3186 1.5 18.6835L1.5 24.6835C1.5 30.2063 5.97715 34.6835 11.5 34.6835L35.5 34.6835C41.0228 34.6835 45.5 30.2063 45.5 24.6835L45.5 18.6835C45.5 15.8299 44.3472 13.2554 42.43 11.4335Z" stroke="rgba(255, 255, 255, 1)" stroke-width="3"    fill-rule="evenodd"  fill="#B49F7A" fill-opacity="0">
</path>
<circle cx="14" cy="17.1834716796875" r="2.5"   fill="#FFFFFF" >
</circle>
<path d="M34.5 17.1835C34.5 18.5642 33.3807 19.6835 32 19.6835C30.6193 19.6835 29.5 18.5642 29.5 17.1835C29.5 15.8028 30.6193 14.6835 32 14.6835C33.3807 14.6835 34.5 15.8028 34.5 17.1835Z"   fill="#FFFFFF" >
</path>
<path    stroke="rgba(255, 255, 255, 1)" stroke-width="1.5"    d="M17.5 21.6835L20 23.1835L23 21.6835L25.5 23.1835L28.5 21.6835">
</path>
</svg>