<svg xmlns="http://www.w3.org/2000/svg" xmlns:xlink="http://www.w3.org/1999/xlink" width="41" height="41" viewBox="0 0 41 41" fill="none">
<g style="mix-blend-mode:lighten">
<path d="M36.9695 21.1587C38.3164 17.1929 37.4167 14.5961 36.3872 13.0926C34.9298 10.9665 32.5877 10.0094 31.1903 9.74453C30.4525 8.42707 29.1549 7.44797 27.4723 6.95308C25.1537 6.27156 22.3891 6.61203 20.403 7.79113C15.0646 6.31066 11.8817 9.45336 10.6849 11.7751C8.58832 12.2384 5.38291 14.084 4.77057 18.6535C3.90088 19.5999 3.21452 21.4267 3.03974 23.3528C2.82204 25.7426 3.42365 27.8199 4.73518 29.2022C8.10508 32.7526 12.7794 31.9226 15.3619 30.756C15.782 31.6195 16.4279 32.3424 17.1032 32.9224C18.1156 33.7926 19.3081 34.2441 20.5778 34.2441C20.7409 34.2441 20.906 34.2366 21.0722 34.2216C22.6569 34.078 24.0693 33.27 24.9545 32.565C24.9712 32.5742 24.9884 32.5831 25.0058 32.5915C26.6166 33.3738 28.2059 33.7669 29.6858 33.7669C30.8622 33.7669 31.9689 33.5181 32.9609 33.0178C34.6167 32.1824 35.7856 30.695 36.2028 28.9078C38.888 25.4435 38.0762 22.6016 36.9695 21.1587ZM11.7086 20.0539C11.5007 19.4938 11.3004 18.6362 11.5503 17.9404C11.7433 17.4015 12.1916 16.9962 12.9219 16.7002C14.7107 15.9742 15.5472 16.8557 15.6222 16.9404C15.9171 17.3168 16.4212 17.452 16.8695 17.2852C17.3166 17.1174 17.604 16.6755 17.5804 16.1983C17.5804 16.1849 17.5247 14.8648 18.3622 14.2187C19.0148 13.7146 20.1526 13.6681 21.6641 14.0797C21.1069 15.5975 21.4481 17.3183 21.6392 18.0425C21.0691 18.5412 20.5946 19.1737 20.2207 19.9378C18.422 20.3122 17.3882 21.0855 16.813 22.1671C15.3941 20.6242 13.5016 19.9799 11.7086 20.0539ZM24.0363 30.4328C23.7425 30.7964 22.3923 31.8967 20.8738 32.0344C19.9902 32.1138 19.2352 31.8586 18.5338 31.2564C16.2828 29.3229 17.011 27.6537 18.1349 26.1378C18.1518 26.1149 18.1679 26.0914 18.1831 26.0672C18.1983 26.043 18.2125 26.0183 18.2257 25.993C18.2389 25.9677 18.2511 25.9419 18.2623 25.9157C18.2736 25.8894 18.2837 25.8628 18.2929 25.8358C18.302 25.8087 18.3101 25.7814 18.3171 25.7537C18.3241 25.726 18.33 25.6981 18.3348 25.67C18.3396 25.6419 18.3433 25.6136 18.3459 25.5852C18.3485 25.5568 18.35 25.5283 18.3504 25.4997C18.3836 23.1404 18.7729 22.3506 21.1472 22.0032C21.1591 22.0015 21.171 21.9995 21.1828 21.9974C21.1946 21.9953 21.2064 21.9929 21.2182 21.9904C21.2299 21.9879 21.2416 21.9851 21.2533 21.9822C21.265 21.9794 21.2766 21.9762 21.2882 21.9729C21.2997 21.9697 21.3112 21.9662 21.3227 21.9626C21.3341 21.9589 21.3455 21.9551 21.3568 21.951C21.3682 21.947 21.3794 21.9428 21.3905 21.9383C21.4018 21.934 21.4129 21.9294 21.4239 21.9246C21.4349 21.9198 21.4459 21.9149 21.4568 21.9097C21.4676 21.9046 21.4784 21.8993 21.4891 21.8938C21.4998 21.8884 21.5104 21.8827 21.5209 21.8769C21.5314 21.8711 21.5419 21.8651 21.5522 21.8589C21.5625 21.8527 21.5727 21.8464 21.5828 21.8399C21.5929 21.8334 21.6029 21.8267 21.6128 21.8199C21.6227 21.8131 21.6325 21.8061 21.6421 21.7989C21.6518 21.7917 21.6613 21.7844 21.6707 21.777C21.6802 21.7695 21.6894 21.7619 21.6986 21.7541C21.7078 21.7463 21.7168 21.7384 21.7257 21.7304C21.7346 21.7223 21.7434 21.7141 21.7521 21.7057C21.7607 21.6974 21.7692 21.6889 21.7776 21.6803C21.7859 21.6716 21.7941 21.6628 21.8022 21.6539C21.8103 21.645 21.8182 21.636 21.826 21.6269C21.8338 21.6177 21.8414 21.6084 21.8489 21.599C21.8564 21.5896 21.8637 21.5801 21.8709 21.5704C21.878 21.5607 21.885 21.551 21.8919 21.5411C21.8987 21.5312 21.9053 21.5212 21.9119 21.5111C21.9184 21.501 21.9248 21.4908 21.9309 21.4805C21.9371 21.4702 21.9431 21.4598 21.9489 21.4493C21.9548 21.4388 21.9604 21.4282 21.9659 21.4175C21.9714 21.4068 21.9767 21.396 21.9819 21.3851C21.987 21.3743 21.992 21.3633 21.9968 21.3523C22.0015 21.3413 22.0061 21.3301 22.0105 21.319C23.365 17.876 26.7656 19.069 27.1548 19.2208C27.7157 19.4412 28.3538 19.1672 28.5779 18.6037C28.801 18.0401 28.5253 17.402 27.9624 17.1779C27.866 17.1399 25.79 16.3367 23.6487 16.9515C23.5108 16.1445 23.4643 14.9965 23.9956 14.3526C24.432 13.825 25.2996 13.6368 26.5661 13.7945C27.2289 13.8765 28.7721 14.1698 28.8 15.1189C28.8006 15.1406 28.802 15.1623 28.8039 15.1839C28.8059 15.2056 28.8084 15.2271 28.8117 15.2486C28.8149 15.2701 28.8188 15.2915 28.8233 15.3127C28.8278 15.334 28.8329 15.3551 28.8387 15.376C28.8444 15.397 28.8508 15.4178 28.8578 15.4383C28.8648 15.4589 28.8723 15.4793 28.8806 15.4994C28.8888 15.5196 28.8975 15.5394 28.9069 15.559C28.9163 15.5786 28.9262 15.5979 28.9368 15.6169C28.9472 15.636 28.9583 15.6546 28.97 15.673C28.9816 15.6913 28.9937 15.7094 29.0064 15.727C29.0191 15.7447 29.0323 15.7619 29.046 15.7788C29.0597 15.7956 29.0739 15.8121 29.0886 15.8281C29.1033 15.8441 29.1184 15.8597 29.134 15.8748C29.1496 15.8899 29.1657 15.9046 29.1821 15.9187C29.1986 15.9329 29.2155 15.9466 29.2328 15.9597C29.25 15.973 29.2677 15.9856 29.2857 15.9977C29.4755 16.1253 29.6986 16.1896 29.9216 16.1843C30.2112 16.373 30.8053 17.0385 30.8321 17.7939C30.8579 18.506 30.3195 19.1408 29.3232 19.6412C29.0777 19.7366 23.2953 22.0321 21.4293 26.6997C21.2041 27.2628 21.4786 27.9019 22.0416 28.1271C22.1757 28.1802 22.313 28.2059 22.4491 28.2059C22.8845 28.2054 23.2974 27.9443 23.469 27.5147C24.9778 23.7404 30.0696 21.7077 30.2101 21.6482C33.1292 20.1972 33.4059 17.921 32.6917 16.2743C32.3453 15.476 31.6321 14.5821 30.8332 14.1826C30.5104 13.2357 29.5635 11.9525 26.8364 11.6153C25.2571 11.4175 23.9969 11.636 23.069 12.2591C23.0246 12.2288 22.9782 12.2018 22.9299 12.1783C22.8816 12.1548 22.8318 12.135 22.7805 12.1188C20.2711 11.3262 18.3279 11.4539 16.9982 12.4968C16.285 13.0555 15.8839 13.781 15.6609 14.4507C14.7954 14.1467 13.6029 14.0518 12.0962 14.6646C10.4393 15.3365 9.7573 16.4223 9.47734 17.2153C9.04676 18.4322 9.26711 19.6681 9.54164 20.5154C7.42629 21.3651 6.41299 23.2224 7.07519 25.0584C7.56957 26.4305 8.45969 26.9952 9.11918 27.2279C9.51273 27.3667 9.91598 27.4225 10.3085 27.4225C11.7766 27.4225 13.1053 26.6467 13.2866 26.5362C13.8035 26.222 13.9675 25.5496 13.6544 25.0316C13.3423 24.5142 12.6689 24.3474 12.1487 24.6573C11.7906 24.8723 10.5948 25.422 9.84629 25.1554C9.64894 25.0852 9.36051 24.9206 9.14062 24.3131C8.75137 23.2337 10.1283 22.6412 10.4082 22.5335C11.9924 21.9246 14.7794 22.14 16.1503 25.1378C15.2858 26.3947 14.9179 27.5301 14.8824 28.5425C13.9793 28.9985 9.48121 31.0144 6.32877 27.6901C5.15451 26.4526 5.13412 24.5662 5.22635 23.5517C5.39365 21.7098 6.10893 20.3248 6.46174 20.0674C6.47739 20.056 6.49271 20.0442 6.50771 20.032C6.52271 20.0198 6.53739 20.0072 6.55174 19.9942C6.56606 19.9812 6.58005 19.9679 6.59369 19.9541C6.60731 19.9404 6.62057 19.9263 6.63346 19.9119C6.64635 19.8975 6.65885 19.8827 6.67096 19.8676C6.68307 19.8526 6.69477 19.8372 6.70607 19.8214C6.71738 19.8057 6.72825 19.7897 6.73869 19.7735C6.74916 19.7572 6.75919 19.7406 6.76877 19.7239C6.77833 19.7071 6.78746 19.69 6.79615 19.6727C6.80482 19.6554 6.81304 19.6379 6.8208 19.6202C6.82853 19.6024 6.83582 19.5845 6.84264 19.5664C6.84943 19.5483 6.85575 19.53 6.86158 19.5116C6.86744 19.4931 6.87279 19.4746 6.87764 19.4558C6.88251 19.4371 6.88687 19.4183 6.89072 19.3993C6.8946 19.3803 6.89796 19.3613 6.9008 19.3422C6.90367 19.323 6.90602 19.3038 6.90789 19.2846C7.37758 14.3708 11.382 13.8743 11.545 13.856C11.9503 13.8169 12.3021 13.5515 12.4565 13.1745C12.6667 12.663 14.6732 8.23078 20.2346 10.0329C20.5671 10.1407 20.9264 10.0849 21.2084 9.88441C22.6668 8.85113 24.9854 8.51117 26.8524 9.05972C27.7543 9.32515 28.935 9.90691 29.4444 11.1724C29.4494 11.185 29.4548 11.1975 29.4603 11.2099C29.4658 11.2223 29.4716 11.2347 29.4776 11.2469C29.4836 11.259 29.4898 11.2712 29.4962 11.2831C29.5027 11.2951 29.5093 11.3069 29.5162 11.3187C29.5231 11.3304 29.5302 11.342 29.5375 11.3534C29.5448 11.3649 29.5523 11.3762 29.5601 11.3874C29.5678 11.3986 29.5757 11.4096 29.5839 11.4205C29.592 11.4314 29.6004 11.4421 29.6089 11.4527C29.6175 11.4633 29.6262 11.4737 29.6352 11.484C29.6441 11.4942 29.6532 11.5043 29.6625 11.5142C29.6718 11.5241 29.6812 11.5339 29.6909 11.5434C29.7006 11.553 29.7104 11.5624 29.7205 11.5715C29.7305 11.5808 29.7406 11.5898 29.751 11.5986C29.7613 11.6074 29.7718 11.616 29.7825 11.6244C29.7932 11.6329 29.804 11.6411 29.815 11.6491C29.8259 11.6572 29.8371 11.665 29.8484 11.6726C29.8596 11.6802 29.871 11.6876 29.8826 11.6948C29.8941 11.702 29.9058 11.709 29.9176 11.7157C29.9294 11.7225 29.9413 11.729 29.9533 11.7353C29.9653 11.7416 29.9775 11.7477 29.9898 11.7536C30.0021 11.7594 30.0144 11.7651 30.0269 11.7705C30.0394 11.7759 30.052 11.781 30.0646 11.786C30.0773 11.7909 30.09 11.7956 30.1029 11.8001C30.1157 11.8045 30.1287 11.8087 30.1417 11.8127C30.1546 11.8167 30.1677 11.8205 30.1809 11.8239C30.194 11.8274 30.2072 11.8307 30.2205 11.8337C30.2337 11.8367 30.247 11.8395 30.2604 11.842C30.2737 11.8445 30.2872 11.8467 30.3006 11.8487C30.3141 11.8508 30.3275 11.8526 30.3411 11.854C30.3546 11.8556 30.3681 11.8568 30.3816 11.8578C30.3952 11.8588 30.4088 11.8596 30.4224 11.8601C30.436 11.8606 30.4496 11.8608 30.4632 11.8608C30.9961 11.8608 33.2868 12.4528 34.5747 14.3338C35.7179 16.003 35.7565 18.2497 34.6863 21.0106C34.6781 21.0322 34.6706 21.0542 34.6638 21.0763C33.9819 21.0758 33.3171 21.2113 32.6744 21.4832C31.4213 22.0141 30.4892 22.983 29.8536 23.8598C29.5282 23.5994 29.0684 23.5369 28.6722 23.7377C28.1318 24.0111 27.9141 24.6717 28.1875 25.2128C28.773 26.3715 28.876 27.3244 28.4931 28.045C27.7907 29.3715 25.5548 29.9303 24.7548 30.0338C24.4728 30.0688 24.2143 30.2119 24.0363 30.4328ZM34.3282 27.7374C34.2134 27.8789 34.1362 28.0473 34.1019 28.2269C33.8692 29.4763 33.1121 30.4817 31.971 31.057C30.8346 31.6309 29.4398 31.7209 27.9243 31.3409C28.8882 30.8688 29.8581 30.1544 30.43 29.0816C30.857 28.2801 31.0055 27.3967 30.877 26.4402C31.0671 26.0187 31.9778 24.1584 33.5399 23.5022C34.2111 23.22 34.9171 23.1991 35.6918 23.4405C35.961 24.3704 35.8859 25.8152 34.3282 27.7374Z"   fill="#00ADB5" >
</path>
<path   transform="translate(0.5, 0.5)" stroke="rgba(28, 26, 26, 1)" stroke-width="1"    d="">
</path>
</g>
</svg>