<svg xmlns="http://www.w3.org/2000/svg" xmlns:xlink="http://www.w3.org/1999/xlink" width="40" height="40" viewBox="0 0 40 40" fill="none">
<path d="M21.3993 19.8481L21.2525 19.4998L21.0737 19.646L21.3993 19.8481Z"   fill="#FFFFFF" >
</path>
<path d="M19.9501 4.95874C11.6846 4.95874 4.98389 11.6603 4.98389 19.9248C4.98389 28.1919 11.6846 34.8909 19.9501 34.8909C28.2172 34.8909 34.9162 28.1919 34.9162 19.9248C34.9162 11.6603 28.2172 4.95874 19.9501 4.95874ZM19.8744 12.0557C22.4037 12.0557 24.4551 14.1062 24.4551 16.6355C24.4551 19.1657 22.4037 21.2161 19.8744 21.2161C17.3451 21.2161 15.2938 19.1657 15.2938 16.6355C15.2938 14.1062 17.3451 12.0557 19.8744 12.0557ZM28.3221 31.6816C25.9664 33.3648 23.0898 34.3656 19.9741 34.3656C16.8946 34.3656 14.0488 33.3915 11.7087 31.7461C11.6107 31.2293 11.5539 30.6997 11.5539 30.1555C11.5539 25.4846 15.3402 21.6984 20.012 21.6984C24.682 21.6984 28.4665 25.4846 28.4665 30.1555C28.4665 30.6783 28.4115 31.1864 28.3221 31.6816Z" stroke="rgba(0, 173, 181, 1)" stroke-width="1"      fill="#00ADB5" >
</path>
</svg>