<svg xmlns="http://www.w3.org/2000/svg" xmlns:xlink="http://www.w3.org/1999/xlink" width="40" height="40" viewBox="0 0 40 40" fill="none">
<path d="M12.8125 17.5C12.8125 17.6176 12.8154 17.7352 12.8212 17.8527C12.8269 17.9702 12.8356 18.0874 12.8471 18.2045C12.8586 18.3216 12.873 18.4382 12.8903 18.5546C12.9075 18.671 12.9277 18.7868 12.9506 18.9022C12.9736 19.0176 12.9993 19.1323 13.0279 19.2464C13.0565 19.3605 13.0879 19.4739 13.122 19.5864C13.1561 19.699 13.193 19.8107 13.2327 19.9214C13.2723 20.0321 13.3146 20.1419 13.3596 20.2505C13.4046 20.3592 13.4523 20.4667 13.5026 20.573C13.5529 20.6794 13.6057 20.7844 13.6612 20.8882C13.7166 20.9919 13.7746 21.0942 13.8351 21.1951C13.8955 21.296 13.9585 21.3953 14.0238 21.4932C14.0892 21.591 14.1569 21.6871 14.227 21.7816C14.297 21.8761 14.3694 21.9688 14.444 22.0597C14.5186 22.1506 14.5954 22.2397 14.6744 22.3268C14.7534 22.414 14.8345 22.4992 14.9177 22.5823C15.0008 22.6655 15.086 22.7466 15.1732 22.8256C15.2603 22.9046 15.3494 22.9814 15.4403 23.056C15.5312 23.1306 15.6239 23.203 15.7184 23.273C15.8129 23.3431 15.909 23.4108 16.0068 23.4762C16.1046 23.5415 16.204 23.6045 16.3049 23.6649C16.4058 23.7254 16.5081 23.7834 16.6118 23.8388C16.7156 23.8943 16.8206 23.9471 16.927 23.9974C17.0333 24.0477 17.1408 24.0953 17.2495 24.1404C17.3581 24.1854 17.4678 24.2277 17.5786 24.2673C17.6893 24.307 17.801 24.3439 17.9136 24.378C18.0261 24.4121 18.1395 24.4435 18.2536 24.4721C18.3677 24.5007 18.4824 24.5264 18.5978 24.5494C18.7132 24.5723 18.829 24.5925 18.9454 24.6097C19.0618 24.6269 19.1784 24.6414 19.2955 24.6529C19.4126 24.6644 19.5298 24.6731 19.6473 24.6788C19.7648 24.6846 19.8824 24.6875 20 24.6875C20.1176 24.6875 20.2352 24.6846 20.3527 24.6788C20.4702 24.6731 20.5874 24.6644 20.7045 24.6529C20.8216 24.6414 20.9382 24.6269 21.0546 24.6097C21.171 24.5925 21.2868 24.5723 21.4022 24.5494C21.5176 24.5264 21.6323 24.5007 21.7464 24.4721C21.8605 24.4435 21.9739 24.4121 22.0864 24.378C22.199 24.3439 22.3107 24.307 22.4214 24.2673C22.5321 24.2277 22.6419 24.1854 22.7505 24.1404C22.8592 24.0953 22.9667 24.0477 23.073 23.9974C23.1794 23.9471 23.2844 23.8943 23.3882 23.8388C23.4919 23.7834 23.5942 23.7254 23.6951 23.6649C23.796 23.6045 23.8953 23.5415 23.9932 23.4762C24.091 23.4108 24.1871 23.3431 24.2816 23.273C24.3761 23.203 24.4688 23.1306 24.5597 23.056C24.6506 22.9814 24.7397 22.9046 24.8268 22.8256C24.914 22.7466 24.9992 22.6655 25.0823 22.5823C25.1655 22.4992 25.2466 22.414 25.3256 22.3268C25.4046 22.2397 25.4814 22.1506 25.556 22.0597C25.6306 21.9688 25.703 21.8761 25.773 21.7816C25.8431 21.6871 25.9108 21.591 25.9762 21.4932C26.0415 21.3953 26.1045 21.296 26.1649 21.1951C26.2254 21.0942 26.2834 20.9919 26.3388 20.8882C26.3943 20.7844 26.4471 20.6794 26.4974 20.573C26.5477 20.4667 26.5953 20.3592 26.6404 20.2505C26.6854 20.1419 26.7277 20.0321 26.7673 19.9214C26.807 19.8107 26.8439 19.699 26.878 19.5864C26.9121 19.4739 26.9435 19.3605 26.9721 19.2464C27.0007 19.1323 27.0264 19.0176 27.0494 18.9022C27.0723 18.7868 27.0925 18.671 27.1097 18.5546C27.127 18.4382 27.1414 18.3216 27.1529 18.2045C27.1644 18.0874 27.1731 17.9702 27.1788 17.8527C27.1846 17.7352 27.1875 17.6176 27.1875 17.5C27.1875 17.3824 27.1846 17.2648 27.1788 17.1473C27.1731 17.0298 27.1644 16.9126 27.1529 16.7955C27.1414 16.6784 27.127 16.5618 27.1097 16.4454C27.0925 16.329 27.0723 16.2132 27.0494 16.0978C27.0264 15.9824 27.0007 15.8677 26.9721 15.7536C26.9435 15.6395 26.9121 15.5261 26.878 15.4136C26.8439 15.301 26.807 15.1893 26.7673 15.0786C26.7277 14.9678 26.6854 14.8581 26.6404 14.7495C26.5953 14.6408 26.5477 14.5333 26.4974 14.427C26.4471 14.3206 26.3943 14.2156 26.3388 14.1118C26.2834 14.0081 26.2254 13.9058 26.1649 13.8049C26.1045 13.704 26.0415 13.6046 25.9762 13.5068C25.9108 13.409 25.8431 13.3129 25.773 13.2184C25.703 13.1239 25.6306 13.0312 25.556 12.9403C25.4814 12.8494 25.4046 12.7603 25.3256 12.6732C25.2466 12.586 25.1655 12.5008 25.0823 12.4177C24.9992 12.3345 24.914 12.2534 24.8268 12.1744C24.7397 12.0954 24.6506 12.0186 24.5597 11.944C24.4688 11.8694 24.3761 11.797 24.2816 11.727C24.1871 11.6569 24.091 11.5892 23.9932 11.5238C23.8953 11.4585 23.796 11.3955 23.6951 11.3351C23.5942 11.2746 23.4919 11.2166 23.3882 11.1612C23.2844 11.1057 23.1794 11.0529 23.073 11.0026C22.9667 10.9523 22.8592 10.9046 22.7505 10.8596C22.6419 10.8146 22.5321 10.7723 22.4214 10.7327C22.3107 10.693 22.199 10.6561 22.0864 10.622C21.9739 10.5879 21.8605 10.5565 21.7464 10.5279C21.6323 10.4993 21.5176 10.4736 21.4022 10.4506C21.2868 10.4277 21.171 10.4075 21.0546 10.3903C20.9382 10.373 20.8216 10.3586 20.7045 10.3471C20.5874 10.3356 20.4702 10.3269 20.3527 10.3212C20.2352 10.3154 20.1176 10.3125 20 10.3125C19.8824 10.3125 19.7648 10.3154 19.6473 10.3212C19.5298 10.3269 19.4126 10.3356 19.2955 10.3471C19.1784 10.3586 19.0618 10.373 18.9454 10.3903C18.829 10.4075 18.7132 10.4277 18.5978 10.4506C18.4824 10.4736 18.3677 10.4993 18.2536 10.5279C18.1395 10.5565 18.0261 10.5879 17.9136 10.622C17.801 10.6561 17.6893 10.693 17.5786 10.7327C17.4678 10.7723 17.3581 10.8146 17.2495 10.8596C17.1408 10.9046 17.0333 10.9523 16.927 11.0026C16.8206 11.0529 16.7156 11.1057 16.6118 11.1612C16.5081 11.2166 16.4058 11.2746 16.3049 11.3351C16.204 11.3955 16.1046 11.4585 16.0068 11.5238C15.909 11.5892 15.8129 11.6569 15.7184 11.727C15.6239 11.797 15.5312 11.8694 15.4403 11.944C15.3494 12.0186 15.2603 12.0954 15.1732 12.1744C15.086 12.2534 15.0008 12.3345 14.9177 12.4177C14.8345 12.5008 14.7534 12.586 14.6744 12.6732C14.5954 12.7603 14.5186 12.8494 14.444 12.9403C14.3694 13.0312 14.297 13.1239 14.227 13.2184C14.1569 13.3129 14.0892 13.409 14.0238 13.5068C13.9585 13.6046 13.8955 13.704 13.8351 13.8049C13.7746 13.9058 13.7166 14.0081 13.6612 14.1118C13.6057 14.2156 13.5529 14.3206 13.5026 14.427C13.4523 14.5333 13.4046 14.6408 13.3596 14.7495C13.3146 14.8581 13.2723 14.9678 13.2327 15.0786C13.193 15.1893 13.1561 15.301 13.122 15.4136C13.0879 15.5261 13.0565 15.6395 13.0279 15.7536C12.9993 15.8677 12.9736 15.9824 12.9506 16.0978C12.9277 16.2132 12.9075 16.329 12.8903 16.4454C12.873 16.5618 12.8586 16.6784 12.8471 16.7955C12.8356 16.9126 12.8269 17.0298 12.8212 17.1473C12.8154 17.2648 12.8125 17.3824 12.8125 17.5ZM30.9375 30.6875C33.6875 27.875 35.3125 24.125 35.3125 20C35.3125 11.5625 28.4375 4.6875 20 4.6875C11.5625 4.6875 4.6875 11.5625 4.6875 20C4.6875 24.125 6.3125 27.875 9 30.6875C9 30.6875 9 30.75 9.0625 30.75C11.75 33.5 15.375 35.125 19.1875 35.3125L20.8125 35.3125C24.625 35.125 28.25 33.5 30.9375 30.6875ZM20 6.5625C27.4375 6.5625 33.4375 12.5625 33.4375 20C33.4375 23 32.4375 25.8125 30.75 28.0625C30.125 26.0625 29.25 24.3125 28.0625 22.8125C27.875 22.5625 27.625 22.4375 27.3125 22.4375C27.0625 22.4375 26.75 22.5625 26.5625 22.8125C24.9375 24.8125 22.5625 26 20 26C17.4375 26 15 24.8125 13.4375 22.8125C13.25 22.5625 13 22.4375 12.6875 22.4375C12.375 22.4375 12.125 22.5625 11.9375 22.8125C10.75 24.3125 9.875 26.125 9.25 28.0625C7.5625 25.8125 6.5625 23.0625 6.5625 20C6.5625 12.5625 12.5625 6.5625 20 6.5625Z"   fill="#00ADB5" >
</path>
</svg>