<svg xmlns="http://www.w3.org/2000/svg" xmlns:xlink="http://www.w3.org/1999/xlink" width="48" height="103" viewBox="0 0 48 103" fill="none">
<path fill-rule="evenodd"  fill="rgba(0, 186, 173, 1)"  d="M11 95.126C9.30121 95.5635 8.03271 97.091 8.00061 98.9302C7.96205 101.139 9.72139 102.961 11.9302 102.999C14.139 103.038 15.9608 101.279 15.9994 99.0698C16.0323 97.1819 14.7519 95.5768 13 95.1261L13 -6.12323e-17L11 6.12323e-17L11 95.126ZM11 97.2676C10.4128 97.6073 10.013 98.2374 10.0003 98.9651C9.98103 100.069 10.8607 100.98 11.9651 101C13.0695 101.019 13.9804 100.139 13.9997 99.0349C14.0128 98.2823 13.6085 97.6195 13 97.2675C12.7156 97.103 12.3867 97.0064 12.0349 97.0003C11.6582 96.9937 11.304 97.0917 11 97.2676Z">
</path>
<path fill-rule="evenodd"  fill="rgba(0, 186, 173, 1)"  d="M29 45.5L20 45.5L20 47.5L28.4854 47.5L40.9351 64.9296C40.3662 65.607 40.0173 66.4767 40.0006 67.4302C39.9621 69.639 41.7214 71.4608 43.9302 71.4994C46.139 71.5379 47.9608 69.7786 47.9994 67.5698C48.0379 65.361 46.2786 63.5392 44.0698 63.5006C43.5383 63.4913 43.0292 63.5862 42.562 63.7663L29.8137 45.9188L29.5146 45.5L29 45.5ZM43.8069 65.5092C43.0831 65.5785 42.4694 66.0346 42.1792 66.6713C42.0688 66.9136 42.0052 67.1819 42.0003 67.4651C41.981 68.5695 42.8607 69.4804 43.9651 69.4997C45.0695 69.519 45.9804 68.6393 45.9997 67.5349C46.019 66.4305 45.1393 65.5196 44.0349 65.5003C43.9579 65.499 43.8818 65.502 43.8069 65.5092Z">
</path>
<path fill-rule="evenodd"  fill="rgba(0, 186, 173, 1)"  d="M20 29L12.5 29L12.5 31L19 31L19 78.626C17.3012 79.0635 16.0327 80.591 16.0006 82.4302C15.9621 84.639 17.7214 86.4608 19.9302 86.4994C22.139 86.5379 23.9608 84.7786 23.9994 82.5698C24.0323 80.6819 22.7519 79.0767 21 78.6261L21 29L20 29ZM21 80.7675C20.7156 80.603 20.3867 80.5064 20.0349 80.5003C19.6582 80.4937 19.304 80.5918 19 80.7676C18.4128 81.1073 18.013 81.7374 18.0003 82.4651C17.981 83.5695 18.8607 84.4804 19.9651 84.4997C21.0695 84.519 21.9804 83.6393 21.9997 82.5349C22.0128 81.7823 21.6085 81.1195 21 80.7675Z">
</path>
<path fill-rule="evenodd"  fill="rgba(0, 186, 173, 1)"  d="M5 14.5L11.5 14.5L11.5 12.5L3 12.5L3 65.126C1.30121 65.5635 0.0327125 67.091 0.000609159 68.9302C-0.0379457 71.139 1.72139 72.9608 3.93019 72.9994C6.13899 73.0379 7.96084 71.2786 7.99939 69.0698C8.03234 67.1819 6.75191 65.5768 5 65.1261L5 14.5ZM5 67.2675C4.71562 67.103 4.38666 67.0064 4.0349 67.0003C3.65819 66.9937 3.30398 67.0918 3 67.2676C2.41281 67.6073 2.01301 68.2374 2.0003 68.9651C1.98103 70.0695 2.86069 70.9804 3.9651 70.9997C5.0695 71.019 5.98042 70.1393 5.9997 69.0349C6.01283 68.2823 5.60847 67.6195 5 67.2675Z">
</path>
</svg>
